SplineFontDB: 3.0
FontName: ListingOne
FullName: Listing One
FamilyName: ListingOne
Weight: Regular
Copyright: Copyright (c) 2016, Chris Hennick
UComments: "2016-11-22: Created with FontForge (http://fontforge.org)"
Version: 001.000
ItalicAngle: 0
UnderlinePosition: -24
UnderlineWidth: 8
Ascent: 206
Descent: 50
InvalidEm: 0
LayerCount: 2
Layer: 0 0 "Back" 1
Layer: 1 0 "Fore" 0
XUID: [1021 226 -69582396 20756]
StyleMap: 0x0000
FSType: 0
OS2Version: 0
OS2_WeightWidthSlopeOnly: 0
OS2_UseTypoMetrics: 1
CreationTime: 1479806616
ModificationTime: 1482809823
PfmFamily: 17
TTFWeight: 400
TTFWidth: 5
LineGap: 23
VLineGap: 23
Panose: 2 0 5 9 0 0 0 0 0 0
OS2TypoAscent: 0
OS2TypoAOffset: 1
OS2TypoDescent: 0
OS2TypoDOffset: 1
OS2TypoLinegap: 23
OS2WinAscent: 0
OS2WinAOffset: 1
OS2WinDescent: 0
OS2WinDOffset: 1
HheadAscent: 0
HheadAOffset: 1
HheadDescent: 0
HheadDOffset: 1
OS2Vendor: 'PfEd'
Lookup: 4 0 1 "'rlig' Required Ligatures in Latin lookup 0" { "'rlig' Required Ligatures in Latin lookup 0-1"  } ['rlig' ('DFLT' <'dflt' > 'latn' <'dflt' > ) ]
MarkAttachClasses: 1
DEI: 91125

StartChar: n
Encoding: 110 110 0
Width: 152
VWidth: 0
Flags: W
HStem: 0 21G<12 36 116 140> 116 20G<12 36> 130 8<58.8394 103.603>
VStem: 12 24<0 110 126 136> 116 24<0 110>
LayerCount: 2
Fore
SplineSet
84 138 m 7xb8
 106 138 140 130 140 106 c 6
 140 0 l 1
 116 0 l 1
 116 110 l 5
 116 110 116 122 104 126 c 4
 94 130 88 130 76 130 c 4xb8
 64 130 52 124 48 122 c 4
 40 118 36 110 36 110 c 5
 36 0 l 1
 12 0 l 1
 12 136 l 1
 36 136 l 1xd8
 36 126 l 5
 36 126 62 138 84 138 c 7xb8
EndSplineSet
Validated: 1
EndChar

StartChar: o
Encoding: 111 111 1
AltUni2: 00043e.ffffffff.0 0003bf.ffffffff.0
Width: 152
VWidth: 0
Flags: W
HStem: -2 8<53.971 98.029> 130 8<53.971 98.029>
VStem: 12 24<18.6436 117.356> 116 24<18.6436 117.356>
LayerCount: 2
Fore
SplineSet
76 138 m 4
 104 138 140 130 140 102 c 6
 140 34 l 2
 140 6 104 -2 76 -2 c 0
 48 -2 12 6 12 34 c 2
 12 102 l 2
 12 130 48 138 76 138 c 4
76 130 m 0
 56 130 36 122 36 102 c 2
 36 34 l 2
 36 14 56 6 76 6 c 0
 96 6 116 14 116 34 c 2
 116 102 l 2
 116 122 96 130 76 130 c 0
EndSplineSet
Validated: 1
EndChar

StartChar: dotlessi
Encoding: 305 305 3
AltUni2: 0005d5.ffffffff.0
Width: 152
VWidth: 0
Flags: W
HStem: 0 21G<66 90> 128 8<38 66>
VStem: 66 24<0 128>
LayerCount: 2
Fore
SplineSet
38 136 m 1
 90 136 l 1
 90 0 l 1
 66 0 l 1
 66 128 l 1
 38 128 l 1
 38 136 l 1
EndSplineSet
Validated: 1
EndChar

StartChar: p
Encoding: 112 112 4
AltUni2: 000440.ffffffff.0
Width: 152
VWidth: 0
Flags: W
HStem: -2 8<53.871 98.029> 116 20G<12 36> 130 8<53.8355 98.029>
VStem: 12 24<-48 4 18.6436 117.356 132 136> 116 24<18.6436 117.356>
LayerCount: 2
Fore
SplineSet
76 138 m 0xb8
 104 138 140 130 140 102 c 2
 140 34 l 2
 140 6 104 -2 76 -2 c 0
 62 -2 48 0 36 4 c 1
 36 -48 l 1
 12 -48 l 1
 12 136 l 1
 36 136 l 1xd8
 36 132 l 1
 36 132 62 138 76 138 c 0xb8
36 102 m 2
 36 34 l 2
 36 14 56 6 76 6 c 0
 96 6 116 14 116 34 c 2
 116 102 l 2
 116 122 96 130 76 130 c 0xb8
 56 130 36 122 36 102 c 2
EndSplineSet
Validated: 1
EndChar

StartChar: q
Encoding: 113 113 5
Width: 152
VWidth: 0
Flags: W
HStem: -2 8<53.971 98.129> 116 20G<116 140> 130 8<53.971 98.1645>
VStem: 12 24<18.6436 117.356> 116 24<-48 4 18.6436 117.356 132 136>
LayerCount: 2
Fore
SplineSet
76 138 m 0xb8
 90 138 116 132 116 132 c 1
 116 136 l 1
 140 136 l 1xd8
 140 -48 l 1
 116 -48 l 1
 116 4 l 1
 104 0 90 -2 76 -2 c 0
 48 -2 12 6 12 34 c 2
 12 102 l 2
 12 130 48 138 76 138 c 0xb8
116 102 m 2
 116 122 96 130 76 130 c 0xb8
 56 130 36 122 36 102 c 2
 36 34 l 2
 36 14 56 6 76 6 c 0
 96 6 116 14 116 34 c 2
 116 102 l 2
EndSplineSet
Validated: 1
EndChar

StartChar: d
Encoding: 100 100 6
Width: 152
VWidth: 0
Flags: W
HStem: -2 8<53.971 98.129> 0 21G<116 140> 128 8<53.971 98.129> 164 20G<116 140>
VStem: 12 24<18.6436 115.356> 116 24<0 4 18.6436 115.356 130 184>
LayerCount: 2
Fore
SplineSet
76 -2 m 0xbc
 48 -2 12 6 12 34 c 2
 12 100 l 2
 12 128 48 136 76 136 c 0
 90 136 104 134 116 130 c 1
 116 184 l 1
 140 184 l 1
 140 0 l 1
 116 0 l 1x7c
 116 4 l 1
 104 0 90 -2 76 -2 c 0xbc
116 34 m 2
 116 100 l 2
 116 120 96 128 76 128 c 0
 56 128 36 120 36 100 c 2
 36 34 l 2
 36 14 56 6 76 6 c 0xbc
 96 6 116 14 116 34 c 2
EndSplineSet
Validated: 1
EndChar

StartChar: b
Encoding: 98 98 7
Width: 152
VWidth: 0
Flags: W
HStem: -2 8<53.8355 98.029> 0 21G<12 36> 128 8<53.871 98.029> 164 20G<12 36>
VStem: 12 24<0 4 18.6436 115.356 130 184> 116 24<18.6436 115.356>
LayerCount: 2
Fore
SplineSet
76 -2 m 0xbc
 62 -2 36 4 36 4 c 1
 36 0 l 1
 12 0 l 1x7c
 12 184 l 1
 36 184 l 1
 36 130 l 1
 48 134 62 136 76 136 c 0
 104 136 140 128 140 100 c 2
 140 34 l 2
 140 6 104 -2 76 -2 c 0xbc
36 34 m 2
 36 14 56 6 76 6 c 0xbc
 96 6 116 14 116 34 c 2
 116 100 l 2
 116 120 96 128 76 128 c 0
 56 128 36 120 36 100 c 2
 36 34 l 2
EndSplineSet
Validated: 1
EndChar

StartChar: a
Encoding: 97 97 8
AltUni2: 000430.ffffffff.0
Width: 152
VWidth: 0
Flags: W
HStem: -2 8<53.971 98.129> 0 21G<116 140> 130 8<52.504 99.496>
VStem: 12 24<18.6436 54.5996 104 118.473> 116 24<0 4 18.6436 84 92 118.473>
LayerCount: 2
Fore
SplineSet
116 84 m 1xb8
 48 60 l 2
 44 58 36 52 36 46 c 2
 36 34 l 2
 36 14 56 6 76 6 c 0
 96 6 116 14 116 34 c 2
 116 84 l 1xb8
12 104 m 1
 12 132 48 138 76 138 c 0
 104 138 140 132 140 104 c 2
 140 0 l 1
 116 0 l 1x78
 116 4 l 1
 104 0 90 -2 76 -2 c 0
 48 -2 12 6 12 34 c 2
 12 44 l 2
 12 50 20 58 24 60 c 2
 116 92 l 1
 116 104 l 2
 116 124 96 130 76 130 c 0
 56 130 36 124 36 104 c 1
 12 104 l 1
EndSplineSet
Validated: 1
EndChar

StartChar: s
Encoding: 115 115 10
AltUni2: 000455.ffffffff.0
Width: 152
VWidth: 0
Flags: W
HStem: -2 8<52.504 96.5368> 130 8<45.6267 99.496>
VStem: 12 24<17.5266 32 97.3839 123.666> 116 24<19.4212 49.6674 104 118.473>
LayerCount: 2
Fore
SplineSet
12 110 m 7
 12 138 48 138 76 138 c 4
 104 138 140 132 140 104 c 5
 116 104 l 5
 116 124 96 130 76 130 c 4
 56 130 36 130 36 110 c 7
 36 94 52 88 76 80 c 4
 102 70 140 62 140 34 c 7
 140 6 104 -2 76 -2 c 4
 48 -2 12 4 12 32 c 5
 36 32 l 5
 36 12 56 6 76 6 c 4
 96 6 116 16 116 34 c 7
 116 54 96 62 76 70 c 4
 50 78 12 90 12 110 c 7
EndSplineSet
Validated: 1
EndChar

StartChar: c
Encoding: 99 99 11
AltUni2: 0003f2.ffffffff.0 000441.ffffffff.0
Width: 152
VWidth: 0
Flags: W
HStem: -2 8<52.504 99.496> 130 8<52.504 99.496>
VStem: 12 24<17.5266 118.473> 116 24<17.5266 32 104 118.473>
LayerCount: 2
Fore
SplineSet
140 32 m 1
 140 4 104 -2 76 -2 c 0
 48 -2 12 4 12 32 c 2
 12 104 l 2
 12 132 48 138 76 138 c 0
 104 138 140 132 140 104 c 1
 116 104 l 1
 116 124 96 130 76 130 c 0
 56 130 36 124 36 104 c 2
 36 32 l 2
 36 12 56 6 76 6 c 0
 96 6 116 12 116 32 c 1
 140 32 l 1
EndSplineSet
Validated: 1
EndChar

StartChar: e
Encoding: 101 101 12
AltUni2: 000435.ffffffff.0
Width: 152
VWidth: 0
Flags: W
HStem: -2 8<52.504 99.496> 72 8<36 116> 130 8<53.971 98.029>
VStem: 12 24<17.5266 72 80 117.356> 116 24<17.5266 32 80 117.356>
LayerCount: 2
Fore
SplineSet
140 32 m 1
 140 4 104 -2 76 -2 c 0
 48 -2 12 4 12 32 c 2
 12 102 l 2
 12 130 48 138 76 138 c 0
 104 138 140 130 140 102 c 0
 140 92 140 82 140 72 c 1
 36 72 l 1
 36 32 l 2
 36 12 56 6 76 6 c 0
 96 6 116 12 116 32 c 1
 140 32 l 1
36 80 m 1
 116 80 l 1
 116 102 l 2
 116 122 96 130 76 130 c 0
 56 130 36 122 36 102 c 2
 36 80 l 1
EndSplineSet
Validated: 1
EndChar

StartChar: h
Encoding: 104 104 13
Width: 152
VWidth: 0
Flags: W
HStem: 0 21G<12 36 116 140> 128 8<53.871 98.029> 164 20G<12 36>
VStem: 12 24<0 115.356 130 184> 116 24<0 115.356>
LayerCount: 2
Fore
SplineSet
36 100 m 2
 36 0 l 1
 12 0 l 1
 12 184 l 1
 36 184 l 1
 36 130 l 1
 48 134 62 136 76 136 c 0
 104 136 140 128 140 100 c 2
 140 0 l 1
 116 0 l 1
 116 100 l 2
 116 120 96 128 76 128 c 0
 56 128 36 120 36 100 c 2
EndSplineSet
Validated: 1
EndChar

StartChar: v
Encoding: 118 118 14
Width: 152
VWidth: 0
Flags: W
HStem: 0 21G<66.5882 92.2353> 116 20G<12 43.2857 123.786 140>
LayerCount: 2
Fore
SplineSet
12 136 m 1
 34 136 l 1
 86 24 l 1
 132 136 l 1
 140 136 l 1
 84 0 l 1
 76 0 l 1
 12 136 l 1
EndSplineSet
Validated: 1
EndChar

StartChar: l
Encoding: 108 108 15
Width: 152
VWidth: 0
Flags: W
HStem: 0 8<91.9631 118> 176 8<36 64>
VStem: 64 24<10.834 176>
LayerCount: 2
Fore
SplineSet
64 24 m 2
 64 176 l 1
 36 176 l 1
 36 184 l 1
 88 184 l 1
 88 24 l 2
 88 14 94 8 100 8 c 2
 118 8 l 1
 118 0 l 1
 88 0 l 2
 72 0 64 8 64 24 c 2
EndSplineSet
Validated: 1
EndChar

StartChar: u
Encoding: 117 117 16
Width: 152
VWidth: 0
Flags: W
HStem: -2 8<48.3969 93.1606> 0 21G<116 140> 116 20G<12 36 116 140>
VStem: 12 24<26 136> 116 24<0 10 26 136>
LayerCount: 2
Fore
SplineSet
68 -2 m 3xb8
 46 -2 12 6 12 30 c 2
 12 136 l 1
 36 136 l 1
 36 26 l 1
 36 26 36 14 48 10 c 0
 58 6 64 6 76 6 c 0xb8
 88 6 100 12 104 14 c 0
 112 18 116 26 116 26 c 1
 116 136 l 1
 140 136 l 1
 140 0 l 1
 116 0 l 1x78
 116 10 l 1
 116 10 90 -2 68 -2 c 3xb8
EndSplineSet
Validated: 1
EndChar

StartChar: t
Encoding: 116 116 17
Width: 152
VWidth: 0
Flags: W
HStem: -2 8<70.9719 88.1909> 128 8<12 40 64 92> 164 20G<40 64>
VStem: 40 24<13.3732 128 136 184> 92 24<7.7332 26>
LayerCount: 2
Fore
SplineSet
40 136 m 1
 40 184 l 1
 64 184 l 1
 64 136 l 1
 92 136 l 1
 92 128 l 1
 64 128 l 1
 64 34 l 6
 64 14 72 6 78 6 c 6
 80 6 l 6
 84 6 92 6 92 26 c 5
 116 26 l 5
 116 -2 96 -2 78 -2 c 4
 62 -2 40 6 40 34 c 6
 40 128 l 1
 12 128 l 1
 12 136 l 1
 40 136 l 1
EndSplineSet
Validated: 1
EndChar

StartChar: r
Encoding: 114 114 18
Width: 152
VWidth: 0
Flags: W
HStem: 0 21G<12 36> 116 20G<12 36> 130 8<58.8394 103.603>
VStem: 12 24<0 110 126 136>
LayerCount: 2
Fore
SplineSet
84 138 m 7xb0
 106 138 140 130 140 106 c 5
 116 106 l 5
 116 110 l 5
 116 110 116 122 104 126 c 4
 94 130 88 130 76 130 c 4xb0
 64 130 52 124 48 122 c 4
 40 118 36 110 36 110 c 5
 36 0 l 1
 12 0 l 1
 12 136 l 1
 36 136 l 1xd0
 36 126 l 5
 36 126 62 138 84 138 c 7xb0
EndSplineSet
Validated: 1
EndChar

StartChar: g
Encoding: 103 103 19
AltUni2: 000261.ffffffff.0
Width: 152
VWidth: 0
Flags: W
HStem: -50 8<53.971 98.029> -2 8<53.971 98.129> 116 20G<116 140> 130 8<53.971 98.1645>
VStem: 12 24<-29.3564 -14 18.6436 117.356> 116 24<-29.3564 4 18.6436 117.356 132 136>
LayerCount: 2
Fore
SplineSet
116 102 m 2xdc
 116 122 96 130 76 130 c 0
 56 130 36 122 36 102 c 2
 36 34 l 6
 36 14 56 6 76 6 c 4
 96 6 116 14 116 34 c 6
 116 102 l 2xdc
76 138 m 0
 90 138 116 132 116 132 c 1
 116 136 l 1
 140 136 l 1xec
 140 86 140 36 140 -14 c 0
 140 -42 104 -50 76 -50 c 0
 48 -50 12 -42 12 -14 c 1
 36 -14 l 1
 36 -34 56 -42 76 -42 c 0
 96 -42 116 -34 116 -14 c 2
 116 4 l 5
 104 0 90 -2 76 -2 c 4
 48 -2 12 6 12 34 c 6
 12 102 l 2
 12 130 48 138 76 138 c 0
EndSplineSet
Validated: 1
EndChar

StartChar: L
Encoding: 76 76 20
Width: 152
VWidth: 0
Flags: W
HStem: 0 8<36 140> 164 20G<12 36>
VStem: 12 24<8 184>
LayerCount: 2
Fore
SplineSet
12 184 m 1
 36 184 l 1
 36 8 l 1
 140 8 l 1
 140 0 l 1
 12 0 l 1
 12 184 l 1
EndSplineSet
Validated: 1
EndChar

StartChar: y
Encoding: 121 121 21
AltUni2: 000443.ffffffff.0
Width: 152
VWidth: 0
Flags: W
HStem: -50 8<38.7863 58.249> 116 20G<12 43.2857 123.786 140>
VStem: 12 24<-40.2668 -22>
LayerCount: 2
Fore
SplineSet
66 -40 m 2
 66 -42 60 -50 48 -50 c 3
 34 -50 12 -50 12 -22 c 1
 36 -22 l 1
 36 -40 40 -42 50 -42 c 3
 56 -42 62 -34 62 -34 c 1
 76 0 l 1
 12 136 l 1
 34 136 l 1
 86 24 l 1
 132 136 l 1
 140 136 l 1
 66 -40 l 2
EndSplineSet
Validated: 1
EndChar

StartChar: m
Encoding: 109 109 22
Width: 152
VWidth: 0
Flags: W
HStem: 0 21G<12 36 64 88 116 140> 116 20G<12 36> 130 8<44.3011 60.4448 95.5411 112.237>
VStem: 12 24<0 124.177 126 136> 64 24<0 122.25> 116 24<0 122.521>
CounterMasks: 1 1c
LayerCount: 2
Fore
SplineSet
104 130 m 3xbc
 94 130 88 120 88 108 c 0
 88 72 88 36 88 0 c 1
 64 0 l 1
 64 110 l 2
 64 116 64 130 52 130 c 0xbc
 42 130 36 116 36 110 c 2
 36 0 l 1
 12 0 l 1
 12 136 l 1
 36 136 l 1xdc
 36 126 l 1
 36 126 44 138 56 138 c 0
 62 138 76 134 84 120 c 1
 86 130 98 138 110 138 c 0
 118 138 140 128 140 104 c 2
 140 0 l 1
 116 0 l 1
 116 110 l 2
 116 116 116 130 104 130 c 3xbc
EndSplineSet
Validated: 1
EndChar

StartChar: x
Encoding: 120 120 23
AltUni2: 000445.ffffffff.0
Width: 152
VWidth: 0
Flags: W
HStem: 0 21G<12 38.129 101.806 140> 116 20G<12 51 111.429 140>
LayerCount: 2
Fore
SplineSet
12 136 m 1
 36 136 l 1
 78 80 l 1
 130 136 l 1
 140 136 l 1
 84 74 l 1
 140 0 l 1
 116 0 l 1
 72 62 l 1
 22 0 l 1
 12 0 l 1
 68 68 l 1
 12 136 l 1
EndSplineSet
Validated: 1
EndChar

StartChar: z
Encoding: 122 122 24
Width: 152
VWidth: 0
Flags: W
HStem: 0 8<42 140> 128 8<12 110>
LayerCount: 2
Fore
SplineSet
110 128 m 1
 12 128 l 1
 12 136 l 1
 140 136 l 1
 42 8 l 1
 140 8 l 1
 140 0 l 1
 12 0 l 1
 110 128 l 1
EndSplineSet
Validated: 1
EndChar

StartChar: f
Encoding: 102 102 26
Width: 152
VWidth: 0
Flags: W
HStem: 0 21G<64 88> 128 8<36 64 88 116> 176 8<94.9719 112.191>
VStem: 64 24<0 128 136 168.627> 116 24<156 174.267>
LayerCount: 2
Fore
SplineSet
64 128 m 1
 36 128 l 1
 36 136 l 1
 64 136 l 1
 64 148 l 2
 64 176 86 184 102 184 c 0
 120 184 140 184 140 156 c 1
 116 156 l 1
 116 174 110 176 104 176 c 2
 102 176 l 2
 96 176 88 168 88 148 c 2
 88 136 l 1
 116 136 l 1
 116 128 l 1
 88 128 l 1
 88 0 l 1
 64 0 l 1
 64 128 l 1
EndSplineSet
Validated: 1
EndChar

StartChar: f_i
Encoding: 64257 64257 27
Width: 304
VWidth: 0
Flags: W
HStem: 0 21G<38 62 190 214> 128 8<12 38 62 190> 176 8<77.8051 178.116>
VStem: 38 24<0 128 136 167.146> 190 24<0 128 156 169.831>
LayerCount: 2
Fore
SplineSet
62 136 m 1
 214 136 l 1
 214 0 l 1
 190 0 l 1
 190 128 l 1
 62 128 l 1
 62 0 l 1
 38 0 l 1
 38 128 l 1
 12 128 l 1
 12 136 l 1
 38 136 l 1
 38 148 l 2
 38 176 52 184 128 184 c 0
 184 184 214 184 214 156 c 1
 190 156 l 1
 190 174 176 176 146 176 c 0
 140 176 134 176 128 176 c 0
 64 176 62 168 62 148 c 2
 62 136 l 1
EndSplineSet
Validated: 1
LCarets2: 1 0
Ligature2: "'rlig' Required Ligatures in Latin lookup 0-1" f i
EndChar

StartChar: f_l
Encoding: 64258 64258 28
Width: 304
VWidth: 0
Flags: W
HStem: 0 8<221.963 248> 128 8<12 40 64 92> 176 8<70.9719 194>
VStem: 40 24<0 128 136 168.627> 194 24<10.834 176>
LayerCount: 2
Fore
SplineSet
78 176 m 2
 72 176 64 168 64 148 c 2
 64 136 l 1
 92 136 l 1
 92 128 l 1
 64 128 l 1
 64 0 l 1
 40 0 l 1
 40 128 l 1
 12 128 l 1
 12 136 l 1
 40 136 l 1
 40 148 l 2
 40 176 62 184 78 184 c 2
 218 184 l 1
 218 24 l 2
 218 14 224 8 230 8 c 2
 248 8 l 1
 248 0 l 1
 218 0 l 2
 202 0 194 8 194 24 c 2
 194 176 l 1
 78 176 l 2
EndSplineSet
Validated: 1
LCarets2: 1 0
Ligature2: "'rlig' Required Ligatures in Latin lookup 0-1" f l
EndChar

StartChar: O
Encoding: 79 79 29
AltUni2: 00039f.ffffffff.0 00041e.ffffffff.0
Width: 152
VWidth: 0
Flags: W
HStem: -2 8<52.504 99.496> 178 8<52.504 99.496>
VStem: 12 24<17.5266 166.473> 116 24<17.5266 166.473>
LayerCount: 2
Fore
SplineSet
76 186 m 0
 104 186 140 180 140 152 c 2
 140 32 l 2
 140 4 104 -2 76 -2 c 0
 48 -2 12 4 12 32 c 2
 12 152 l 2
 12 180 48 186 76 186 c 0
76 178 m 0
 56 178 36 172 36 152 c 2
 36 32 l 2
 36 12 56 6 76 6 c 0
 96 6 116 12 116 32 c 2
 116 152 l 2
 116 172 96 178 76 178 c 0
EndSplineSet
Validated: 1
EndChar

StartChar: V
Encoding: 86 86 30
Width: 152
VWidth: 0
Flags: W
HStem: 0 21G<69.0435 90.087> 164 20G<12 39.1053 125.947 140>
LayerCount: 2
Fore
SplineSet
12 184 m 1
 32 184 l 1
 86 32 l 1
 132 184 l 1
 140 184 l 1
 84 0 l 1
 76 0 l 1
 12 184 l 1
EndSplineSet
Validated: 1
EndChar

StartChar: Y
Encoding: 89 89 31
AltUni2: 0003a5.ffffffff.0
Width: 152
VWidth: 0
Flags: W
HStem: 0 21G<66 90> 164 20G<12 46 119.5 140>
VStem: 66 24<0 94>
LayerCount: 2
Fore
SplineSet
12 184 m 1
 34 184 l 1
 82 104 l 1
 132 184 l 1
 140 184 l 1
 90 104 l 1
 90 0 l 1
 66 0 l 1
 66 94 l 1
 12 184 l 1
EndSplineSet
Validated: 1
EndChar

StartChar: J
Encoding: 74 74 32
AltUni2: 000408.ffffffff.0
Width: 152
VWidth: 0
Flags: W
HStem: -2 8<53.971 98.029> 164 20G<116 140>
VStem: 12 24<18.6436 34> 116 24<18.6436 184>
LayerCount: 2
Fore
SplineSet
116 184 m 1
 140 184 l 1
 140 34 l 2
 140 6 104 -2 76 -2 c 0
 48 -2 12 6 12 34 c 1
 36 34 l 1
 36 14 56 6 76 6 c 0
 96 6 116 14 116 34 c 2
 116 184 l 1
EndSplineSet
Validated: 1
EndChar

StartChar: I
Encoding: 73 73 33
AltUni2: 0005d5.ffffffff.0 000196.ffffffff.0
Width: 152
VWidth: 0
Flags: W
HStem: 0 8<36 66 90 116> 176 8<36 66 90 116>
VStem: 66 24<8 176>
LayerCount: 2
Fore
SplineSet
36 184 m 1
 116 184 l 1
 116 176 l 1
 90 176 l 1
 90 8 l 1
 116 8 l 1
 116 0 l 1
 36 0 l 1
 36 8 l 1
 66 8 l 1
 66 176 l 1
 36 176 l 1
 36 184 l 1
EndSplineSet
Validated: 1
EndChar

StartChar: T
Encoding: 84 84 34
AltUni2: 0003a4.ffffffff.0 000422.ffffffff.0
Width: 152
VWidth: 0
Flags: W
HStem: 0 21G<64 88> 176 8<12 64 88 140>
VStem: 64 24<0 176>
LayerCount: 2
Fore
SplineSet
12 184 m 1
 140 184 l 1
 140 176 l 1
 88 176 l 1
 88 0 l 1
 64 0 l 1
 64 176 l 1
 12 176 l 1
 12 184 l 1
EndSplineSet
Validated: 1
EndChar

StartChar: U
Encoding: 85 85 35
Width: 152
VWidth: 0
Flags: W
HStem: -2 8<53.971 98.029> 164 20G<12 36 116 140>
VStem: 12 24<18.6436 184> 116 24<18.6436 184>
LayerCount: 2
Fore
SplineSet
116 184 m 1
 140 184 l 1
 140 34 l 2
 140 6 104 -2 76 -2 c 0
 48 -2 12 6 12 34 c 2
 12 184 l 1
 36 184 l 1
 36 34 l 2
 36 14 56 6 76 6 c 0
 96 6 116 14 116 34 c 2
 116 184 l 1
EndSplineSet
Validated: 1
EndChar

StartChar: asterisk
Encoding: 42 42 38
Width: 152
VWidth: 0
Flags: W
HStem: 56 80
VStem: 34 84
LayerCount: 2
Fore
SplineSet
76 136 m 1
 86 106 l 1
 118 106 l 1
 92 86 l 1
 102 56 l 1
 76 76 l 1
 50 56 l 1
 60 86 l 1
 34 106 l 1
 66 106 l 1
 76 136 l 1
EndSplineSet
Validated: 1
EndChar

StartChar: hyphen
Encoding: 45 45 39
AltUni2: 0000ad.ffffffff.0 002212.ffffffff.0
Width: 152
VWidth: 0
Flags: W
HStem: 88 8<12 140>
LayerCount: 2
Fore
SplineSet
12 96 m 1
 140 96 l 1
 140 88 l 1
 12 88 l 1
 12 96 l 1
EndSplineSet
Validated: 1
EndChar

StartChar: plus
Encoding: 43 43 40
Width: 152
VWidth: 0
Flags: W
HStem: 88 8<12 64 88 140>
VStem: 64 24<28 88 96 156>
LayerCount: 2
Fore
SplineSet
64 156 m 1
 88 156 l 1
 88 96 l 1
 140 96 l 1
 140 88 l 1
 88 88 l 1
 88 28 l 1
 64 28 l 1
 64 88 l 1
 12 88 l 1
 12 96 l 1
 64 96 l 1
 64 156 l 1
EndSplineSet
Validated: 1
EndChar

StartChar: C
Encoding: 67 67 41
AltUni2: 000421.ffffffff.0 0003f9.ffffffff.0
Width: 152
VWidth: 0
Flags: W
HStem: -2 8<52.504 99.496> 178 8<52.504 99.496>
VStem: 12 24<17.5266 166.473> 116 24<17.5266 32 152 166.473>
LayerCount: 2
Fore
SplineSet
140 32 m 1
 140 4 104 -2 76 -2 c 0
 48 -2 12 4 12 32 c 2
 12 152 l 2
 12 180 48 186 76 186 c 0
 104 186 140 180 140 152 c 1
 116 152 l 1
 116 172 96 178 76 178 c 0
 56 178 36 172 36 152 c 2
 36 32 l 2
 36 12 56 6 76 6 c 0
 96 6 116 12 116 32 c 1
 140 32 l 1
EndSplineSet
Validated: 1
EndChar

StartChar: three
Encoding: 51 51 42
Width: 152
VWidth: 0
Flags: W
HStem: -2 8<52.504 99.496> 92 8<76 99.8108> 178 8<52.504 99.496>
VStem: 12 24<17.5266 32 152 166.473> 116 24<17.5266 80.8926 111.107 166.473>
LayerCount: 2
Fore
SplineSet
108 96 m 1
 126 92 140 84 140 66 c 2
 140 32 l 2
 140 4 104 -2 76 -2 c 0
 48 -2 12 4 12 32 c 1
 36 32 l 1
 36 12 56 6 76 6 c 0
 96 6 116 12 116 32 c 2
 116 66 l 2
 116 86 96 92 76 92 c 1
 76 100 l 1
 96 100 116 106 116 126 c 2
 116 152 l 2
 116 172 96 178 76 178 c 0
 56 178 36 172 36 152 c 1
 12 152 l 1
 12 180 48 186 76 186 c 0
 104 186 140 180 140 152 c 2
 140 126 l 2
 140 108 126 100 108 96 c 1
EndSplineSet
Validated: 1
EndChar

StartChar: six
Encoding: 54 54 43
Width: 152
VWidth: 0
Flags: W
HStem: -2 8<52.504 99.496> 100 8<52.1472 99.496> 178 8<52.504 99.496>
VStem: 12 24<17.5266 88.8926 102 166.473> 116 24<17.5266 88.4734 152 166.473>
LayerCount: 2
Fore
SplineSet
76 108 m 0
 104 108 140 102 140 74 c 2
 140 32 l 2
 140 4 104 -2 76 -2 c 0
 48 -2 12 4 12 32 c 2
 12 152 l 2
 12 180 48 186 76 186 c 0
 104 186 140 180 140 152 c 1
 116 152 l 1
 116 172 96 178 76 178 c 0
 56 178 36 172 36 152 c 2
 36 102 l 1
 48 106 62 108 76 108 c 0
116 32 m 2
 116 74 l 2
 116 94 96 100 76 100 c 0
 56 100 36 94 36 74 c 2
 36 32 l 2
 36 12 56 6 76 6 c 0
 96 6 116 12 116 32 c 2
EndSplineSet
Validated: 1
EndChar

StartChar: H
Encoding: 72 72 44
AltUni2: 000397.ffffffff.0 00041d.ffffffff.0
Width: 152
VWidth: 0
Flags: W
HStem: 0 21G<12 36 116 140> 88 8<36 116> 164 20G<12 36 116 140>
VStem: 12 24<0 88 96 184> 116 24<0 88 96 184>
LayerCount: 2
Fore
SplineSet
12 184 m 1
 36 184 l 1
 36 96 l 1
 116 96 l 1
 116 184 l 1
 140 184 l 1
 140 0 l 1
 116 0 l 1
 116 88 l 5
 36 88 l 5
 36 0 l 1
 12 0 l 1
 12 184 l 1
EndSplineSet
Validated: 1
EndChar

StartChar: A
Encoding: 65 65 45
AltUni2: 000391.ffffffff.0 000410.ffffffff.0
Width: 152
VWidth: 0
Flags: W
HStem: 0 21G<12 25.9259 112.593 140> 54 8<38 98> 164 20G<61.913 82.9565>
LayerCount: 2
Fore
SplineSet
140 0 m 1
 120 0 l 1
 100 54 l 1
 36 54 l 1
 20 0 l 1
 12 0 l 1
 68 184 l 1
 76 184 l 1
 140 0 l 1
98 62 m 1
 66 152 l 1
 38 62 l 1
 98 62 l 1
EndSplineSet
Validated: 1
EndChar

StartChar: D
Encoding: 68 68 46
Width: 152
VWidth: 0
Flags: W
HStem: 0 8<36 99.1812> 176 8<36 99.1812>
VStem: 12 24<8 176> 116 24<19.5266 164.473>
LayerCount: 2
Fore
SplineSet
76 184 m 2
 104 184 140 178 140 150 c 2
 140 34 l 2
 140 6 104 0 76 0 c 2
 12 0 l 1
 12 184 l 1
 76 184 l 2
76 176 m 2
 36 176 l 1
 36 8 l 1
 76 8 l 2
 96 8 116 14 116 34 c 2
 116 150 l 2
 116 170 96 176 76 176 c 2
EndSplineSet
Validated: 1
EndChar

StartChar: F
Encoding: 70 70 47
Width: 152
VWidth: 0
Flags: W
HStem: 0 21G<12 36> 88 8<36 124> 176 8<36 140>
VStem: 12 24<0 88 96 176>
LayerCount: 2
Fore
SplineSet
36 176 m 1
 36 96 l 1
 124 96 l 1
 124 88 l 1
 36 88 l 1
 36 0 l 1
 12 0 l 1
 12 184 l 1
 140 184 l 1
 140 176 l 1
 36 176 l 1
EndSplineSet
Validated: 1
EndChar

StartChar: E
Encoding: 69 69 48
AltUni2: 000395.ffffffff.0 000415.ffffffff.0
Width: 152
VWidth: 0
Flags: W
HStem: 0 8<36 140> 88 8<36 124> 176 8<36 140>
VStem: 12 24<8 88 96 176>
CounterMasks: 1 e0
LayerCount: 2
Fore
SplineSet
36 176 m 1
 36 96 l 1
 124 96 l 1
 124 88 l 1
 36 88 l 1
 36 8 l 1
 140 8 l 1
 140 0 l 1
 12 0 l 1
 12 184 l 1
 140 184 l 1
 140 176 l 1
 36 176 l 1
EndSplineSet
Validated: 1
EndChar

StartChar: eight
Encoding: 56 56 49
AltUni2: 0003e8.ffffffff.0
Width: 152
VWidth: 0
Flags: W
HStem: -2 8<53.971 98.029> 92 8<53.7546 98.2454> 178 8<53.971 98.029>
VStem: 12 24<18.6436 79.3564 112.644 165.356> 116 24<18.6436 79.3564 112.644 165.356>
LayerCount: 2
Fore
SplineSet
76 178 m 4
 56 178 36 170 36 150 c 6
 36 128 l 6
 36 108 56 100 76 100 c 4
 96 100 116 108 116 128 c 6
 116 150 l 6
 116 170 96 178 76 178 c 4
76 186 m 4
 104 186 140 178 140 150 c 6
 140 128 l 6
 140 110 126 100 108 96 c 5
 126 92 140 82 140 64 c 6
 140 34 l 6
 140 6 104 -2 76 -2 c 4
 48 -2 12 6 12 34 c 6
 12 64 l 6
 12 82 26 92 44 96 c 5
 26 100 12 110 12 128 c 6
 12 150 l 6
 12 178 48 186 76 186 c 4
76 92 m 4
 56 92 36 84 36 64 c 6
 36 34 l 6
 36 14 56 6 76 6 c 4
 96 6 116 14 116 34 c 6
 116 64 l 6
 116 84 96 92 76 92 c 4
EndSplineSet
Validated: 1
EndChar

StartChar: nine
Encoding: 57 57 50
Width: 152
VWidth: 0
Flags: W
HStem: -2 8<52.504 99.496> 80 8<52.504 99.8528> 178 8<52.504 99.496>
VStem: 12 24<17.5266 32 99.5266 166.473> 116 24<17.5266 86 99.1074 166.473>
LayerCount: 2
Fore
SplineSet
76 80 m 0
 48 80 12 86 12 114 c 2
 12 152 l 2
 12 180 48 186 76 186 c 0
 104 186 140 180 140 152 c 2
 140 32 l 2
 140 4 104 -2 76 -2 c 0
 48 -2 12 4 12 32 c 1
 36 32 l 1
 36 12 56 6 76 6 c 0
 96 6 116 12 116 32 c 2
 116 86 l 1
 104 82 90 80 76 80 c 0
36 152 m 2
 36 114 l 2
 36 94 56 88 76 88 c 0
 96 88 116 94 116 114 c 2
 116 152 l 2
 116 172 96 178 76 178 c 0
 56 178 36 172 36 152 c 2
EndSplineSet
Validated: 1
EndChar

StartChar: P
Encoding: 80 80 51
AltUni2: 0003a1.ffffffff.0 000420.ffffffff.0
Width: 152
VWidth: 0
Flags: W
HStem: 0 21G<12 36> 84 8<36 97.8125> 176 8<36 97.8125>
VStem: 12 24<0 84 92 176> 116 24<104.644 163.356>
LayerCount: 2
Fore
SplineSet
76 176 m 2
 36 176 l 1
 36 92 l 1
 76 92 l 2
 96 92 116 100 116 120 c 2
 116 148 l 2
 116 168 96 176 76 176 c 2
76 184 m 2
 104 184 140 176 140 148 c 2
 140 120 l 2
 140 92 104 84 76 84 c 2
 36 84 l 1
 36 0 l 1
 12 0 l 1
 12 184 l 1
 76 184 l 2
EndSplineSet
Validated: 1
EndChar

StartChar: B
Encoding: 66 66 52
AltUni2: 000392.ffffffff.0 000412.ffffffff.0
Width: 152
VWidth: 0
Flags: W
HStem: 0 8<36 97.8125> 92 8<36 98.2454> 176 8<36 97.8125>
VStem: 12 24<8 92 100 176> 116 24<20.6436 79.3564 112.644 163.356>
LayerCount: 2
Fore
SplineSet
76 176 m 2
 36 176 l 1
 36 100 l 1
 76 100 l 2
 96 100 116 108 116 128 c 2
 116 148 l 2
 116 168 96 176 76 176 c 2
76 184 m 2
 104 184 140 176 140 148 c 2
 140 128 l 2
 140 110 126 100 108 96 c 1
 126 92 140 82 140 64 c 2
 140 36 l 2
 140 8 104 0 76 0 c 2
 12 0 l 1
 12 184 l 1
 76 184 l 2
76 92 m 2
 36 92 l 1
 36 8 l 1
 76 8 l 2
 96 8 116 16 116 36 c 2
 116 64 l 2
 116 84 96 92 76 92 c 2
EndSplineSet
Validated: 1
EndChar

StartChar: at
Encoding: 64 64 53
Width: 152
VWidth: 0
Flags: W
HStem: 0 8<69.3359 140> 48 8<98.4086 116> 136 8<98.4086 116> 178 8<52.504 96.4721>
VStem: 12 24<31.3687 166.473> 64 24<64.8541 127.146> 116 24<56 136 144 165.44>
CounterMasks: 1 0e
LayerCount: 2
Fore
SplineSet
140 0 m 1
 92 0 l 2
 64 0 12 4 12 50 c 2
 12 152 l 2
 12 180 48 186 76 186 c 0
 104 186 140 180 140 152 c 2
 140 48 l 1
 116 48 l 2
 88 48 64 56 64 84 c 2
 64 108 l 2
 64 136 88 144 116 144 c 1
 116 152 l 2
 116 170 92 178 76 178 c 0
 56 178 36 172 36 152 c 2
 36 50 l 2
 36 18 72 8 92 8 c 2
 140 8 l 1
 140 0 l 1
116 136 m 1
 96 136 88 128 88 108 c 2
 88 84 l 2
 88 64 96 56 116 56 c 1
 116 136 l 1
EndSplineSet
Validated: 1
EndChar

StartChar: Z
Encoding: 90 90 54
AltUni2: 000396.ffffffff.0
Width: 152
VWidth: 0
Flags: W
HStem: 0 8<42 140> 176 8<12 110>
LayerCount: 2
Fore
SplineSet
110 176 m 1
 12 176 l 1
 12 184 l 1
 140 184 l 1
 42 8 l 1
 140 8 l 1
 140 0 l 1
 12 0 l 1
 110 176 l 1
EndSplineSet
Validated: 1
EndChar

StartChar: quotesingle
Encoding: 39 39 55
AltUni2: 002032.ffffffff.0
Width: 152
VWidth: 0
Flags: W
HStem: 136 48<64 88>
VStem: 64 24<136 184>
LayerCount: 2
Fore
SplineSet
64 184 m 1
 88 184 l 1
 88 136 l 1
 64 136 l 1
 64 184 l 1
EndSplineSet
Validated: 1
EndChar

StartChar: period
Encoding: 46 46 57
Width: 152
VWidth: 0
Flags: W
HStem: 0 24<65.292 86.708>
VStem: 64 24<1.29199 22.708>
LayerCount: 2
Fore
SplineSet
64 12 m 0
 64 20 68 24 76 24 c 0
 84 24 88 20 88 12 c 0
 88 4 84 0 76 0 c 0
 68 0 64 4 64 12 c 0
EndSplineSet
Validated: 1
EndChar

StartChar: slash
Encoding: 47 47 60
Width: 152
VWidth: 0
Flags: W
HStem: 0 21G<12 45.5217> 164 20G<106.478 140>
LayerCount: 2
Fore
SplineSet
140 184 m 1
 34 0 l 1
 12 0 l 1
 118 184 l 1
 140 184 l 1
EndSplineSet
Validated: 1
EndChar

StartChar: backslash
Encoding: 92 92 61
Width: 152
VWidth: 0
Flags: W
HStem: 0 21G<106.478 140> 164 20G<12 45.5217>
LayerCount: 2
Fore
SplineSet
12 184 m 1
 34 184 l 1
 140 0 l 1
 118 0 l 1
 12 184 l 1
EndSplineSet
Validated: 1
EndChar

StartChar: k
Encoding: 107 107 62
Width: 152
VWidth: 0
Flags: W
HStem: 0 21G<12 36 97.4286 144> 116 20G<96.7692 140> 164 20G<12 36>
VStem: 12 24<0 70 82 184>
LayerCount: 2
Fore
SplineSet
36 84 m 2
 36 82 36 82 40 82 c 0
 44 82 48 82 50 84 c 6
 126 136 l 1
 140 136 l 1
 50 76 l 1
 144 0 l 1
 122 0 l 1
 36 70 l 1
 36 0 l 1
 12 0 l 1
 12 184 l 1
 36 184 l 1
 36 84 l 2
EndSplineSet
Validated: 1
EndChar

StartChar: bar
Encoding: 124 124 63
Width: 152
VWidth: 0
Flags: W
VStem: 64 24<-8 192>
LayerCount: 2
Fore
SplineSet
64 192 m 1
 88 192 l 1
 88 -8 l 1
 64 -8 l 1
 64 192 l 1
EndSplineSet
Validated: 1
EndChar

StartChar: G
Encoding: 71 71 64
Width: 152
VWidth: 0
Flags: W
HStem: -2 8<52.504 99.496> 84 8<64 116> 178 8<52.504 99.496>
VStem: 12 24<17.5266 166.473> 116 24<17.5266 84 152 166.473>
LayerCount: 2
Fore
SplineSet
140 32 m 2
 140 4 104 -2 76 -2 c 0
 48 -2 12 4 12 32 c 2
 12 152 l 2
 12 180 48 186 76 186 c 0
 104 186 140 180 140 152 c 1
 116 152 l 1
 116 172 96 178 76 178 c 0
 56 178 36 172 36 152 c 2
 36 32 l 2
 36 12 56 6 76 6 c 0
 96 6 116 12 116 32 c 2
 116 84 l 1
 64 84 l 1
 64 92 l 1
 140 92 l 1
 140 32 l 2
EndSplineSet
Validated: 1
EndChar

StartChar: R
Encoding: 82 82 65
Width: 152
VWidth: 0
Flags: W
HStem: 0 21G<12 36 110.762 148> 84 8<36 62 84 97.5881> 176 8<36 97.8125>
VStem: 12 24<0 84 92 176> 116 24<104.644 163.356>
LayerCount: 2
Fore
SplineSet
76 184 m 2
 104 184 140 176 140 148 c 2
 140 120 l 2
 140 94 110 84 84 84 c 1
 148 0 l 1
 126 0 l 1
 62 84 l 1
 36 84 l 1
 36 0 l 1
 12 0 l 1
 12 184 l 1
 76 184 l 2
76 176 m 2
 36 176 l 1
 36 92 l 1
 76 92 l 2
 96 92 116 100 116 120 c 2
 116 148 l 2
 116 168 96 176 76 176 c 2
EndSplineSet
Validated: 1
EndChar

StartChar: parenleft
Encoding: 40 40 66
Width: 152
VWidth: 0
Flags: W
HStem: -10 8<90.4569 104> 186 8<90.4569 104>
VStem: 40 24<23.2292 160.771>
LayerCount: 2
Fore
SplineSet
104 -10 m 1
 76 -10 40 14 40 42 c 2
 40 142 l 2
 40 170 76 194 104 194 c 1
 104 186 l 1
 84 186 64 162 64 142 c 2
 64 42 l 2
 64 22 84 -2 104 -2 c 1
 104 -10 l 1
EndSplineSet
Validated: 1
EndChar

StartChar: one
Encoding: 49 49 68
Width: 152
VWidth: 0
Flags: W
HStem: 0 21G<66 90> 176 8<38 66>
VStem: 66 24<0 176>
LayerCount: 2
Fore
SplineSet
38 184 m 1
 90 184 l 1
 90 0 l 1
 66 0 l 1
 66 176 l 1
 38 176 l 1
 38 184 l 1
EndSplineSet
Validated: 1
EndChar

StartChar: W
Encoding: 87 87 69
Width: 152
VWidth: 0
Flags: W
HStem: 0 21G<45.8696 61.125 99.9375 115.043> 164 20G<12 35.7143 75.1429 89.4286 128.857 140>
VStem: 12 20<175.323 184> 78 8<173.547 184>
LayerCount: 2
Fore
SplineSet
12 184 m 1
 32 184 l 1
 58 44 l 1
 78 184 l 1
 86 184 l 1
 110 44 l 1
 132 184 l 1
 140 184 l 1
 112 0 l 1
 104 0 l 1
 78 128 l 1
 58 0 l 1
 50 0 l 1
 12 184 l 1
EndSplineSet
Validated: 1
EndChar

StartChar: X
Encoding: 88 88 70
AltUni2: 0003a7.ffffffff.0 000425.ffffffff.0
Width: 152
VWidth: 0
Flags: W
HStem: 0 21G<12 33.1707 107.268 142> 164 20G<12 45.2195 119.317 140>
LayerCount: 2
Fore
SplineSet
140 184 m 1
 84 94 l 1
 142 0 l 1
 118 0 l 1
 74 82 l 1
 20 0 l 1
 12 0 l 1
 70 88 l 1
 12 184 l 1
 34 184 l 1
 80 102 l 1
 132 184 l 1
 140 184 l 1
EndSplineSet
Validated: 1
EndChar

StartChar: S
Encoding: 83 83 71
AltUni2: 000405.ffffffff.0
Width: 152
VWidth: 0
Flags: W
HStem: -2 8<56.9781 95.0219> 178 8<56.9781 95.0219>
VStem: 12 24<21.88 38 119.563 162.12> 116 24<21.88 71.6006 146 162.12>
LayerCount: 2
Fore
SplineSet
140 56 m 2
 140 38 l 2
 140 10 104 -2 76 -2 c 0
 48 -2 12 10 12 38 c 1
 36 38 l 1
 36 18 56 6 76 6 c 0
 96 6 116 18 116 38 c 2
 116 56 l 2
 116 76 96 84 76 92 c 0
 50 100 12 112 12 132 c 2
 12 146 l 2
 12 174 48 186 76 186 c 0
 104 186 140 174 140 146 c 1
 116 146 l 1
 116 166 96 178 76 178 c 0
 56 178 36 166 36 146 c 2
 36 132 l 2
 36 116 52 110 76 102 c 0
 102 92 140 84 140 56 c 2
EndSplineSet
Validated: 1
EndChar

StartChar: w
Encoding: 119 119 72
Width: 152
VWidth: 0
Flags: W
HStem: 0 21G<44.4118 62.2553 98.4681 116.118> 116 20G<12 37 74.1538 90.6154 127.769 140>
VStem: 12 20<129.587 136> 78 8<128.235 136>
LayerCount: 2
Fore
SplineSet
12 136 m 1
 32 136 l 1
 58 32 l 1
 78 136 l 1
 86 136 l 1
 110 32 l 1
 132 136 l 1
 140 136 l 1
 112 0 l 1
 104 0 l 1
 78 94 l 1
 58 0 l 1
 50 0 l 1
 12 136 l 1
EndSplineSet
Validated: 1
EndChar

StartChar: bracketleft
Encoding: 91 91 73
Width: 152
VWidth: 0
Flags: W
HStem: 0 8<60 116> 176 8<60 116>
VStem: 36 24<8 176>
LayerCount: 2
Fore
SplineSet
36 0 m 1
 36 184 l 1
 116 184 l 1
 116 176 l 1
 60 176 l 1
 60 8 l 1
 116 8 l 1
 116 0 l 1
 36 0 l 1
EndSplineSet
Validated: 1
EndChar

StartChar: Q
Encoding: 81 81 75
Width: 152
VWidth: 0
Flags: W
HStem: -2 8<52.8188 92> 178 8<52.504 99.496>
VStem: 12 24<17.5266 166.473> 116 24<17.1074 166.473>
LayerCount: 2
Fore
SplineSet
76 178 m 0
 56 178 36 172 36 152 c 2
 36 32 l 2
 36 12 56 6 76 6 c 0
 96 6 116 12 116 32 c 2
 116 152 l 2
 116 172 96 178 76 178 c 0
76 186 m 0
 104 186 140 180 140 152 c 2
 140 32 l 2
 140 16 126 6 110 2 c 1
 136 -24 l 1
 114 -24 l 1
 92 -2 l 1
 76 -2 l 2
 48 -2 12 4 12 32 c 2
 12 152 l 2
 12 180 48 186 76 186 c 0
EndSplineSet
Validated: 1
EndChar

StartChar: N
Encoding: 78 78 76
AltUni2: 00039d.ffffffff.0
Width: 152
VWidth: 0
Flags: W
HStem: 0 21G<12 36 110.831 140> 164 20G<12 41.1688 116 140>
VStem: 12 24<0 154> 116 24<30 184>
LayerCount: 2
Fore
SplineSet
140 184 m 1
 140 0 l 1
 122 0 l 1
 36 154 l 1
 36 0 l 1
 12 0 l 1
 12 184 l 1
 30 184 l 1
 116 30 l 1
 116 184 l 1
 140 184 l 1
EndSplineSet
Validated: 1
EndChar

StartChar: five
Encoding: 53 53 77
Width: 152
VWidth: 0
Flags: W
HStem: -2 8<52.504 99.496> 100 8<42.9808 99.496> 178 6<36 140>
VStem: 12 24<17.5266 32 102 178> 116 24<17.5266 88.4734>
LayerCount: 2
Fore
SplineSet
116 32 m 2
 116 74 l 2
 116 94 96 100 76 100 c 0
 54 100 36 98 28 88 c 1
 12 88 l 1
 12 184 l 1
 140 184 l 1
 140 178 l 1
 36 178 l 1
 36 102 l 1
 48 106 62 108 76 108 c 0
 104 108 140 102 140 74 c 2
 140 32 l 2
 140 4 104 -2 76 -2 c 0
 48 -2 12 4 12 32 c 1
 36 32 l 1
 36 12 56 6 76 6 c 0
 96 6 116 12 116 32 c 2
EndSplineSet
Validated: 1
EndChar

StartChar: seven
Encoding: 55 55 78
Width: 152
VWidth: 0
Flags: W
HStem: 0 21G<56 84.7391> 176 8<12 116>
LayerCount: 2
Fore
SplineSet
140 184 m 1
 78 0 l 1
 56 0 l 5
 116 176 l 1
 12 176 l 1
 12 184 l 1
 140 184 l 1
EndSplineSet
Validated: 1
EndChar

StartChar: M
Encoding: 77 77 79
Width: 152
VWidth: 0
Flags: W
HStem: 0 21G<12 36 68.7273 90.0377 116 140> 164 20G<12 35.5325 126.026 140>
VStem: 12 24<0 110> 116 24<0 106> 132 8<178.001 184>
LayerCount: 2
Fore
SplineSet
140 184 m 1xe8
 140 0 l 1
 116 0 l 1
 116 106 l 1xf0
 84 0 l 1
 76 0 l 1
 36 110 l 1
 36 0 l 1
 12 0 l 1
 12 184 l 1
 28 184 l 1
 86 30 l 1
 132 184 l 1
 140 184 l 1xe8
EndSplineSet
Validated: 1
EndChar

StartChar: uni007F
Encoding: 127 127 80
Width: 152
VWidth: 0
Flags: W
HStem: 0 8<20 132> 176 8<20 132>
VStem: 12 8<8 176> 132 8<8 176>
LayerCount: 2
Fore
SplineSet
20 176 m 1
 20 8 l 1
 132 8 l 1
 132 176 l 1
 20 176 l 1
12 184 m 1
 140 184 l 1
 140 0 l 1
 12 0 l 1
 12 184 l 1
EndSplineSet
Validated: 1
EndChar

StartChar: K
Encoding: 75 75 81
AltUni2: 00039a.ffffffff.0 00041a.ffffffff.0
Width: 152
VWidth: 0
Flags: W
HStem: 0 21G<12 36 103.304 144> 164 20G<12 36 106 140>
VStem: 12 24<0 92 104.001 184>
LayerCount: 2
Fore
SplineSet
36 110 m 2
 36 106 38 104 40 104 c 0
 44 104 50 108 54 112 c 6
 126 184 l 1
 140 184 l 1
 50 98 l 1
 144 0 l 1
 122 0 l 1
 36 92 l 1
 36 0 l 1
 12 0 l 1
 12 184 l 1
 36 184 l 1
 36 110 l 2
EndSplineSet
Validated: 1
EndChar

StartChar: uni00B9
Encoding: 185 185 85
Width: 152
VWidth: 0
Flags: W
HStem: 176 8<38 66>
VStem: 66 24<92 176>
LayerCount: 2
Fore
SplineSet
38 184 m 1
 90 184 l 1
 90 92 l 1
 66 92 l 1
 66 176 l 1
 38 176 l 1
 38 184 l 1
EndSplineSet
Validated: 1
EndChar

StartChar: less
Encoding: 60 60 86
AltUni2: 0002c2.ffffffff.0
Width: 152
VWidth: 0
Flags: W
LayerCount: 2
Fore
SplineSet
142 24 m 1
 6 88 l 1
 6 96 l 1
 142 152 l 1
 142 144 l 1
 30 98 l 1
 142 46 l 1
 142 24 l 1
EndSplineSet
Validated: 1
EndChar

StartChar: greater
Encoding: 62 62 87
AltUni2: 0002c3.ffffffff.0
Width: 152
VWidth: 0
Flags: W
LayerCount: 2
Fore
SplineSet
10 160 m 1
 146 96 l 1
 146 88 l 1
 10 32 l 1
 10 40 l 1
 122 86 l 1
 10 138 l 1
 10 160 l 1
EndSplineSet
Validated: 1
EndChar

StartChar: section
Encoding: 167 167 89
Width: 152
VWidth: 0
Flags: W
HStem: -2 8<52.504 99.496> 54 8<52.8188 116> 122 8<36 99.1812> 178 8<52.504 99.496>
VStem: 12 24<17.5266 32 73.5266 122 130 166.473> 116 24<17.5266 54 62 110.473 152 166.473>
LayerCount: 2
Fore
SplineSet
12 32 m 1
 36 32 l 1
 36 12 56 6 76 6 c 0
 96 6 116 12 116 32 c 2
 116 54 l 1
 76 54 l 2
 48 54 12 60 12 88 c 2
 12 152 l 2
 12 180 48 186 76 186 c 0
 104 186 140 180 140 152 c 1
 116 152 l 1
 116 172 96 178 76 178 c 0
 56 178 36 172 36 152 c 2
 36 130 l 1
 76 130 l 2
 104 130 140 124 140 96 c 2
 140 32 l 2
 140 4 104 -2 76 -2 c 0
 48 -2 12 4 12 32 c 1
36 122 m 1
 36 88 l 2
 36 68 56 62 76 62 c 2
 116 62 l 1
 116 96 l 2
 116 116 96 122 76 122 c 2
 36 122 l 1
EndSplineSet
Validated: 1
EndChar

StartChar: four
Encoding: 52 52 90
Width: 152
VWidth: 0
Flags: W
HStem: 0 21G<116 140> 92 8<36 116> 164 20G<12 36 116 140>
VStem: 12 24<100 184> 116 24<0 92 100 184>
LayerCount: 2
Fore
SplineSet
12 184 m 1
 36 184 l 1
 36 100 l 1
 116 100 l 1
 116 184 l 1
 140 184 l 1
 140 0 l 1
 116 0 l 1
 116 92 l 1
 12 92 l 1
 12 184 l 1
EndSplineSet
Validated: 1
EndChar

StartChar: two
Encoding: 50 50 91
Width: 152
VWidth: 0
Flags: W
HStem: 0 8<36 140> 178 8<56.9781 95.0219>
VStem: 12 24<8 61.6006 146 162.12> 116 24<117.959 162.12>
LayerCount: 2
Fore
SplineSet
36 46 m 2
 36 8 l 1
 140 8 l 1
 140 0 l 1
 12 0 l 1
 12 46 l 2
 12 74 50 82 76 92 c 0
 100 100 116 116 116 132 c 2
 116 146 l 2
 116 166 96 178 76 178 c 0
 56 178 36 166 36 146 c 1
 12 146 l 1
 12 174 48 186 76 186 c 0
 104 186 140 174 140 146 c 2
 140 132 l 2
 140 112 102 90 76 82 c 0
 56 74 36 66 36 46 c 2
EndSplineSet
Validated: 1
EndChar

StartChar: comma
Encoding: 44 44 92
Width: 152
VWidth: 0
Flags: W
HStem: -50 8<50 57.0281>
VStem: 64 24<-34.6268 24>
LayerCount: 2
Fore
SplineSet
88 24 m 1
 88 -14 l 2
 88 -42 66 -50 50 -50 c 1
 50 -42 l 1
 56 -42 64 -34 64 -14 c 2
 64 24 l 1
 88 24 l 1
EndSplineSet
Validated: 1
EndChar

StartChar: asciicircum
Encoding: 94 94 94
Width: 152
VWidth: 0
Flags: W
HStem: 106 78
VStem: 40 78
LayerCount: 2
Fore
SplineSet
118 106 m 1
 96 106 l 1
 70 160 l 1
 48 106 l 1
 40 106 l 1
 72 184 l 1
 80 184 l 1
 118 106 l 1
EndSplineSet
Validated: 1
EndChar

StartChar: grave
Encoding: 96 96 95
Width: 152
VWidth: 0
Flags: W
HStem: 136 48
VStem: 52 48
LayerCount: 2
Fore
SplineSet
52 184 m 1
 76 184 l 1
 100 136 l 1
 76 136 l 1
 52 184 l 1
EndSplineSet
Validated: 1
EndChar

StartChar: braceleft
Encoding: 123 123 96
Width: 152
VWidth: 0
Flags: W
HStem: -2 8<104.819 128> 92 8<24 46.2454> 178 8<104.819 128>
VStem: 64 24<17.5266 79.3564 109.664 166.473>
LayerCount: 2
Fore
SplineSet
24 100 m 1
 44 100 64 104 64 124 c 2
 64 152 l 2
 64 180 100 186 128 186 c 1
 128 178 l 1
 108 178 88 172 88 152 c 2
 88 124 l 2
 88 108 76 100 60 96 c 1
 76 92 88 80 88 64 c 2
 88 32 l 2
 88 12 108 6 128 6 c 1
 128 -2 l 1
 100 -2 64 4 64 32 c 2
 64 64 l 2
 64 84 44 92 24 92 c 1
 24 100 l 1
EndSplineSet
Validated: 1
EndChar

StartChar: braceright
Encoding: 125 125 97
Width: 152
VWidth: 0
Flags: W
HStem: -2 8<24 47.1812> 92 8<105.755 128> 178 8<24 47.1812>
VStem: 64 24<17.5266 79.3564 109.664 166.473>
LayerCount: 2
Fore
SplineSet
128 100 m 1
 128 92 l 1
 108 92 88 84 88 64 c 2
 88 32 l 2
 88 4 52 -2 24 -2 c 1
 24 6 l 1
 44 6 64 12 64 32 c 2
 64 64 l 2
 64 80 76 92 92 96 c 1
 76 100 64 108 64 124 c 2
 64 152 l 2
 64 172 44 178 24 178 c 1
 24 186 l 1
 52 186 88 180 88 152 c 2
 88 124 l 2
 88 104 108 100 128 100 c 1
EndSplineSet
Validated: 1
EndChar

StartChar: asciitilde
Encoding: 126 126 98
Width: 152
VWidth: 0
Flags: W
HStem: 70 6<93.3992 109.331> 108 6<42.6691 58.6008>
VStem: 12 24<84 98.5082> 116 24<85.4918 100>
LayerCount: 2
Fore
SplineSet
90 84 m 2
 92 80 94 76 102 76 c 3
 116 76 116 96 116 100 c 1
 140 100 l 1
 140 90 128 70 102 70 c 0
 80 70 72 74 68 84 c 2
 62 100 l 2
 60 104 58 108 50 108 c 0
 36 108 36 88 36 84 c 1
 12 84 l 1
 12 94 24 114 50 114 c 0
 72 114 80 110 84 100 c 2
 90 84 l 2
EndSplineSet
Validated: 1
EndChar

StartChar: dollar
Encoding: 36 36 100
Width: 152
VWidth: 0
Flags: W
HStem: 0 30<64.8818 87.1182> 22 8<52.1892 64 88 96.4972> 154 8<46.0535 64 88 99.8108>
VStem: 12 24<41.1074 56 121.384 147.643> 64 24<0 22 162 184> 116 24<43.3162 73.6674 128 142.619>
CounterMasks: 1 1c
LayerCount: 2
Fore
SplineSet
64 184 m 1xbc
 88 184 l 1
 88 162 l 1
 114 162 140 152 140 128 c 1
 116 128 l 1
 116 148 96 154 76 154 c 0
 56 154 36 154 36 134 c 0
 36 118 52 112 76 104 c 0
 102 94 140 86 140 58 c 0
 140 34 114 22 88 22 c 1x7c
 88 0 l 1
 64 0 l 1xbc
 64 22 l 5x7c
 38 24 12 32 12 56 c 1
 36 56 l 1
 36 36 56 30 76 30 c 0
 96 30 116 40 116 58 c 0
 116 78 96 86 76 94 c 0
 50 102 12 114 12 134 c 0
 12 158 38 162 64 162 c 1
 64 184 l 1xbc
EndSplineSet
Validated: 1
EndChar

StartChar: numbersign
Encoding: 35 35 102
Width: 152
VWidth: 0
Flags: W
HStem: 0 21G<40 64 88 112> 56 8<12 40 64 88 112 140> 120 8<12 40 64 88 112 140> 164 20G<40 64 88 112>
VStem: 40 24<0 56 64 120 128 184> 88 24<0 56 64 120 128 184>
LayerCount: 2
Fore
SplineSet
88 184 m 1
 112 184 l 1
 112 128 l 1
 140 128 l 1
 140 120 l 1
 112 120 l 1
 112 64 l 1
 140 64 l 1
 140 56 l 1
 112 56 l 1
 112 0 l 1
 88 0 l 1
 88 56 l 1
 64 56 l 1
 64 0 l 1
 40 0 l 1
 40 56 l 1
 12 56 l 1
 12 64 l 1
 40 64 l 1
 40 120 l 1
 12 120 l 1
 12 128 l 1
 40 128 l 1
 40 184 l 1
 64 184 l 1
 64 128 l 1
 88 128 l 1
 88 184 l 1
64 64 m 1
 88 64 l 1
 88 120 l 1
 64 120 l 1
 64 64 l 1
EndSplineSet
Validated: 1
EndChar

StartChar: circumflex
Encoding: 710 710 103
Width: 152
VWidth: 0
Flags: W
HStem: 192 14
VStem: 40 78
LayerCount: 2
Fore
SplineSet
118 192 m 1
 96 192 l 1
 72 202 l 1
 48 192 l 1
 40 192 l 1
 72 206 l 1
 84 206 l 1
 118 192 l 1
EndSplineSet
Validated: 1
EndChar

StartChar: uni02CA
Encoding: 714 714 108
AltUni2: 000384.ffffffff.0 0000b4.ffffffff.0
Width: 152
VWidth: 0
Flags: W
HStem: 192 14
VStem: 72 38
LayerCount: 2
Fore
SplineSet
110 206 m 1
 86 192 l 1
 72 192 l 5
 96 206 l 5
 110 206 l 1
EndSplineSet
Validated: 1
EndChar

StartChar: uni02CB
Encoding: 715 715 109
Width: 152
VWidth: 0
Flags: W
HStem: 192 14
VStem: 52 46
LayerCount: 2
Fore
SplineSet
52 206 m 1
 74 206 l 5
 98 192 l 5
 76 192 l 1
 52 206 l 1
EndSplineSet
Validated: 1
EndChar

StartChar: tilde
Encoding: 732 732 114
Width: 152
VWidth: 0
Flags: W
HStem: 192 6<93.1934 111.274> 208 6<40.7258 60.4196>
VStem: 12 24<192 203.699> 116 24<202.301 214>
LayerCount: 2
Fore
SplineSet
50 214 m 0
 90 214 88 198 102 198 c 3
 116 198 116 210 116 214 c 1
 140 214 l 1
 140 204 128 192 102 192 c 0
 68 192 66 208 50 208 c 0
 36 208 36 196 36 192 c 1
 12 192 l 1
 12 202 24 214 50 214 c 0
EndSplineSet
Validated: 1
EndChar

StartChar: ring
Encoding: 730 730 136
AltUni2: 00030a.ffffffff.0
Width: 0
VWidth: 0
Flags: W
HStem: 192 6<70.6394 81.3606> 210 6<70.6394 81.3606>
VStem: 64 6<198.639 209.361> 82 6<198.639 209.361>
LayerCount: 2
Fore
SplineSet
64 204 m 0
 64 212 68 216 76 216 c 0
 84 216 88 212 88 204 c 0
 88 196 84 192 76 192 c 0
 68 192 64 196 64 204 c 0
70 204 m 0
 70 200 72 198 76 198 c 0
 80 198 82 200 82 204 c 0
 82 208 80 210 76 210 c 0
 72 210 70 208 70 204 c 0
EndSplineSet
Validated: 1
EndChar

StartChar: Ohorn
Encoding: 416 416 247
Width: 152
VWidth: 0
Flags: W
HStem: -2 8<52.504 99.496> 178 8<52.504 99.8252>
VStem: 12 24<17.5266 166.473> 116 24<17.5266 138.896> 136 24<166.336 206>
LayerCount: 2
Fore
SplineSet
160 206 m 1xe8
 160 168 l 2xe8
 160 150 150 140 140 136 c 1
 140 32 l 2xf0
 140 4 104 -2 76 -2 c 0
 48 -2 12 4 12 32 c 2
 12 152 l 2
 12 180 48 186 76 186 c 0
 98 186 126 182 136 166 c 1
 136 206 l 1
 160 206 l 1xe8
76 178 m 0
 56 178 36 172 36 152 c 2
 36 32 l 2
 36 12 56 6 76 6 c 0
 96 6 116 12 116 32 c 2
 116 152 l 2xf0
 116 172 96 178 76 178 c 0
EndSplineSet
Validated: 1
EndChar

StartChar: ohorn
Encoding: 417 417 248
Width: 152
VWidth: 0
Flags: W
HStem: -2 8<53.971 98.029> 130 8<53.971 98.3102> 164 20G<116 140>
VStem: 12 24<18.6436 117.356> 116 24<18.6436 117.356 143.436 184>
LayerCount: 2
Fore
SplineSet
76 130 m 0
 56 130 36 122 36 102 c 2
 36 34 l 2
 36 14 56 6 76 6 c 0
 96 6 116 14 116 34 c 2
 116 102 l 2
 116 122 96 130 76 130 c 0
140 184 m 1
 140 164 l 2
 140 145 130 135 118 131 c 1
 131 126 140 116 140 102 c 2
 140 34 l 2
 140 6 104 -2 76 -2 c 0
 48 -2 12 6 12 34 c 2
 12 102 l 2
 12 130 48 138 76 138 c 0
 84 138 86 136 94 136 c 2
 102 136 l 2
 108 136 116 144 116 164 c 2
 116 184 l 1
 140 184 l 1
EndSplineSet
Validated: 1
EndChar

StartChar: Dcroat
Encoding: 272 272 298
AltUni2: 000189.ffffffff.0 0000d0.ffffffff.0
Width: 152
VWidth: 0
Flags: W
HStem: 0 8<36 99.1812> 92 8<0 12 36 76> 176 8<36 99.1812>
VStem: 12 24<8 92 100 176> 116 24<19.5266 164.473>
LayerCount: 2
Fore
SplineSet
76 176 m 2
 36 176 l 1
 36 100 l 1
 76 100 l 1
 76 92 l 1
 36 92 l 1
 36 8 l 1
 76 8 l 2
 96 8 116 14 116 34 c 2
 116 150 l 2
 116 170 96 176 76 176 c 2
76 184 m 2
 104 184 140 178 140 150 c 2
 140 34 l 2
 140 6 104 0 76 0 c 2
 12 0 l 1
 12 92 l 1
 0 92 l 1
 0 100 l 1
 12 100 l 1
 12 184 l 1
 76 184 l 2
EndSplineSet
Validated: 1
EndChar

StartChar: dcroat
Encoding: 273 273 299
Width: 152
VWidth: 0
Flags: W
HStem: -2 8<53.971 98.129> 0 21G<116 140> 128 8<53.971 98.129> 156 8<76 116 140 152> 164 20G<116 140>
VStem: 12 24<18.6436 115.356> 116 24<0 4 18.6436 115.356 130 156 164 184>
LayerCount: 2
Fore
SplineSet
116 34 m 2xa6
 116 100 l 2
 116 120 96 128 76 128 c 0
 56 128 36 120 36 100 c 2
 36 34 l 2
 36 14 56 6 76 6 c 0
 96 6 116 14 116 34 c 2xa6
76 -2 m 0
 48 -2 12 6 12 34 c 2
 12 100 l 2
 12 128 48 136 76 136 c 0
 90 136 104 134 116 130 c 1
 116 156 l 1
 76 156 l 1
 76 164 l 1
 116 164 l 1xb6
 116 184 l 1
 140 184 l 1x2e
 140 164 l 1
 152 164 l 1
 152 156 l 1
 140 156 l 1
 140 0 l 1
 116 0 l 1x76
 116 4 l 1
 104 0 90 -2 76 -2 c 0
EndSplineSet
Validated: 1
EndChar

StartChar: Oslash
Encoding: 216 216 300
Width: 152
VWidth: 0
Flags: W
HStem: -2 8<52.0117 99.496> 0 21G<0 28> 164 20G<124 152> 178 8<52.504 99.9883>
VStem: 12 24<48 166.473> 116 24<17.5266 136>
LayerCount: 2
Fore
SplineSet
76 178 m 0x1c
 56 178 36 172 36 152 c 2
 36 48 l 1
 114 162 l 1
 108 174 92 178 76 178 c 0x1c
124 176 m 1
 130 184 l 1
 152 184 l 1
 138 164 l 1
 140 160 140 156 140 152 c 2
 140 32 l 2
 140 4 104 -2 76 -2 c 0xac
 60 -2 42 0 28 8 c 1
 22 0 l 1
 0 0 l 1x4c
 14 20 l 1
 12 24 12 28 12 32 c 2
 12 152 l 2
 12 180 48 186 76 186 c 0
 92 186 110 184 124 176 c 1
38 22 m 1
 44 10 60 6 76 6 c 0
 96 6 116 12 116 32 c 2
 116 136 l 5
 38 22 l 1
EndSplineSet
Validated: 1
EndChar

StartChar: ordmasculine
Encoding: 186 186 301
Width: 152
VWidth: 0
Flags: W
HStem: 90 8<64.8082 87.1918> 178 8<64.8082 87.1918>
VStem: 36 24<102.305 173.695> 92 24<102.305 173.695>
LayerCount: 2
Fore
SplineSet
76 186 m 4
 104 186 116 178 116 150 c 6
 116 126 l 6
 116 98 104 90 76 90 c 4
 48 90 36 98 36 126 c 6
 36 150 l 6
 36 178 48 186 76 186 c 4
76 178 m 4
 62 178 60 170 60 150 c 6
 60 126 l 6
 60 106 62 98 76 98 c 4
 90 98 92 106 92 126 c 6
 92 150 l 6
 92 170 90 178 76 178 c 4
EndSplineSet
Validated: 1
EndChar

StartChar: degree
Encoding: 176 176 302
Width: 152
VWidth: 0
Flags: W
HStem: 116 8<69.7066 82.2934> 176 8<69.7066 82.2934>
VStem: 44 24<124.42 175.58> 84 24<124.42 175.58>
LayerCount: 2
Fore
SplineSet
84 150 m 0
 84 170 84 176 76 176 c 0
 68 176 68 170 68 150 c 0
 68 130 68 124 76 124 c 4
 84 124 84 130 84 150 c 0
108 150 m 0
 108 122 104 116 76 116 c 0
 48 116 44 122 44 150 c 0
 44 178 48 184 76 184 c 0
 104 184 108 178 108 150 c 0
EndSplineSet
Validated: 1
EndChar

StartChar: ordfeminine
Encoding: 170 170 303
Width: 152
VWidth: 0
Flags: W
HStem: 90 8<60.8094 90.6333> 178 8<61.7859 90.1351>
VStem: 36 24<98.618 123.413 160 176.962> 92 24<92 96 98.6499 136 144 176.901>
LayerCount: 2
Fore
SplineSet
92 136 m 1
 72 128 l 2
 68 126 60 120 60 114 c 2
 60 106 l 2
 60 98 65 98 76 98 c 0
 90 98 92 98 92 114 c 2
 92 136 l 1
36 160 m 1
 36 186 48 186 76 186 c 0
 104 186 116 186 116 158 c 2
 116 92 l 1
 92 92 l 1
 92 96 l 1
 90 92 86 90 76 90 c 0
 55 90 36 90 36 101 c 2
 36 114 l 2
 36 122 44 126 48 128 c 2
 92 144 l 1
 92 158 l 2
 92 178 90 178 76 178 c 0
 62 178 60 178 60 160 c 1
 36 160 l 1
EndSplineSet
Validated: 1
EndChar

StartChar: cent
Encoding: 162 162 304
Width: 152
VWidth: 0
Flags: W
HStem: 22 8<52.1892 64 88 99.8108> 154 30<64.8818 87.1182> 154 8<52.1892 64 88 99.8108>
VStem: 12 24<41.3806 142.893> 64 24<0 22 162 184> 116 24<41.3806 56 128 142.619>
CounterMasks: 1 1c
LayerCount: 2
Fore
SplineSet
64 184 m 1xdc
 88 184 l 1xdc
 88 162 l 1xbc
 114 162 140 152 140 128 c 1
 116 128 l 1
 116 148 96 154 76 154 c 0xdc
 56 154 36 148 36 128 c 2
 36 56 l 2
 36 36 56 30 76 30 c 0
 96 30 116 36 116 56 c 1
 140 56 l 1
 140 32 114 22 88 22 c 1
 88 0 l 1
 64 0 l 1
 64 22 l 1
 38 22 12 32 12 56 c 2
 12 128 l 2
 12 152 38 160 64 162 c 5xbc
 64 184 l 1xdc
EndSplineSet
Validated: 1
EndChar

StartChar: Thorn
Encoding: 222 222 306
AltUni2: 0003f7.ffffffff.0
Width: 152
VWidth: 0
Flags: W
HStem: 0 21G<12 36> 44 8<36 97.8125> 136 8<36 97.8125> 164 20G<12 36>
VStem: 12 24<0 44 52 136 144 184> 116 24<64.6436 123.356>
LayerCount: 2
Fore
SplineSet
76 144 m 2
 104 144 140 136 140 108 c 2
 140 80 l 2
 140 52 104 44 76 44 c 2
 36 44 l 1
 36 0 l 1
 12 0 l 1
 12 184 l 1
 36 184 l 1
 36 144 l 1
 76 144 l 2
76 136 m 2
 36 136 l 1
 36 52 l 1
 76 52 l 2
 96 52 116 60 116 80 c 2
 116 108 l 2
 116 128 96 136 76 136 c 2
EndSplineSet
Validated: 1
EndChar

StartChar: longs
Encoding: 383 383 307
Width: 152
VWidth: 0
Flags: W
HStem: 0 21G<64 88> 176 8<94.9719 112.191>
VStem: 64 24<0 168.627> 116 24<156 174.267>
LayerCount: 2
Fore
SplineSet
64 0 m 1
 64 148 l 2
 64 176 86 184 102 184 c 0
 120 184 140 184 140 156 c 1
 116 156 l 1
 116 174 110 176 104 176 c 2
 102 176 l 2
 96 176 88 168 88 148 c 2
 88 0 l 1
 64 0 l 1
EndSplineSet
Validated: 1
EndChar

StartChar: paragraph
Encoding: 182 182 308
Width: 152
VWidth: 0
Flags: W
HStem: 0 21G<76 100 116 140> 84 8<54.1875 76 100 116> 176 8<54.1875 76 100 116>
VStem: 12 24<104.644 163.356> 76 24<0 84 92 176> 116 24<0 84 92 176>
LayerCount: 2
Fore
SplineSet
76 92 m 1
 76 176 l 1
 56 176 36 168 36 148 c 2
 36 120 l 2
 36 100 56 92 76 92 c 1
76 84 m 1
 48 84 12 92 12 120 c 2
 12 148 l 2
 12 176 48 184 76 184 c 2
 140 184 l 1
 140 0 l 1
 116 0 l 1
 116 84 l 1
 100 84 l 1
 100 0 l 1
 76 0 l 1
 76 84 l 1
100 176 m 1
 100 92 l 1
 116 92 l 1
 116 176 l 1
 100 176 l 1
EndSplineSet
Validated: 1
EndChar

StartChar: mu
Encoding: 181 181 309
AltUni2: 0003bc.ffffffff.0
Width: 152
VWidth: 0
Flags: W
HStem: 0 8<58.8394 103.603> 116 20G<12 36 116 140>
VStem: 12 24<-48 12 28 136> 116 24<28 136>
LayerCount: 2
Fore
SplineSet
84 0 m 3
 62 0 36 12 36 12 c 1
 36 -48 l 1
 12 -48 l 1
 12 136 l 1
 36 136 l 1
 36 28 l 1
 36 28 40 20 48 16 c 0
 52 14 64 8 76 8 c 0
 88 8 94 8 104 12 c 0
 116 16 116 28 116 28 c 1
 116 136 l 1
 140 136 l 1
 140 32 l 2
 140 8 106 0 84 0 c 3
EndSplineSet
Validated: 1
EndChar

StartChar: beta
Encoding: 946 946 310
Width: 152
VWidth: 0
Flags: W
HStem: 0 8<64 99.1812> 92 8<64 99.8108> 178 8<52.504 99.496>
VStem: 12 24<-50 166.473> 116 24<19.5266 80.8926 111.107 166.473>
LayerCount: 2
Fore
SplineSet
36 152 m 2
 36 -50 l 1
 12 -50 l 1
 12 152 l 2
 12 180 48 186 76 186 c 0
 104 186 140 180 140 152 c 2
 140 126 l 2
 140 108 126 100 108 96 c 1
 126 92 140 84 140 66 c 2
 140 34 l 2
 140 6 104 0 76 0 c 2
 64 0 l 1
 64 8 l 1
 76 8 l 2
 96 8 116 14 116 34 c 2
 116 66 l 2
 116 86 96 92 76 92 c 2
 64 92 l 1
 64 100 l 1
 76 100 l 2
 96 100 116 106 116 126 c 2
 116 152 l 2
 116 172 96 178 76 178 c 0
 56 178 36 172 36 152 c 2
EndSplineSet
Validated: 1
EndChar

StartChar: Gamma
Encoding: 915 915 312
AltUni2: 000413.ffffffff.0
Width: 152
VWidth: 0
Flags: W
HStem: 0 21G<12 36> 176 8<36 140>
VStem: 12 24<0 176>
LayerCount: 2
Fore
SplineSet
12 184 m 1
 140 184 l 1
 140 176 l 1
 36 176 l 1
 36 0 l 1
 12 0 l 1
 12 184 l 1
EndSplineSet
Validated: 1
EndChar

StartChar: uni0394
Encoding: 916 916 313
Width: 152
VWidth: 0
Flags: W
HStem: 0 8<22 118> 164 20G<61.913 82.9565>
LayerCount: 2
Fore
SplineSet
118 8 m 1
 66 152 l 1
 22 8 l 1
 118 8 l 1
140 0 m 1
 12 0 l 1
 68 184 l 1
 76 184 l 1
 140 0 l 1
EndSplineSet
Validated: 1
EndChar

StartChar: Pi
Encoding: 928 928 314
AltUni2: 00041f.ffffffff.0
Width: 152
VWidth: 0
Flags: W
HStem: 0 21G<12 36 116 140> 176 8<36 116>
VStem: 12 24<0 176> 116 24<0 176>
LayerCount: 2
Fore
SplineSet
12 184 m 1
 140 184 l 1
 140 0 l 1
 116 0 l 1
 116 176 l 1
 36 176 l 1
 36 0 l 1
 12 0 l 1
 12 184 l 1
EndSplineSet
Validated: 1
EndChar

StartChar: yen
Encoding: 165 165 320
Width: 152
VWidth: 0
Flags: W
HStem: 0 21G<66 90> 80 8<12 66 90 140> 96 8<12 60 90 140> 164 20G<12 46 119.5 140>
VStem: 66 24<0 80 88 96>
LayerCount: 2
Fore
SplineSet
12 184 m 1
 34 184 l 1
 82 104 l 1
 132 184 l 1
 140 184 l 1
 90 104 l 1
 140 104 l 1
 140 96 l 1
 90 96 l 1
 90 88 l 1
 140 88 l 1
 140 80 l 1
 90 80 l 1
 90 0 l 1
 66 0 l 1
 66 80 l 1
 12 80 l 1
 12 88 l 1
 66 88 l 1
 66 96 l 1
 12 96 l 1
 12 104 l 1
 60 104 l 1
 12 184 l 1
EndSplineSet
Validated: 1
EndChar

StartChar: sterling
Encoding: 163 163 322
Width: 152
VWidth: 0
Flags: W
HStem: 0 6<36 140> 92 6<0 12 36 64> 178 8<52.504 99.496>
VStem: 12 24<6 92 98 166.473> 116 24<152 166.473>
LayerCount: 2
Fore
SplineSet
140 6 m 1
 140 0 l 1
 12 0 l 1
 12 92 l 1
 0 92 l 1
 0 98 l 1
 12 98 l 1
 12 152 l 2
 12 180 48 186 76 186 c 0
 104 186 140 180 140 152 c 1
 116 152 l 1
 116 172 96 178 76 178 c 0
 56 178 36 172 36 152 c 2
 36 98 l 1
 64 98 l 1
 64 92 l 1
 36 92 l 1
 36 6 l 1
 140 6 l 1
EndSplineSet
Validated: 1
EndChar

StartChar: brokenbar
Encoding: 166 166 323
Width: 256
VWidth: 0
Flags: W
VStem: 64 24<-8 92 100 192>
LayerCount: 2
Fore
SplineSet
64 92 m 1
 88 92 l 1
 88 -8 l 1
 64 -8 l 1
 64 92 l 1
64 192 m 1
 88 192 l 1
 88 100 l 1
 64 100 l 1
 64 192 l 1
EndSplineSet
Validated: 1
EndChar

StartChar: AE
Encoding: 198 198 325
Width: 152
VWidth: 0
Flags: W
HStem: 0 8<96 140> 88 8<50 76 96 132> 176 8<96 140>
VStem: 76 20<8 88 96 174>
CounterMasks: 1 e0
LayerCount: 2
Fore
SplineSet
96 176 m 1
 96 96 l 1
 132 96 l 1
 132 88 l 1
 96 88 l 1
 96 8 l 1
 140 8 l 1
 140 0 l 1
 76 0 l 1
 76 88 l 1
 48 88 l 1
 20 0 l 1
 12 0 l 1
 72 184 l 1
 140 184 l 1
 140 176 l 1
 96 176 l 1
76 174 m 1
 50 96 l 1
 76 96 l 1
 76 174 l 1
EndSplineSet
Validated: 1
EndChar

StartChar: ampersand
Encoding: 38 38 326
Width: 152
VWidth: 0
Flags: W
HStem: 0 8<43.5999 76.8737 109.339 140> 92 8<43.1715 76.8285 109.339 140> 178 8<43.5999 80.6787>
VStem: 12 24<15.3732 84.0293 109.817 170.627> 84 24<158 175.603> 84 18<13.2999 86.7001>
LayerCount: 2
Fore
SplineSet
36 64 m 2xf4
 36 36 l 2
 36 16 40 8 60 8 c 0
 80 8 84 16 84 36 c 2
 84 64 l 2
 84 84 80 92 60 92 c 0
 40 92 36 84 36 64 c 2xf4
12 64 m 2
 12 84 22 92 38 96 c 1
 22 100 12 112 12 128 c 2
 12 150 l 2
 12 178 32 186 60 186 c 0
 88 186 108 186 108 158 c 1
 84 158 l 1xf8
 84 178 80 178 60 178 c 0
 40 178 36 170 36 150 c 2
 36 128 l 2
 36 108 40 100 60 100 c 0
 76 100 88 98 96 92 c 1
 104 98 116 100 132 100 c 2
 140 100 l 1
 140 92 l 1
 126 92 l 2
 106 92 102 84 102 64 c 2
 102 36 l 2
 102 16 106 8 126 8 c 2
 140 8 l 1
 140 0 l 1
 132 0 l 2
 116 0 104 2 96 8 c 1
 88 2 76 0 60 0 c 0
 32 0 12 8 12 36 c 2
 12 64 l 2
EndSplineSet
Validated: 1
EndChar

StartChar: thorn
Encoding: 254 254 328
Width: 152
VWidth: 0
Flags: W
HStem: 0 8<36 97.8125> 128 8<36 97.8125> 164 20G<12 36>
VStem: 12 24<-48 0 8 128 136 184> 116 24<20.6436 115.356>
LayerCount: 2
Fore
SplineSet
76 136 m 2
 104 136 140 128 140 100 c 2
 140 36 l 2
 140 8 104 0 76 0 c 2
 36 0 l 1
 36 -48 l 1
 12 -48 l 1
 12 184 l 1
 36 184 l 1
 36 136 l 1
 76 136 l 2
76 128 m 2
 36 128 l 1
 36 8 l 1
 76 8 l 2
 96 8 116 16 116 36 c 2
 116 100 l 2
 116 120 96 128 76 128 c 2
EndSplineSet
Validated: 1
EndChar

StartChar: oslash
Encoding: 248 248 330
Width: 152
VWidth: 0
Flags: W
HStem: -2 8<56.7807 98.029> 0 21G<0 30> 116 20G<122 152> 130 8<53.971 98.7758>
VStem: 12 24<38 117.356> 116 24<18.6436 98>
LayerCount: 2
Fore
SplineSet
76 130 m 0x1c
 56 130 36 122 36 102 c 2
 36 38 l 1
 112 118 l 1
 104 126 90 130 76 130 c 0x1c
116 98 m 1
 42 20 l 1
 50 12 62 6 76 6 c 0x8c
 96 6 116 14 116 34 c 2
 116 98 l 1
30 8 m 1
 22 0 l 1
 0 0 l 1
 16 18 l 1
 12 22 12 28 12 34 c 2
 12 102 l 2
 12 130 48 138 76 138 c 0x5c
 92 138 110 136 122 128 c 1
 130 136 l 1
 152 136 l 1x2c
 136 120 l 1
 140 116 140 108 140 102 c 2
 140 34 l 2
 140 6 104 -2 76 -2 c 0
 60 -2 42 0 30 8 c 1
EndSplineSet
Validated: 1
EndChar

StartChar: uni00B3
Encoding: 179 179 331
Width: 152
VWidth: 0
Flags: W
HStem: 90 8<62.9263 88.0719> 136 8<76 86.8502> 178 8<62.9263 88.0719>
VStem: 36 24<99.654 116 160 176.346> 92 24<100.718 131.046 147.9 175.282>
LayerCount: 2
Fore
SplineSet
87 140 m 1
 98 138 116 136 116 116 c 0
 116 90 90 90 76 90 c 0
 62 90 36 90 36 116 c 1
 60 116 l 1
 60 98 66 98 76 98 c 0
 82 98 92 98 92 116 c 0
 92 136 82 136 76 136 c 1
 76 144 l 1
 82 144 92 144 92 160 c 0
 92 178 82 178 76 178 c 0
 66 178 60 178 60 160 c 1
 36 160 l 1
 36 186 62 186 76 186 c 0
 90 186 116 186 116 160 c 0
 116 144 98 142 87 140 c 1
EndSplineSet
Validated: 1
EndChar

StartChar: OE
Encoding: 338 338 332
Width: 152
VWidth: 0
Flags: W
HStem: 0 8<52.8188 76 96 140> 88 8<96 132> 176 8<52.8188 76 96 140>
VStem: 12 24<19.5266 164.473> 76 20<8 88 96 176>
CounterMasks: 1 e0
LayerCount: 2
Fore
SplineSet
76 8 m 1
 76 176 l 1
 56 176 36 170 36 150 c 2
 36 34 l 2
 36 14 56 8 76 8 c 1
76 184 m 2
 140 184 l 1
 140 176 l 1
 96 176 l 1
 96 96 l 1
 132 96 l 1
 132 88 l 1
 96 88 l 1
 96 8 l 1
 140 8 l 1
 140 0 l 1
 76 0 l 2
 48 0 12 6 12 34 c 2
 12 150 l 2
 12 178 48 184 76 184 c 2
EndSplineSet
Validated: 1
EndChar

StartChar: Phi
Encoding: 934 934 333
AltUni2: 000424.ffffffff.0
Width: 152
VWidth: 0
Flags: W
HStem: 0 21G<64 88> 22 8<50.7258 64 88 100.983> 154 8<50.7258 64 88 101.274> 164 20G<64 88>
VStem: 12 24<41.2695 142.73> 64 24<0 22.4702 30 154 161.53 184> 116 24<41.7259 142.73>
CounterMasks: 1 0e
LayerCount: 2
Fore
SplineSet
64 184 m 1
 88 184 l 1
 88 162 l 1
 114 160 140 150 140 126 c 2
 140 58 l 2
 140 34 114 24 88 22 c 1
 88 0 l 1
 64 0 l 1
 64 22 l 1
 38 24 12 34 12 58 c 2
 12 126 l 2
 12 150 38 160 64 162 c 1
 64 184 l 1
64 154 m 1
 48 152 36 144 36 128 c 2
 36 56 l 2
 36 40 48 32 64 30 c 1
 64 154 l 1
88 30 m 1
 104 32 116 42 116 58 c 2
 116 128 l 2
 116 144 104 152 88 154 c 1
 88 30 l 1
EndSplineSet
Validated: 1
EndChar

StartChar: fraction
Encoding: 8260 8260 334
Width: 152
VWidth: 0
Flags: W
HStem: 0 21G<0 36.1304> 164 20G<115.87 152>
LayerCount: 2
Fore
SplineSet
152 184 m 1
 22 0 l 5
 0 0 l 5
 130 184 l 1
 152 184 l 1
EndSplineSet
Validated: 1
EndChar

StartChar: uni00B2
Encoding: 178 178 335
Width: 104
VWidth: 0
Flags: W
HStem: 92 8<60 116> 132 8<63.6855 87.4975> 178 8<63.6767 88.0719>
VStem: 36 24<100 129.542 160 175.703> 92 24<142.715 175.282>
LayerCount: 2
Fore
SplineSet
76 140 m 2
 82 140 92 140 92 160 c 0
 92 178 82 178 76 178 c 0
 66 178 60 176 60 160 c 1
 36 160 l 1
 36 186 62 186 76 186 c 0
 90 186 116 186 116 160 c 0
 116 142 103 132 85 132 c 2
 76 132 l 2
 70 132 60 132 60 116 c 2
 60 100 l 1
 116 100 l 1
 116 92 l 1
 36 92 l 1
 36 116 l 2
 36 134 49 140 67 140 c 2
 76 140 l 2
EndSplineSet
Validated: 1
EndChar

StartChar: logicalnot
Encoding: 172 172 339
Width: 152
VWidth: 0
Flags: W
HStem: 88 8<12 116>
VStem: 116 24<48 88>
LayerCount: 2
Fore
SplineSet
12 96 m 1
 140 96 l 1
 140 80 140 64 140 48 c 1
 116 48 l 1
 116 88 l 1
 12 88 l 1
 12 96 l 1
EndSplineSet
Validated: 1
EndChar

StartChar: aleph
Encoding: 8501 8501 340
AltUni2: 0005d0.ffffffff.0
Width: 152
VWidth: 0
Flags: W
HStem: 0 21G<12 33.0435 116 140> 92 8<39.9631 72 85 112.037> 164 20G<12 36 118.905 140>
VStem: 12 24<102.834 184> 116 24<0 89.166>
LayerCount: 2
Fore
SplineSet
72 92 m 5
 60 92 48 92 36 92 c 4
 20 92 12 100 12 116 c 6
 12 184 l 5
 36 184 l 5
 36 116 l 6
 36 106 42 100 48 100 c 4
 57.6666666667 100 67.3333333333 100 77 100 c 5
 132 184 l 1
 140 184 l 1
 85 100 l 1
 95.3333333333 100 105.666666667 100 116 100 c 0
 132 100 140 92 140 76 c 2
 140 0 l 1
 116 0 l 1
 116 76 l 2
 116 86 110 92 104 92 c 0
 96 92 88 92 80 92 c 1
 20 0 l 1
 12 0 l 1
 72 92 l 5
EndSplineSet
Validated: 524289
EndChar

StartChar: epsilon
Encoding: 949 949 341
AltUni2: 00025b.ffffffff.0
Width: 152
VWidth: 0
Flags: W
HStem: -2 8<52.504 99.496> 66 8<52.1892 100> 130 8<52.504 99.496>
VStem: 12 24<17.5266 54.8926 85.1074 118.473> 116 24<17.5266 32 104 118.473>
LayerCount: 2
Fore
SplineSet
44 70 m 1
 26 74 12 82 12 100 c 2
 12 104 l 2
 12 132 48 138 76 138 c 0
 104 138 140 132 140 104 c 1
 116 104 l 1
 116 124 96 130 76 130 c 0
 56 130 36 124 36 104 c 2
 36 100 l 2
 36 80 56 74 76 74 c 2
 100 74 l 5
 100 66 l 5
 76 66 l 2
 56 66 36 60 36 40 c 2
 36 32 l 2
 36 12 56 6 76 6 c 0
 96 6 116 12 116 32 c 1
 140 32 l 1
 140 4 104 -2 76 -2 c 0
 48 -2 12 4 12 32 c 2
 12 40 l 2
 12 58 26 66 44 70 c 1
EndSplineSet
Validated: 1
EndChar

StartChar: Psi
Encoding: 936 936 342
Width: 152
VWidth: 0
Flags: W
HStem: 0 21G<64 88> 84 8<50.7258 64 88 100.983> 164 20G<12 36 64 88 116 140>
VStem: 12 24<103.27 184> 64 24<0 84.4702 92 184> 116 24<103.726 184>
CounterMasks: 1 1c
LayerCount: 2
Fore
SplineSet
88 92 m 1
 104 94 116 104 116 120 c 2
 116 184 l 1
 140 184 l 1
 140 120 l 2
 140 96 114 86 88 84 c 1
 88 0 l 1
 64 0 l 1
 64 84 l 1
 38 86 12 96 12 120 c 2
 12 184 l 1
 36 184 l 1
 36 118 l 2
 36 102 48 94 64 92 c 1
 64 184 l 1
 88 184 l 1
 88 92 l 1
EndSplineSet
Validated: 1
EndChar

StartChar: uni03A9
Encoding: 937 937 343
Width: 152
VWidth: 0
Flags: W
HStem: 0 11<44.6402 54 98 107.36> 0 8<12 30 122 140> 178 8<52.504 99.496>
VStem: 12 24<19.2219 166.473> 116 24<19.2219 166.473>
LayerCount: 2
Fore
SplineSet
76 186 m 0x78
 104 186 140 180 140 152 c 2
 140 34 l 2
 140 21 133 13 122 8 c 1
 140 8 l 1
 140 0 l 1x78
 98 0 l 1
 98 11 l 1
 108 15 116 22 116 34 c 2
 116 152 l 2
 116 172 96 178 76 178 c 0
 56 178 36 172 36 152 c 2
 36 34 l 2
 36 22 44 15 54 11 c 1
 54 0 l 1xb8
 12 0 l 1
 12 8 l 1
 30 8 l 1
 19 13 12 21 12 34 c 2
 12 152 l 2
 12 180 48 186 76 186 c 0x78
EndSplineSet
Validated: 1
EndChar

StartChar: Sigma
Encoding: 931 931 344
AltUni2: 0001a9.ffffffff.0
Width: 152
VWidth: 0
Flags: W
HStem: 0 9<26 140> 176 8<39 140>
LayerCount: 2
Fore
SplineSet
39 176 m 1
 85 99 l 1
 26 9 l 1
 140 9 l 1
 140 0 l 1
 12 0 l 1
 70 88 l 1
 12 184 l 1
 140 184 l 1
 140 176 l 1
 39 176 l 1
EndSplineSet
Validated: 1
EndChar

StartChar: pi
Encoding: 960 960 346
AltUni2: 00043f.ffffffff.0
Width: 152
VWidth: 0
HStem: 0 21G<28 52 100 124> 128 8<12 28 52 100 124 140>
VStem: 28 24<0 128> 100 24<0 128>
LayerCount: 2
Fore
SplineSet
12 136 m 1
 140 136 l 1
 140 128 l 1
 124 128 l 1
 124 0 l 1
 100 0 l 1
 100 128 l 1
 52 128 l 1
 52 0 l 1
 28 0 l 1
 28 128 l 1
 12 128 l 1
 12 136 l 1
EndSplineSet
Validated: 1
EndChar

StartChar: rho
Encoding: 961 961 347
Width: 152
VWidth: 0
Flags: W
HStem: -2 8<53.7249 98.029> 130 8<53.971 98.029>
VStem: 12 24<-50 4 18.6436 117.356> 116 24<18.6436 117.356>
LayerCount: 2
Fore
SplineSet
76 130 m 0
 56 130 36 122 36 102 c 2
 36 34 l 2
 36 14 56 6 76 6 c 0
 96 6 116 14 116 34 c 2
 116 102 l 2
 116 122 96 130 76 130 c 0
76 138 m 0
 104 138 140 130 140 102 c 2
 140 34 l 2
 140 6 104 -2 76 -2 c 0
 63 -2 48 -1 36 4 c 1
 36 -50 l 1
 12 -50 l 1
 12 102 l 2
 12 130 48 138 76 138 c 0
EndSplineSet
Validated: 1
EndChar

StartChar: xi
Encoding: 958 958 348
Width: 152
VWidth: 0
Flags: W
HStem: -50 8<102 111.448> 0 8<52.8188 111.448> 100 8<52.1892 116> 176 8<52.8188 116>
VStem: 12 24<19.5266 88.8926 119.107 164.473> 116 24<-39.5941 -2.40588>
LayerCount: 2
Fore
SplineSet
140 -21 m 0
 140 -49 118 -50 102 -50 c 1
 102 -42 l 1
 108 -42 116 -41 116 -21 c 0
 116 -1 108 0 102 0 c 2
 76 0 l 2
 48 0 12 6 12 34 c 2
 12 74 l 2
 12 92 26 100 44 104 c 1
 26 108 12 116 12 134 c 2
 12 150 l 2
 12 178 48 184 76 184 c 2
 116 184 l 5
 116 176 l 5
 76 176 l 2
 56 176 36 170 36 150 c 2
 36 134 l 2
 36 114 56 108 76 108 c 2
 116 108 l 5
 116 100 l 5
 76 100 l 2
 56 100 36 94 36 74 c 2
 36 34 l 2
 36 14 56 8 76 8 c 2
 102 8 l 2
 118 8 140 7 140 -21 c 0
EndSplineSet
Validated: 1
EndChar

StartChar: eta
Encoding: 951 951 349
AltUni2: 000220.ffffffff.0
Width: 152
VWidth: 0
Flags: W
HStem: 0 21G<12 36> 116 20G<12 36> 130 8<58.8394 103.603>
VStem: 12 24<0 110 126 136> 116 24<-48 110>
LayerCount: 2
Fore
SplineSet
84 138 m 3xb8
 106 138 140 130 140 106 c 2
 140 -48 l 1
 116 -48 l 1
 116 110 l 1
 116 110 116 122 104 126 c 0
 94 130 88 130 76 130 c 0xb8
 64 130 52 124 48 122 c 0
 40 118 36 110 36 110 c 1
 36 0 l 1
 12 0 l 1
 12 136 l 1
 36 136 l 1xd8
 36 126 l 1
 36 126 62 138 84 138 c 3xb8
EndSplineSet
Validated: 1
EndChar

StartChar: phi1
Encoding: 981 981 351
Width: 152
VWidth: 0
Flags: W
HStem: -1 8<50.7258 64 88 100.983> 129 8<50.7258 64 88 101.274> 164 20G<64 88>
VStem: 12 24<18.2695 117.73> 64 24<-48 -0.529785 7 129 136.53 184> 116 24<18.7259 117.73>
CounterMasks: 1 1c
LayerCount: 2
Fore
SplineSet
64 184 m 1
 88 184 l 1
 88 137 l 1
 114 135 140 125 140 101 c 2
 140 35 l 2
 140 11 114 1 88 -1 c 1
 88 -48 l 5
 64 -48 l 5
 64 -1 l 1
 38 1 12 11 12 35 c 2
 12 101 l 2
 12 125 38 135 64 137 c 1
 64 184 l 1
64 129 m 1
 48 127 36 119 36 103 c 2
 36 33 l 2
 36 17 48 9 64 7 c 1
 64 129 l 1
88 7 m 1
 104 9 116 19 116 35 c 2
 116 103 l 2
 116 119 104 127 88 129 c 1
 88 7 l 1
EndSplineSet
Validated: 1
EndChar

StartChar: phi
Encoding: 966 966 352
Width: 152
VWidth: 0
Flags: W
HStem: -1 8<50.7258 64 88 101.274> 128 8<88 101.274>
VStem: 12 24<18.2695 136> 64 24<-48 -0.529785 7 128> 116 24<18.2695 117.207>
CounterMasks: 1 38
LayerCount: 2
Fore
SplineSet
12 136 m 1
 36 136 l 1
 36 33 l 2
 36 17 48 9 64 7 c 1
 64 128 l 2
 64 136 78 136 88 136 c 0
 114 136 140 124 140 100 c 2
 140 35 l 2
 140 11 114 1 88 -1 c 1
 88 -48 l 1
 64 -48 l 1
 64 -1 l 1
 38 1 12 11 12 35 c 2
 12 136 l 1
88 7 m 1
 104 9 116 17 116 33 c 2
 116 102 l 2
 116 118 104 126 88 128 c 1
 88 7 l 1
EndSplineSet
Validated: 1
EndChar

StartChar: afii10026
Encoding: 1048 1048 353
Width: 152
VWidth: 0
Flags: W
HStem: 0 21G<12 42.3704 116 140> 164 20G<12 36 109.63 140>
VStem: 12 24<22 184> 116 24<0 162>
LayerCount: 2
Fore
SplineSet
12 184 m 1
 36 184 l 1
 36 22 l 1
 120 184 l 1
 140 184 l 1
 140 0 l 1
 116 0 l 1
 116 54 116 108 116 162 c 1
 32 0 l 1
 12 0 l 1
 12 184 l 1
EndSplineSet
Validated: 1
EndChar

StartChar: afii10018
Encoding: 1041 1041 355
AltUni2: 000182.ffffffff.0
Width: 152
VWidth: 0
Flags: W
HStem: 0 8<36 97.8125> 92 8<36 97.8125> 176 8<36 140>
VStem: 12 24<8 92 100 176> 116 24<20.6436 79.3564>
LayerCount: 2
Fore
SplineSet
76 8 m 2
 96 8 116 16 116 36 c 2
 116 64 l 2
 116 84 96 92 76 92 c 2
 36 92 l 1
 36 8 l 1
 76 8 l 2
76 0 m 2
 12 0 l 1
 12 184 l 1
 140 184 l 1
 140 176 l 1
 36 176 l 1
 36 100 l 1
 76 100 l 2
 104 100 140 92 140 64 c 2
 140 36 l 2
 140 8 104 0 76 0 c 2
EndSplineSet
Validated: 1
EndChar

StartChar: afii10029
Encoding: 1051 1051 356
Width: 152
VWidth: 0
Flags: W
HStem: -2 8<12 30.7708> 0 21G<116 140> 176 8<64 116>
VStem: 40 24<13.2397 176> 116 24<0 176>
LayerCount: 2
Fore
SplineSet
12 -2 m 1xb8
 12 6 l 1xb8
 32 6 40 12 40 32 c 2
 40 184 l 1
 140 184 l 1
 140 0 l 1
 116 0 l 1x78
 116 176 l 5
 64 176 l 5
 64 32 l 2
 64 4 40 -2 12 -2 c 1xb8
EndSplineSet
Validated: 1
EndChar

StartChar: afii10021
Encoding: 1044 1044 357
Width: 152
VWidth: 0
Flags: W
HStem: -0 8<54 116> 176 8<64 116>
VStem: 12 28<-48 0> 40 24<12.9307 176> 116 24<-48 0 8 176>
LayerCount: 2
Fore
SplineSet
12 -48 m 1xe8
 12 6 l 1xe8
 32 6 40 12 40 32 c 2
 40 184 l 1xd8
 140 184 l 1
 140 -48 l 1
 116 -48 l 1
 116 -0 l 1
 40 -0 l 1
 40 -48 l 1
 12 -48 l 1xe8
116 8 m 1
 116 176 l 1
 64 176 l 1
 64 32 l 2xd8
 64 21 60 13 54 8 c 1
 116 8 l 1
EndSplineSet
Validated: 1
EndChar

StartChar: afii10025
Encoding: 1047 1047 358
Width: 152
VWidth: 0
Flags: W
HStem: -2 8<52.504 99.496> 92 8<36 99.8108> 178 8<52.504 99.496>
VStem: 12 24<17.5266 32 152 166.473> 116 24<17.5266 80.8926 111.107 166.473>
LayerCount: 2
Fore
SplineSet
108 96 m 1
 126 92 140 84 140 66 c 2
 140 32 l 2
 140 4 104 -2 76 -2 c 0
 48 -2 12 4 12 32 c 1
 36 32 l 1
 36 12 56 6 76 6 c 0
 96 6 116 12 116 32 c 2
 116 66 l 2
 116 86 96 92 76 92 c 2
 36 92 l 1
 36 100 l 1
 76 100 l 2
 96 100 116 106 116 126 c 2
 116 152 l 2
 116 172 96 178 76 178 c 0
 56 178 36 172 36 152 c 1
 12 152 l 1
 12 180 48 186 76 186 c 0
 104 186 140 180 140 152 c 2
 140 126 l 2
 140 108 126 100 108 96 c 1
EndSplineSet
Validated: 1
EndChar

StartChar: afii10049
Encoding: 1071 1071 359
Width: 152
VWidth: 0
Flags: W
HStem: 0 21G<12 49.2381 116 140> 84 8<54.5339 76 98 116> 176 8<54.1875 116>
VStem: 12 24<104.644 163.356> 116 24<0 84 92 176>
LayerCount: 2
Fore
SplineSet
76 184 m 2
 140 184 l 1
 140 0 l 1
 116 0 l 1
 116 84 l 1
 98 84 l 1
 34 0 l 1
 12 0 l 1
 76 84 l 1
 42 84 12 94 12 120 c 2
 12 148 l 2
 12 176 48 184 76 184 c 2
76 176 m 2
 56 176 36 168 36 148 c 2
 36 120 l 2
 36 100 56 92 76 92 c 2
 116 92 l 1
 116 176 l 1
 76 176 l 2
EndSplineSet
Validated: 1
EndChar

StartChar: afii10073
Encoding: 1079 1079 360
Width: 152
VWidth: 0
Flags: W
HStem: -2 8<52.504 99.496> 66 8<36 99.8108> 130 8<52.504 99.496>
VStem: 12 24<17.5266 32 104 118.473> 116 24<17.5266 54.8926 85.1074 118.473>
LayerCount: 2
Fore
SplineSet
108 70 m 5
 126 66 140 58 140 40 c 6
 140 32 l 6
 140 4 104 -2 76 -2 c 4
 48 -2 12 4 12 32 c 5
 36 32 l 5
 36 12 56 6 76 6 c 4
 96 6 116 12 116 32 c 6
 116 40 l 6
 116 60 96 66 76 66 c 6
 36 66 l 5
 36 74 l 5
 76 74 l 6
 96 74 116 80 116 100 c 6
 116 104 l 6
 116 124 96 130 76 130 c 4
 56 130 36 124 36 104 c 5
 12 104 l 5
 12 132 48 138 76 138 c 4
 104 138 140 132 140 104 c 6
 140 100 l 6
 140 82 126 74 108 70 c 5
EndSplineSet
Validated: 1
EndChar

StartChar: afii10041
Encoding: 1063 1063 361
Width: 152
VWidth: 0
Flags: W
HStem: 0 21G<116 140> 48 8<48.3969 93.1606> 164 20G<12 36 116 140>
VStem: 12 24<76 184> 116 24<0 60 76 184>
LayerCount: 2
Fore
SplineSet
68 48 m 3
 46 48 12 56 12 80 c 2
 12 184 l 1
 36 184 l 1
 36 76 l 1
 36 76 36 64 48 60 c 0
 58 56 64 56 76 56 c 0
 88 56 100 62 104 64 c 0
 112 68 116 76 116 76 c 1
 116 184 l 1
 140 184 l 1
 140 0 l 1
 116 0 l 1
 116 60 l 1
 116 60 90 48 68 48 c 3
EndSplineSet
Validated: 1
EndChar

StartChar: afii10047
Encoding: 1069 1069 362
Width: 152
VWidth: 0
Flags: W
HStem: -2 8<52.504 99.496> 92 8<44 116> 178 8<52.504 99.496>
VStem: 12 24<17.5266 32 152 166.473> 116 24<17.5266 92 100 166.473>
LayerCount: 2
Fore
SplineSet
12 32 m 1
 36 32 l 1
 36 12 56 6 76 6 c 0
 96 6 116 12 116 32 c 2
 116 92 l 1
 44 92 l 1
 44 100 l 1
 116 100 l 1
 116 152 l 2
 116 172 96 178 76 178 c 0
 56 178 36 172 36 152 c 1
 12 152 l 1
 12 180 48 186 76 186 c 0
 104 186 140 180 140 152 c 2
 140 32 l 2
 140 4 104 -2 76 -2 c 0
 48 -2 12 4 12 32 c 1
EndSplineSet
Validated: 1
EndChar

StartChar: afii10046
Encoding: 1068 1068 363
Width: 152
VWidth: 0
Flags: W
HStem: 0 8<36 97.8125> 92 8<36 97.8125> 164 20G<12 36>
VStem: 12 24<8 92 100 184> 116 24<20.6436 79.3564>
LayerCount: 2
Fore
SplineSet
76 8 m 2
 96 8 116 16 116 36 c 2
 116 64 l 2
 116 84 96 92 76 92 c 2
 36 92 l 1
 36 8 l 1
 76 8 l 2
76 0 m 2
 12 0 l 1
 12 184 l 1
 36 184 l 1
 36 100 l 1
 76 100 l 2
 104 100 140 92 140 64 c 2
 140 36 l 2
 140 8 104 0 76 0 c 2
EndSplineSet
Validated: 1
EndChar

StartChar: theta
Encoding: 952 952 364
AltUni2: 0003f4.ffffffff.0 0004e8.ffffffff.0
Width: 152
VWidth: 0
Flags: W
HStem: -2 8<52.504 99.496> 88 8<36 116> 178 8<52.504 99.496>
VStem: 12 24<17.5266 88 96 166.473> 116 24<17.5266 88 96 166.473>
CounterMasks: 1 e0
LayerCount: 2
Fore
SplineSet
76 178 m 0
 56 178 36 172 36 152 c 2
 36 96 l 1
 116 96 l 9
 116 152 l 2
 116 172 96 178 76 178 c 0
76 186 m 0
 104 186 140 180 140 152 c 2
 140 32 l 2
 140 4 104 -2 76 -2 c 0
 48 -2 12 4 12 32 c 2
 12 152 l 2
 12 180 48 186 76 186 c 0
116 88 m 1
 36 88 l 1
 36 32 l 2
 36 12 56 6 76 6 c 0
 96 6 116 12 116 32 c 2
 116 88 l 1
EndSplineSet
Validated: 1
EndChar

StartChar: psi
Encoding: 968 968 365
Width: 152
VWidth: 0
Flags: W
HStem: 0 8<50.7258 64 88 100.983> 116 20G<12 36 64 88 116 140>
VStem: 12 24<19.2695 136> 64 24<-48 0.470215 8 136> 116 24<19.7259 136>
CounterMasks: 1 38
LayerCount: 2
Fore
SplineSet
88 8 m 1
 104 10 116 20 116 36 c 2
 116 136 l 1
 140 136 l 1
 140 36 l 2
 140 12 114 2 88 0 c 1
 88 -48 l 1
 64 -48 l 1
 64 0 l 5
 38 2 12 12 12 36 c 6
 12 136 l 1
 36 136 l 1
 36 34 l 6
 36 18 48 10 64 8 c 5
 64 136 l 1
 88 136 l 1
 88 8 l 1
EndSplineSet
Validated: 1
EndChar

StartChar: uni03FD
Encoding: 1021 1021 366
AltUni2: 000186.ffffffff.0 0005db.ffffffff.0
Width: 152
VWidth: 0
Flags: W
HStem: -2 8<52.504 99.496> 178 8<52.504 99.496>
VStem: 12 24<17.5266 32 152 166.473> 116 24<17.5266 166.473>
LayerCount: 2
Fore
SplineSet
12 32 m 1
 36 32 l 1
 36 12 56 6 76 6 c 0
 96 6 116 12 116 32 c 2
 116 152 l 2
 116 172 96 178 76 178 c 0
 56 178 36 172 36 152 c 1
 12 152 l 1
 12 180 48 186 76 186 c 0
 104 186 140 180 140 152 c 2
 140 32 l 2
 140 4 104 -2 76 -2 c 0
 48 -2 12 4 12 32 c 1
EndSplineSet
Validated: 1
EndChar

StartChar: iota
Encoding: 953 953 367
AltUni2: 000269.ffffffff.0
Width: 152
VWidth: 0
Flags: W
HStem: 0 8<93.9631 120> 128 8<38 66>
VStem: 66 24<10.834 128>
LayerCount: 2
Fore
SplineSet
66 24 m 6
 66 128 l 5
 38 128 l 5
 38 136 l 5
 90 136 l 5
 90 24 l 6
 90 14 96 8 102 8 c 6
 120 8 l 5
 120 0 l 5
 90 0 l 6
 74 0 66 8 66 24 c 6
EndSplineSet
Validated: 1
EndChar

StartChar: tau
Encoding: 964 964 368
Width: 152
VWidth: 0
Flags: W
HStem: 0 8<91.9631 118> 128 8<12 64 88 140>
VStem: 64 24<10.834 128>
LayerCount: 2
Fore
SplineSet
64 24 m 2
 64 128 l 1
 12 128 l 1
 12 136 l 1
 140 136 l 1
 140 128 l 1
 88 128 l 1
 88 24 l 2
 88 14 94 8 100 8 c 2
 118 8 l 5
 118 0 l 5
 88 0 l 2
 72 0 64 8 64 24 c 2
EndSplineSet
Validated: 1
EndChar

StartChar: sigma
Encoding: 963 963 369
Width: 152
VWidth: 0
Flags: W
HStem: -2 8<49.1071 78.8929> 128 8<49.3508 79.1366 98 140>
VStem: 12 24<16.9013 117.099> 92 24<16.9013 117.099>
LayerCount: 2
Fore
SplineSet
64 -2 m 0
 46 -2 12 6 12 34 c 2
 12 100 l 2
 12 128 46 136 64 136 c 2
 140 136 l 1
 140 128 l 1
 98 128 l 1
 108 122 116 114 116 100 c 2
 116 34 l 2
 116 6 82 -2 64 -2 c 0
64 6 m 0
 77 6 92 14 92 34 c 2
 92 100 l 2
 92 120 77 128 64 128 c 0
 51 128 36 120 36 100 c 2
 36 34 l 2
 36 14 51 6 64 6 c 0
EndSplineSet
Validated: 1
EndChar

StartChar: afii10024
Encoding: 1046 1046 371
Width: 152
VWidth: 0
Flags: W
HStem: 0 21G<12 36 64 88 116 140> 164 20G<12 36 64 88 116 140>
VStem: 12 24<0 83.2667 116.733 184> 64 24<0 95 105 184> 116 24<0 83.2667 116.733 184>
CounterMasks: 1 38
LayerCount: 2
Fore
SplineSet
116 184 m 1
 140 184 l 1
 140 132 l 6
 140 114 126 105 109 100 c 5
 126 95 140 86 140 68 c 6
 140 0 l 1
 116 0 l 1
 116 68 l 6
 116 84 103 92 88 95 c 5
 88 0 l 1
 64 0 l 1
 64 95 l 5
 49 92 36 84 36 68 c 6
 36 0 l 1
 12 0 l 1
 12 68 l 6
 12 86 26 95 43 100 c 5
 26 105 12 114 12 132 c 6
 12 184 l 1
 36 184 l 1
 36 132 l 6
 36 116 49 108 64 105 c 5
 64 184 l 1
 88 184 l 1
 88 105 l 5
 103 108 116 116 116 132 c 6
 116 184 l 1
EndSplineSet
Validated: 1
EndChar

StartChar: multiply
Encoding: 215 215 372
Width: 152
VWidth: 0
HStem: 116 20G<32 64 88 120>
LayerCount: 2
Fore
SplineSet
32 124 m 1
 44 136 l 1
 76 104 l 1
 108 136 l 1
 120 124 l 1
 88 92 l 1
 120 60 l 1
 108 48 l 1
 76 80 l 1
 44 48 l 1
 32 60 l 1
 64 92 l 1
 32 124 l 1
EndSplineSet
Validated: 1
EndChar

StartChar: Ccedilla
Encoding: 199 199 373
Width: 152
VWidth: 0
HStem: -48 8<64 82.9293> -14 20<64.8818 83.4609> -2 8<52.2454 64 88 99.7546> 178 8<52.504 99.496>
VStem: 12 24<17.1074 166.473> 84 24<-39.7534 -14.2144> 116 24<17.1074 32 152 166.473>
LayerCount: 2
Fore
SplineSet
64 -2 m 1xbe
 39 0 12 8 12 32 c 2
 12 152 l 2
 12 180 48 186 76 186 c 0
 104 186 140 180 140 152 c 1
 116 152 l 1
 116 172 96 178 76 178 c 0
 56 178 36 172 36 152 c 2
 36 32 l 2
 36 12 56 6 76 6 c 0xde
 96 6 116 12 116 32 c 1
 140 32 l 1
 140 8 113 0 88 -2 c 1xbe
 88 -8 l 1
 108 -10 108 -17 108 -27 c 0
 108 -39 108 -48 76 -48 c 2
 64 -48 l 1
 64 -40 l 1
 76 -40 l 2
 84 -40 84 -35 84 -27 c 0
 84 -19 84 -14 76 -14 c 2
 64 -14 l 1xde
 64 -2 l 1xbe
EndSplineSet
Validated: 1
EndChar

StartChar: cedilla
Encoding: 184 184 374
Width: 152
VWidth: 0
Flags: W
HStem: -48 8<64 82.9293> -14 22<64 83.6287>
VStem: 64 24<-8.69269 8> 84 24<-39.7534 -14.2144>
LayerCount: 2
Fore
SplineSet
64 8 m 1xe0
 88 8 l 1
 88 -8 l 1xe0
 108 -10 108 -17 108 -27 c 0xd0
 108 -39 108 -48 76 -48 c 2
 64 -48 l 1
 64 -40 l 1xe0
 76 -40 l 2
 84 -40 84 -35 84 -27 c 0xd0
 84 -19 84 -14 76 -14 c 2
 64 -14 l 1
 64 8 l 1xe0
EndSplineSet
Validated: 1
EndChar

StartChar: ccedilla
Encoding: 231 231 375
Width: 152
VWidth: 0
HStem: -48 10<64 82.9293> -14 20<64.8818 83.4609> -2 8<52.2454 64 88 99.7546> 130 8<52.504 99.496>
VStem: 12 24<17.1074 118.473> 84 24<-37.8019 -14.2358> 116 24<17.1074 32 104 118.473>
LayerCount: 2
Fore
SplineSet
64 -2 m 1xbe
 39 0 12 8 12 32 c 2
 12 104 l 2
 12 132 48 138 76 138 c 0
 104 138 140 132 140 104 c 1
 116 104 l 1
 116 124 96 130 76 130 c 0
 56 130 36 124 36 104 c 2
 36 32 l 2
 36 12 56 6 76 6 c 0xde
 96 6 116 12 116 32 c 1
 140 32 l 1
 140 8 113 0 88 -2 c 1xbe
 88 -8 l 1
 108 -10 108 -16 108 -26 c 0
 108 -38 108 -48 76 -48 c 2
 64 -48 l 1
 64 -38 l 1
 76 -38 l 2
 84 -38 84 -34 84 -26 c 0
 84 -18 84 -14 76 -14 c 2
 64 -14 l 1xde
 64 -2 l 1xbe
EndSplineSet
Validated: 1
EndChar

StartChar: uni018B
Encoding: 395 395 376
AltUni2: 00018c.ffffffff.0
Width: 152
VWidth: 0
Flags: W
HStem: 0 8<54.1875 116> 92 8<54.1875 116> 176 8<12 116>
VStem: 12 24<20.6436 79.3564> 116 24<8 92 100 176>
LayerCount: 2
Fore
SplineSet
76 8 m 2
 116 8 l 1
 116 92 l 1
 76 92 l 2
 56 92 36 84 36 64 c 2
 36 36 l 2
 36 16 56 8 76 8 c 2
76 0 m 2
 48 0 12 8 12 36 c 2
 12 64 l 2
 12 92 48 100 76 100 c 2
 116 100 l 1
 116 176 l 1
 12 176 l 1
 12 184 l 1
 140 184 l 1
 140 0 l 1
 76 0 l 2
EndSplineSet
Validated: 1
EndChar

StartChar: kgreenlandic
Encoding: 312 312 377
AltUni2: 00043a.ffffffff.0 0003ba.ffffffff.0
Width: 152
VWidth: 0
Flags: W
HStem: 0 21G<12 36 97.4286 144> 116 20G<12 36 96.7692 140>
VStem: 12 24<0 70 82 136>
LayerCount: 2
Fore
SplineSet
36 84 m 2
 36 82 36 82 40 82 c 0
 44 82 48 82 50 84 c 2
 126 136 l 1
 140 136 l 1
 50 76 l 1
 144 0 l 1
 122 0 l 1
 36 70 l 1
 36 0 l 1
 12 0 l 1
 12 136 l 5
 36 136 l 5
 36 84 l 2
EndSplineSet
Validated: 1
EndChar

StartChar: afii10077
Encoding: 1083 1083 378
Width: 152
VWidth: 0
Flags: W
HStem: -2 8<12 30.7708> 0 21G<116 140> 128 8<64 116>
VStem: 40 24<13.2397 128> 116 24<0 128>
LayerCount: 2
Fore
SplineSet
12 -2 m 1xb8
 12 6 l 1xb8
 32 6 40 12 40 32 c 2
 40 136 l 1
 140 136 l 1
 140 0 l 1
 116 0 l 1x78
 116 128 l 1
 64 128 l 1
 64 32 l 2
 64 4 40 -2 12 -2 c 1xb8
EndSplineSet
Validated: 1
EndChar

StartChar: afii10069
Encoding: 1076 1076 379
Width: 152
VWidth: 0
Flags: W
HStem: -0 8<54 116> 128 8<64 116>
VStem: 12 28<-48 0> 40 24<12.9307 128> 116 24<-48 0 8 128>
LayerCount: 2
Fore
SplineSet
12 -48 m 1xe8
 12 6 l 1xe8
 32 6 40 12 40 32 c 2
 40 136 l 1xd8
 140 136 l 1
 140 -48 l 1
 116 -48 l 1
 116 -0 l 1
 40 -0 l 1
 40 -48 l 1
 12 -48 l 1xe8
116 8 m 1
 116 128 l 1
 64 128 l 1
 64 32 l 2xd8
 64 21 60 13 54 8 c 1
 116 8 l 1
EndSplineSet
Validated: 1
EndChar

StartChar: gamma
Encoding: 947 947 380
AltUni2: 0004af.ffffffff.0 000263.ffffffff.0
Width: 152
VWidth: 0
Flags: W
HStem: 116 20G<12 41.8689 123.803 140>
VStem: 66 24<-48 0>
LayerCount: 2
Fore
SplineSet
12 136 m 1
 34 136 l 1
 82 14 l 1
 132 136 l 1
 140 136 l 1
 90 14 l 1
 90 -48 l 1
 66 -48 l 1
 66 0 l 1
 12 136 l 1
EndSplineSet
Validated: 1
EndChar

StartChar: alpha
Encoding: 945 945 381
AltUni2: 000251.ffffffff.0
Width: 152
VWidth: 0
Flags: W
HStem: -2 8<49.1071 79.2075 126.218 140> 130 8<49.1071 79.2075 126.218 140>
VStem: 12 24<16.9013 119.099> 92 24<16.3516 119.648>
LayerCount: 2
Fore
SplineSet
64 130 m 0
 51 130 36 122 36 102 c 2
 36 34 l 2
 36 14 51 6 64 6 c 0
 77 6 92 14 92 34 c 2
 92 102 l 2
 92 122 77 130 64 130 c 0
103 126 m 1
 113 135 129 138 140 138 c 1
 140 130 l 1
 127 130 116 122 116 102 c 2
 116 34 l 2
 116 14 127 6 140 6 c 1
 140 -2 l 1
 129 -2 113 1 103 10 c 1
 91 1 75 -2 64 -2 c 0
 46 -2 12 6 12 34 c 2
 12 102 l 2
 12 130 46 138 64 138 c 0
 75 138 91 135 103 126 c 1
EndSplineSet
Validated: 1
EndChar

StartChar: ae
Encoding: 230 230 382
Width: 152
VWidth: 0
Flags: W
HStem: -1 8<40.2771 59.8215 91.0299 113.081> 65 8<36 64 88 116> 133 8<39.642 60.4197 92.3078 111.594>
VStem: 12 24<15.0366 64.8944 107 126.539> 64 24<9.50708 64 73 130.302> 116 24<12.4608 32 72.1056 124.101>
CounterMasks: 1 1c
LayerCount: 2
Fore
SplineSet
140 32 m 1
 140 4 116 -2 102 -2 c 0
 94 -2 83 0 75 7 c 1
 67 1 57 -1 50 -1 c 0
 36 -1 12 7 12 35 c 2
 12 63 l 2
 12 69 23 73 36 73 c 2
 64 73 l 1
 64 107 l 6
 64 127 62 133 50 133 c 4
 38 133 36 127 36 107 c 5
 12 107 l 5
 12 135 36 141 50 141 c 4
 58 141 69 139 77 132 c 5
 85 138 95 141 102 141 c 4
 116 141 140 132 140 104 c 6
 140 74 l 2
 140 68 129 64 116 64 c 2
 88 64 l 1
 88 32 l 2
 88 12 90 6 102 6 c 0
 114 6 116 12 116 32 c 1
 140 32 l 1
64 35 m 2
 64 65 l 1
 36 65 l 1
 36 35 l 2
 36 15 38 7 50 7 c 0
 62 7 64 15 64 35 c 2
88 104 m 6
 88 72 l 1
 116 72 l 1
 116 104 l 6
 116 124 114 133 102 133 c 4
 90 133 88 124 88 104 c 6
EndSplineSet
Validated: 1
EndChar

StartChar: oe
Encoding: 339 339 383
Width: 152
VWidth: 0
Flags: W
HStem: -2 8<40.2771 59.8215 90.7144 113.174> 72 8<88 116> 130 8<40.2771 59.7973 91.1377 112.55>
VStem: 12 24<14.0366 121.963> 64 24<8.46582 72 80 127.534> 116 24<12.4608 32 80 121.963>
CounterMasks: 1 1c
LayerCount: 2
Fore
SplineSet
140 32 m 1
 140 4 116 -2 102 -2 c 0
 94 -2 83 0 75 6 c 1
 67 0 57 -2 50 -2 c 0
 36 -2 12 6 12 34 c 2
 12 102 l 2
 12 130 36 138 50 138 c 0
 58 138 68 136 76 129 c 1
 84 136 94 138 102 138 c 0
 116 138 140 130 140 102 c 0
 140 92 140 82 140 72 c 1
 88 72 l 1
 88 32 l 2
 88 12 88 6 102 6 c 0
 116 6 116 12 116 32 c 1
 140 32 l 1
50 130 m 0
 38 130 36 122 36 102 c 2
 36 34 l 2
 36 14 38 6 50 6 c 0
 62 6 64 14 64 34 c 2
 64 102 l 2
 64 122 62 130 50 130 c 0
88 80 m 1
 116 80 l 1
 116 102 l 2
 116 122 116 130 102 130 c 0
 88 130 88 122 88 102 c 2
 88 80 l 1
EndSplineSet
Validated: 1
EndChar

StartChar: currency
Encoding: 164 164 385
Width: 152
VWidth: 0
Flags: W
HStem: 44 8<64.4577 87.5423> 132 8<64.4577 87.5423>
VStem: 36 24<65.1882 118.812> 92 24<65.1882 118.812>
LayerCount: 2
Fore
SplineSet
76 132 m 0
 62 132 60 124 60 104 c 2
 60 80 l 2
 60 60 62 52 76 52 c 0
 90 52 92 60 92 80 c 2
 92 104 l 2
 92 124 90 132 76 132 c 0
105 133 m 1
 128 156 l 1
 132 152 136 148 140 144 c 1
 115 119 l 1
 116 115 116 110 116 104 c 2
 116 80 l 2
 116 74 116 69 115 65 c 1
 140 40 l 1
 136 36 132 32 128 28 c 1
 105 51 l 1
 98 46 89 44 76 44 c 0
 63 44 54 46 47 51 c 1
 24 28 l 1
 20 32 16 36 12 40 c 1
 37 65 l 1
 36 69 36 74 36 80 c 2
 36 104 l 2
 36 110 36 115 37 119 c 1
 12 144 l 1
 16 148 20 152 24 156 c 1
 47 133 l 1
 54 138 63 140 76 140 c 0
 89 140 98 138 105 133 c 1
EndSplineSet
Validated: 1
EndChar

StartChar: uni018E
Encoding: 398 398 386
Width: 152
VWidth: 0
Flags: W
HStem: 0 8<12 116> 88 8<28 116> 176 8<12 116>
VStem: 116 24<8 88 96 176>
CounterMasks: 1 e0
LayerCount: 2
Fore
SplineSet
116 176 m 1
 12 176 l 1
 12 184 l 1
 140 184 l 1
 140 0 l 1
 12 0 l 1
 12 8 l 1
 116 8 l 1
 116 88 l 1
 28 88 l 1
 28 96 l 1
 116 96 l 1
 116 176 l 1
EndSplineSet
Validated: 1
EndChar

StartChar: uni02C8
Encoding: 712 712 391
Width: 152
VWidth: 0
HStem: 192 24<64 88>
VStem: 64 24<192 216>
LayerCount: 2
Fore
SplineSet
64 216 m 5
 88 216 l 5
 88 192 l 1
 64 192 l 1
 64 216 l 5
EndSplineSet
Validated: 1
EndChar

StartChar: breve
Encoding: 728 728 392
AltUni2: 000306.ffffffff.0
Width: 152
VWidth: 0
Flags: W
HStem: 190 8<66.0433 85.9567>
VStem: 36 24<203.218 216> 92 24<203.218 216>
LayerCount: 2
Fore
SplineSet
92 216 m 5
 116 216 l 5
 116 202 98 190 76 190 c 4
 54 190 36 202 36 216 c 5
 60 216 l 5
 60 206 67 198 76 198 c 4
 85 198 92 206 92 216 c 5
EndSplineSet
Validated: 1
EndChar

StartChar: uni030C
Encoding: 780 780 394
Width: 0
VWidth: 0
Flags: W
HStem: 192 14
VStem: 34 78
LayerCount: 2
Fore
SplineSet
34 206 m 1
 56 206 l 1
 80 196 l 1
 104 206 l 1
 112 206 l 1
 80 192 l 1
 68 192 l 1
 34 206 l 1
EndSplineSet
Validated: 1
EndChar

StartChar: uni030F
Encoding: 783 783 395
Width: 0
VWidth: 0
Flags: W
HStem: 192 14<52 59.6355 78 84>
VStem: 40 56
LayerCount: 2
Fore
SplineSet
66 206 m 1
 84 206 l 1
 96 192 l 1
 78 192 l 1
 66 206 l 1
40 206 m 1
 58 206 l 1
 61 203 65 198 70 192 c 1
 52 192 l 1
 40 206 l 1
EndSplineSet
Validated: 1
EndChar

StartChar: uni0311
Encoding: 785 785 398
Width: 0
VWidth: 0
Flags: W
HStem: 210 8<66.0433 85.9567>
VStem: 36 24<192 204.782> 92 24<192 204.782>
LayerCount: 2
Fore
SplineSet
92 192 m 1
 92 202 85 210 76 210 c 0
 67 210 60 202 60 192 c 1
 36 192 l 1
 36 206 54 218 76 218 c 0
 98 218 116 206 116 192 c 1
 92 192 l 1
EndSplineSet
Validated: 1
EndChar

StartChar: afii10044
Encoding: 1066 1066 414
Width: 152
VWidth: 0
Flags: W
HStem: 0 8<64 97.8125> 92 8<64 97.8125> 176 8<12 40>
VStem: 40 24<8 92 100 176> 116 24<20.6436 79.3564>
LayerCount: 2
Fore
SplineSet
76 8 m 2
 96 8 116 16 116 36 c 2
 116 64 l 2
 116 84 96 92 76 92 c 2
 64 92 l 1
 64 8 l 1
 76 8 l 2
76 0 m 2
 40 0 l 1
 40 176 l 1
 12 176 l 1
 12 184 l 1
 64 184 l 1
 64 100 l 1
 76 100 l 2
 104 100 140 92 140 64 c 2
 140 36 l 2
 140 8 104 0 76 0 c 2
EndSplineSet
Validated: 1
EndChar

StartChar: delta
Encoding: 948 948 418
Width: 152
VWidth: 0
Flags: W
HStem: -2 8<53.971 98.029> 130 8<54.1875 85.2987> 176 8<47 140>
VStem: 12 24<18.6436 117.356> 116 24<18.6436 117.356>
LayerCount: 2
Fore
SplineSet
76 130 m 4
 56 130 36 122 36 102 c 6
 36 34 l 6
 36 14 56 6 76 6 c 4
 96 6 116 14 116 34 c 6
 116 102 l 6
 116 122 96 130 76 130 c 4
47 176 m 5
 121 129 l 6
 132 122 140 116 140 102 c 6
 140 34 l 6
 140 6 104 -2 76 -2 c 4
 48 -2 12 6 12 34 c 6
 12 102 l 6
 12 130 48 138 76 138 c 6
 86 138 l 5
 12 184 l 5
 140 184 l 5
 140 176 l 5
 47 176 l 5
EndSplineSet
Validated: 1
EndChar

StartChar: uni01C0
Encoding: 448 448 427
Width: 152
VWidth: 0
HStem: 0 21G<64 88> 164 20G<64 88>
VStem: 64 24<0 184>
LayerCount: 2
Fore
SplineSet
64 184 m 5
 88 184 l 5
 88 0 l 5
 64 0 l 5
 64 184 l 5
EndSplineSet
Validated: 1
EndChar

StartChar: Hbar
Encoding: 294 294 428
Width: 152
VWidth: 0
Flags: W
HStem: 0 21G<12 36 116 140> 88 8<36 116> 156 8<0 12 36 116 140 152> 164 20G<12 36 116 140>
VStem: 12 24<0 88 96 156 164 184> 116 24<0 88 96 156 164 184>
LayerCount: 2
Fore
SplineSet
12 184 m 1xdc
 36 184 l 1xdc
 36 164 l 5
 116 164 l 5xec
 116 184 l 1
 140 184 l 1xdc
 140 164 l 5
 152 164 l 5
 152 156 l 5
 140 156 l 5
 140 0 l 1
 116 0 l 1
 116 88 l 1
 36 88 l 1
 36 0 l 1
 12 0 l 1
 12 156 l 5
 0 156 l 5
 0 164 l 5
 12 164 l 5xec
 12 184 l 1xdc
116 156 m 5xec
 36 156 l 5
 36 96 l 1
 116 96 l 1
 116 156 l 5xec
EndSplineSet
Validated: 1
EndChar

StartChar: hbar
Encoding: 295 295 429
AltUni2: 00045b.ffffffff.0
Width: 152
VWidth: 0
Flags: W
HStem: 0 21G<12 36 116 140> 128 8<53.871 98.029> 156 8<0 12 36 88> 164 20G<12 36>
VStem: 12 24<0 115.356 130 156 164 184> 116 24<0 115.356>
LayerCount: 2
Fore
SplineSet
36 100 m 2xec
 36 0 l 1
 12 0 l 1
 12 156 l 1
 0 156 l 1
 0 164 l 1
 12 164 l 1xec
 12 184 l 1
 36 184 l 1xdc
 36 164 l 1
 88 164 l 1
 88 156 l 1
 36 156 l 1
 36 130 l 1
 48 134 62 136 76 136 c 0
 104 136 140 128 140 100 c 2
 140 0 l 1
 116 0 l 1
 116 100 l 2
 116 120 96 128 76 128 c 0
 56 128 36 120 36 100 c 2xec
EndSplineSet
Validated: 1
EndChar

StartChar: Tcommaaccent
Encoding: 354 354 430
Width: 152
VWidth: 0
HStem: -48 8<64 82.9293> 176 8<12 64 88 140>
VStem: 64 24<-7.71741 176> 84 24<-39.7534 -13.3145>
LayerCount: 2
Fore
SplineSet
12 184 m 1xe0
 140 184 l 1
 140 176 l 1
 88 176 l 1
 88 -7 l 1xe0
 108 -9 108 -17 108 -27 c 0xd0
 108 -39 108 -48 76 -48 c 2
 64 -48 l 1
 64 -40 l 1xe0
 76 -40 l 2
 84 -40 84 -35 84 -27 c 0xd0
 84 -19 84 -13 76 -13 c 2
 64 -13 l 1
 64 176 l 1
 12 176 l 1
 12 184 l 1xe0
EndSplineSet
Validated: 1
EndChar

StartChar: tcommaaccent
Encoding: 355 355 431
Width: 152
VWidth: 0
HStem: -50 8<66 84.9293> -15 21<69.5422 85.3053> 128 8<12 40 64 92> 164 20G<40 64>
VStem: 40 24<13.832 128 136 184> 86 24<-41.7534 -15.3145> 92 24<7.73633 26>
LayerCount: 2
Fore
SplineSet
40 136 m 1xfc
 40 184 l 1
 64 184 l 1
 64 136 l 1
 92 136 l 1
 92 128 l 1
 64 128 l 1
 64 34 l 2
 64 14 72 6 78 6 c 2
 80 6 l 2
 84 6 92 6 92 26 c 1
 116 26 l 1xfa
 116 4 104 -1 90 -2 c 1
 90 -9 l 1
 110 -11 110 -19 110 -29 c 0
 110 -41 110 -50 78 -50 c 2
 66 -50 l 1
 66 -42 l 1
 78 -42 l 2
 86 -42 86 -37 86 -29 c 0
 86 -21 86 -15 78 -15 c 2
 66 -15 l 1
 66 -0 l 1
 53 3 40 13 40 34 c 2
 40 128 l 1
 12 128 l 1
 12 136 l 1
 40 136 l 1xfc
EndSplineSet
Validated: 1
EndChar

StartChar: Scedilla
Encoding: 350 350 432
Width: 152
VWidth: 0
HStem: -50 8<64 82.9293> -15 21<64.8818 83.4609> -1 7<58.1178 64 88 93.8822> 92 8<54.1875 97.8125> 178 8<56.9781 95.0219>
VStem: 12 24<21.7158 38 112.644 162.12> 64 24<-9.71741 -0.331299> 84 24<-41.7534 -15.3145> 116 24<21.7158 79.3564 146 162.12>
LayerCount: 2
Fore
SplineSet
76 100 m 0xde80
 104 100 140 92 140 64 c 2
 140 38 l 2
 140 14 113 2 88 -1 c 1
 88 -9 l 1xbe80
 108 -11 108 -19 108 -29 c 0xbd80
 108 -41 108 -50 76 -50 c 2
 64 -50 l 1
 64 -42 l 1xbe80
 76 -42 l 2
 84 -42 84 -37 84 -29 c 0xbd80
 84 -21 84 -15 76 -15 c 2
 64 -15 l 1xde80
 64 -1 l 1xbe80
 39 2 12 14 12 38 c 1
 36 38 l 1
 36 18 56 6 76 6 c 0
 96 6 116 18 116 38 c 2
 116 64 l 2
 116 84 96 92 76 92 c 0
 48 92 12 100 12 128 c 2
 12 146 l 2
 12 174 48 186 76 186 c 0
 104 186 140 174 140 146 c 1
 116 146 l 1
 116 166 96 178 76 178 c 0
 56 178 36 166 36 146 c 2
 36 128 l 2
 36 108 56 100 76 100 c 0xde80
EndSplineSet
Validated: 1
EndChar

StartChar: scedilla
Encoding: 351 351 433
Width: 152
VWidth: 0
HStem: -50 8<64 82.9293> -15 21<64.8818 83.4609> -2 8<52.2454 64 88 96.237> 130 8<45.6267 99.496>
VStem: 12 24<17.1074 32 97.3839 123.666> 84 24<-41.7534 -15.3145> 116 24<19.4423 49.6674 104 118.473>
LayerCount: 2
Fore
SplineSet
12 110 m 0xde
 12 138 48 138 76 138 c 0
 104 138 140 132 140 104 c 1
 116 104 l 1
 116 124 96 130 76 130 c 0
 56 130 36 130 36 110 c 0
 36 94 52 88 76 80 c 0
 102 70 140 62 140 34 c 0
 140 10 113 0 88 -2 c 1xbe
 88 -9 l 1
 108 -11 108 -19 108 -29 c 0
 108 -41 108 -50 76 -50 c 2
 64 -50 l 1
 64 -42 l 1
 76 -42 l 2
 84 -42 84 -37 84 -29 c 0
 84 -21 84 -15 76 -15 c 2
 64 -15 l 1xde
 64 -2 l 1xbe
 39 0 12 8 12 32 c 1
 36 32 l 1
 36 12 56 6 76 6 c 0
 96 6 116 16 116 34 c 0
 116 54 96 62 76 70 c 0
 50 78 12 90 12 110 c 0xde
EndSplineSet
Validated: 1
EndChar

StartChar: uni0254
Encoding: 596 596 434
Width: 152
VWidth: 0
Flags: W
HStem: -2 8<52.504 99.496> 130 8<52.504 99.496>
VStem: 12 24<17.5266 32 104 118.473> 116 24<17.5266 118.473>
LayerCount: 2
Fore
SplineSet
12 32 m 5
 36 32 l 5
 36 12 56 6 76 6 c 4
 96 6 116 12 116 32 c 6
 116 104 l 6
 116 124 96 130 76 130 c 4
 56 130 36 124 36 104 c 5
 12 104 l 5
 12 132 48 138 76 138 c 4
 104 138 140 132 140 104 c 6
 140 32 l 6
 140 4 104 -2 76 -2 c 4
 48 -2 12 4 12 32 c 5
EndSplineSet
Validated: 1
EndChar

StartChar: uni0258
Encoding: 600 600 435
Width: 152
VWidth: 0
Flags: W
HStem: -2 8<52.504 99.496> 72 8<36 116> 130 8<53.971 98.029>
VStem: 12 24<17.5266 32 80 117.356> 116 24<17.5266 72 80 117.356>
LayerCount: 2
Fore
SplineSet
12 32 m 1
 36 32 l 1
 36 12 56 6 76 6 c 0
 96 6 116 12 116 32 c 2
 116 72 l 1
 12 72 l 1
 12 82 12 92 12 102 c 0
 12 130 48 138 76 138 c 0
 104 138 140 130 140 102 c 2
 140 32 l 2
 140 4 104 -2 76 -2 c 0
 48 -2 12 4 12 32 c 1
116 80 m 1
 116 102 l 2
 116 122 96 130 76 130 c 0
 56 130 36 122 36 102 c 2
 36 80 l 1
 116 80 l 1
EndSplineSet
Validated: 1
EndChar

StartChar: uni0259
Encoding: 601 601 436
AltUni2: 0004d9.ffffffff.0
Width: 152
VWidth: 0
Flags: W
HStem: -2 8<53.971 98.029> 56 8<36 116> 130 8<52.504 99.496>
VStem: 12 24<18.6436 56 104 118.473> 116 24<18.6436 56 64 118.473>
LayerCount: 2
Fore
SplineSet
12 104 m 5
 12 132 48 138 76 138 c 4
 104 138 140 132 140 104 c 6
 140 34 l 6
 140 6 104 -2 76 -2 c 4
 48 -2 12 6 12 34 c 4
 12 44 12 54 12 64 c 5
 116 64 l 5
 116 104 l 6
 116 124 96 130 76 130 c 4
 56 130 36 124 36 104 c 5
 12 104 l 5
116 56 m 5
 36 56 l 5
 36 34 l 6
 36 14 56 6 76 6 c 4
 96 6 116 14 116 34 c 6
 116 56 l 5
EndSplineSet
Validated: 1
EndChar

StartChar: uni0183
Encoding: 387 387 437
Width: 152
VWidth: 0
Flags: W
HStem: -2 8<53.8355 98.029> 0 21G<12 36> 128 8<53.871 98.029> 176 8<36 140>
VStem: 12 24<0 4 18.6436 115.356 130 176> 116 24<18.6436 115.356>
LayerCount: 2
Fore
SplineSet
36 34 m 2xbc
 36 14 56 6 76 6 c 0
 96 6 116 14 116 34 c 2
 116 100 l 2
 116 120 96 128 76 128 c 0
 56 128 36 120 36 100 c 2
 36 34 l 2xbc
76 -2 m 0
 62 -2 36 4 36 4 c 1
 36 0 l 1
 12 0 l 1x7c
 12 184 l 1
 140 184 l 1
 140 176 l 1
 36 176 l 1
 36 130 l 1
 48 134 62 136 76 136 c 0
 104 136 140 128 140 100 c 2
 140 34 l 2
 140 6 104 -2 76 -2 c 0
EndSplineSet
Validated: 1
EndChar

StartChar: afii10048
Encoding: 1070 1070 445
Width: 152
VWidth: 0
Flags: W
HStem: -2 8<93.865 110.135> 0 21G<12 36> 92 8<36 64> 164 20G<12 36> 178 8<93.865 110.135>
VStem: 12 24<0 92 100 184> 64 24<13.5619 92 100 170.438> 116 24<13.5619 170.438>
CounterMasks: 1 07
LayerCount: 2
Fore
SplineSet
102 178 m 0xaf
 95 178 88 172 88 152 c 2
 88 32 l 2
 88 12 95 6 102 6 c 0
 109 6 116 12 116 32 c 2
 116 152 l 2
 116 172 109 178 102 178 c 0xaf
102 186 m 0
 112 186 140 180 140 152 c 2
 140 32 l 2
 140 4 112 -2 102 -2 c 0xaf
 92 -2 64 4 64 32 c 2
 64 92 l 1
 36 92 l 1
 36 0 l 1
 12 0 l 1
 12 184 l 1
 36 184 l 1x77
 36 100 l 1
 64 100 l 1
 64 152 l 2
 64 180 92 186 102 186 c 0
EndSplineSet
Validated: 1
EndChar

StartChar: eth
Encoding: 240 240 470
Width: 152
VWidth: 0
Flags: W
HStem: -2 8<53.971 98.029> 130 8<54.1875 85.2987> 153 8<28 49 83 108> 164 20G<12 66.1739>
VStem: 12 24<18.6436 117.356> 116 24<18.6436 117.356>
LayerCount: 2
Fore
SplineSet
76 130 m 4
 56 130 36 122 36 102 c 6
 36 34 l 6
 36 14 56 6 76 6 c 4
 96 6 116 14 116 34 c 6
 116 102 l 6
 116 122 96 130 76 130 c 4
83 153 m 5
 121 129 l 6
 132 122 140 116 140 102 c 6
 140 34 l 6
 140 6 104 -2 76 -2 c 4
 48 -2 12 6 12 34 c 6
 12 102 l 6
 12 130 48 138 76 138 c 6
 86 138 l 5
 62 153 l 5
 28 153 l 5
 28 161 l 5
 49 161 l 5
 12 184 l 5
 34 184 l 5
 71 161 l 5
 108 161 l 5
 108 153 l 5
 83 153 l 5
EndSplineSet
Validated: 1
EndChar

StartChar: afii10068
Encoding: 1075 1075 471
Width: 152
VWidth: 0
HStem: 0 21G<12 36> 128 8<36 140>
VStem: 12 24<0 128>
LayerCount: 2
Fore
SplineSet
36 128 m 1
 36 0 l 1
 12 0 l 1
 12 136 l 1
 140 136 l 1
 140 128 l 1
 36 128 l 1
EndSplineSet
Validated: 1
EndChar

StartChar: guillemotleft
Encoding: 171 171 472
Width: 152
VWidth: 0
Flags: W
HStem: 56 64
LayerCount: 2
Fore
SplineSet
140 56 m 1
 72 88 l 1
 72 92 l 1
 140 120 l 1
 140 112 l 1
 101 96 l 5
 140 78 l 1
 140 56 l 1
80 56 m 1
 12 88 l 1
 12 92 l 1
 80 120 l 1
 80 112 l 1
 41 96 l 1
 80 78 l 1
 80 56 l 1
EndSplineSet
Validated: 1
EndChar

StartChar: Tbar
Encoding: 358 358 475
Width: 152
VWidth: 0
Flags: W
HStem: 0 21G<64 88> 92 8<12 64 88 140> 176 8<12 64 88 140>
VStem: 64 24<0 92 100 176>
LayerCount: 2
Fore
SplineSet
12 184 m 1
 140 184 l 1
 140 176 l 1
 88 176 l 1
 88 100 l 1
 140 100 l 1
 140 92 l 1
 88 92 l 1
 88 0 l 1
 64 0 l 1
 64 92 l 1
 12 92 l 1
 12 100 l 1
 64 100 l 1
 64 176 l 1
 12 176 l 1
 12 184 l 1
EndSplineSet
Validated: 1
EndChar

StartChar: tbar
Encoding: 359 359 476
Width: 152
VWidth: 0
Flags: W
HStem: -2 8<70.9719 88.1909> 92 8<12 40 64 92> 128 8<12 40 64 92> 164 20G<40 64>
VStem: 40 24<13.3732 92 100 128 136 184> 92 24<7.7332 26>
LayerCount: 2
Fore
SplineSet
40 136 m 1
 40 184 l 1
 64 184 l 1
 64 136 l 1
 92 136 l 1
 92 128 l 1
 64 128 l 1
 64 100 l 1
 92 100 l 1
 92 92 l 1
 64 92 l 1
 64 34 l 2
 64 14 72 6 78 6 c 2
 80 6 l 2
 84 6 92 6 92 26 c 1
 116 26 l 1
 116 -2 96 -2 78 -2 c 0
 62 -2 40 6 40 34 c 2
 40 92 l 1
 12 92 l 1
 12 100 l 1
 40 100 l 1
 40 128 l 1
 12 128 l 1
 12 136 l 1
 40 136 l 1
EndSplineSet
Validated: 1
EndChar

StartChar: uni018D
Encoding: 397 397 477
Width: 152
VWidth: 0
Flags: W
HStem: -48 8<12 105> -2 8<66.7013 97.8125> 130 8<53.971 98.029>
VStem: 12 24<18.6436 117.356> 116 24<18.6436 117.356>
LayerCount: 2
Fore
SplineSet
76 6 m 4
 96 6 116 14 116 34 c 6
 116 102 l 6
 116 122 96 130 76 130 c 4
 56 130 36 122 36 102 c 6
 36 34 l 6
 36 14 56 6 76 6 c 4
105 -40 m 5
 31 7 l 6
 20 14 12 20 12 34 c 6
 12 102 l 6
 12 130 48 138 76 138 c 4
 104 138 140 130 140 102 c 6
 140 34 l 6
 140 6 104 -2 76 -2 c 6
 66 -2 l 5
 140 -48 l 5
 12 -48 l 5
 12 -40 l 5
 105 -40 l 5
EndSplineSet
Validated: 1
EndChar

StartChar: germandbls
Encoding: 223 223 478
Width: 152
VWidth: 0
Flags: W
HStem: -2 8<91.0022 112.131> 128 8<94.1319 116> 178 8<53.971 98.029>
VStem: 12 24<-48 165.356> 64 24<14.875 32 95.0268 123.499> 116 24<16.36 54.4069 136 165.356>
CounterMasks: 1 1c
LayerCount: 2
Fore
SplineSet
64 110 m 0
 64 134 89 136 99 136 c 2
 116 136 l 1
 116 150 l 2
 116 170 96 178 76 178 c 0
 56 178 36 170 36 150 c 2
 36 -48 l 1
 28 -48 20 -48 12 -48 c 1
 12 150 l 2
 12 178 48 186 76 186 c 0
 104 186 140 178 140 150 c 2
 140 128 l 1
 108 128 l 2
 103 128 88 127 88 110 c 0
 88 94 91 89 102 82 c 0
 113 75 140 62 140 34 c 0
 140 6 108 -2 102 -2 c 0
 96 -2 64 4 64 32 c 1
 88 32 l 1
 88 12 88 6 102 6 c 0
 116 6 116 16 116 34 c 0
 116 54 113 66 102 72 c 0
 91 78 64 90 64 110 c 0
EndSplineSet
Validated: 1
EndChar

StartChar: uni01A7
Encoding: 423 423 479
Width: 152
VWidth: 0
Flags: W
HStem: -2 8<56.9781 95.0219> 92 8<54.1875 97.8125> 178 8<56.9781 95.0219>
VStem: 12 24<21.88 79.3564 146 162.12> 116 24<21.88 38 112.644 162.12>
LayerCount: 2
Fore
SplineSet
76 100 m 0
 96 100 116 108 116 128 c 2
 116 146 l 2
 116 166 96 178 76 178 c 0
 56 178 36 166 36 146 c 1
 12 146 l 1
 12 174 48 186 76 186 c 0
 104 186 140 174 140 146 c 2
 140 128 l 2
 140 100 104 92 76 92 c 0
 56 92 36 84 36 64 c 2
 36 38 l 2
 36 18 56 6 76 6 c 0
 96 6 116 18 116 38 c 1
 140 38 l 1
 140 10 104 -2 76 -2 c 0
 48 -2 12 10 12 38 c 2
 12 64 l 2
 12 92 48 100 76 100 c 0
EndSplineSet
Validated: 1
EndChar

StartChar: uni01A8
Encoding: 424 424 480
Width: 152
VWidth: 0
Flags: W
HStem: -2 8<55.4632 99.496> 130 8<52.504 106.373>
VStem: 12 24<19.4212 49.6674 104 118.473> 116 24<17.5266 32 97.3839 123.666>
LayerCount: 2
Fore
SplineSet
140 110 m 3
 140 90 102 78 76 70 c 0
 56 62 36 54 36 34 c 3
 36 16 56 6 76 6 c 0
 96 6 116 12 116 32 c 1
 140 32 l 1
 140 4 104 -2 76 -2 c 0
 48 -2 12 6 12 34 c 3
 12 62 50 70 76 80 c 0
 100 88 116 94 116 110 c 3
 116 130 96 130 76 130 c 0
 56 130 36 124 36 104 c 1
 12 104 l 1
 12 132 48 138 76 138 c 0
 104 138 140 138 140 110 c 3
EndSplineSet
Validated: 1
EndChar

StartChar: Uhorn
Encoding: 431 431 481
Width: 152
VWidth: 0
Flags: W
HStem: -2 8<46.8939 69.1061> 110 8<104 109.362> 164 20G<12 36 80 104 116 140>
VStem: 12 24<16.5625 184> 80 24<16.5625 110 118 184> 116 24<125.198 184>
LayerCount: 2
Fore
SplineSet
80 184 m 1
 104 184 l 1
 104 118 l 1
 110 119 116 128 116 146 c 2
 116 184 l 1
 140 184 l 1
 140 146 l 2
 140 119 120 110 104 110 c 1
 104 34 l 2
 104 6 71 -2 58 -2 c 0
 45 -2 12 6 12 34 c 2
 12 184 l 1
 36 184 l 1
 36 34 l 2
 36 14 49 6 58 6 c 0
 67 6 80 14 80 34 c 2
 80 184 l 1
EndSplineSet
Validated: 1
EndChar

StartChar: uhorn
Encoding: 432 432 482
Width: 152
VWidth: 0
Flags: W
HStem: 0 8<41.4733 74.6068> 62 8<104 109.362> 116 20G<12 36 80 104 116 140>
VStem: 12 24<11.9253 136> 80 24<0 7 11.9253 62 70 136> 116 24<77.1976 136>
LayerCount: 2
Fore
SplineSet
58 8 m 0
 70 8 80 8 80 32 c 2
 80 136 l 1
 104 136 l 1
 104 70 l 1
 110 71 116 80 116 98 c 2
 116 136 l 1
 140 136 l 1
 140 98 l 2
 140 71 120 62 104 62 c 1
 104 0 l 1
 80 0 l 1
 80 7 l 1
 80 7 80 0 58 0 c 0
 36 0 12 0 12 32 c 2
 12 136 l 1
 36 136 l 1
 36 32 l 2
 36 8 46 8 58 8 c 0
EndSplineSet
Validated: 1
EndChar

StartChar: upsilon
Encoding: 965 965 489
Width: 152
VWidth: 0
Flags: W
HStem: -2 8<53.971 98.029> 116 20G<12 36 116 140>
VStem: 12 24<18.6436 136> 116 24<18.6436 136>
LayerCount: 2
Fore
SplineSet
116 136 m 1
 124 136 132 136 140 136 c 1
 140 34 l 2
 140 6 104 -2 76 -2 c 0
 48 -2 12 6 12 34 c 2
 12 136 l 1
 20 136 28 136 36 136 c 1
 36 34 l 2
 36 14 56 6 76 6 c 0
 96 6 116 14 116 34 c 2
 116 136 l 1
EndSplineSet
Validated: 1
EndChar

StartChar: nu
Encoding: 957 957 490
Width: 152
VWidth: 0
Flags: W
HStem: 0 8<82 103.084> 116 20G<12 41.5 116 140>
VStem: 116 24<19.4664 136>
LayerCount: 2
Fore
SplineSet
116 136 m 1
 124 136 132 136 140 136 c 1
 140 36 l 2
 140 8 104 0 76 0 c 2
 64 0 l 1
 12 136 l 1
 34 136 l 1
 82 8 l 1
 104 8 116 16 116 36 c 2
 116 136 l 1
EndSplineSet
Validated: 1
EndChar

StartChar: sigma1
Encoding: 962 962 492
Width: 152
VWidth: 0
Flags: W
HStem: -50 7<64 80.2924> -2 8<52.2454 81.8967> 130 8<52.504 99.496>
VStem: 12 24<17.1074 118.473> 84 24<-41.7573 -2.55688> 116 24<104 118.473>
LayerCount: 2
Fore
SplineSet
88 6 m 1
 108 4 108 -11 108 -21 c 0
 108 -33 108 -50 76 -50 c 2
 64 -50 l 1
 64 -43 l 1
 76 -43 l 2
 84 -43 84 -30 84 -22 c 0
 84 -14 84 -2 76 -2 c 0
 72 -2 68 -2 64 -2 c 0
 39 0 12 8 12 32 c 2
 12 104 l 2
 12 132 48 138 76 138 c 0
 104 138 140 132 140 104 c 1
 116 104 l 1
 116 124 96 130 76 130 c 0
 56 130 36 124 36 104 c 2
 36 32 l 2
 36 12 56 6 76 6 c 2
 88 6 l 1
EndSplineSet
Validated: 1
EndChar

StartChar: omega
Encoding: 969 969 493
Width: 152
VWidth: 0
Flags: W
HStem: -2 8<41.8738 58.0402 93.9598 110.126> 130 8<41.9686 50 102 110.031>
VStem: 12 24<10.3047 125.695> 64 24<10.2291 94> 116 24<10.3047 125.695>
CounterMasks: 1 38
LayerCount: 2
Fore
SplineSet
50 138 m 1
 50 130 l 1
 42 130 36 122 36 102 c 2
 36 34 l 2
 36 14 42 6 50 6 c 0
 58 6 64 14 64 34 c 2
 64 94 l 1
 72 94 80 94 88 94 c 1
 88 34 l 2
 88 14 94 6 102 6 c 0
 110 6 116 14 116 34 c 2
 116 102 l 2
 116 122 110 130 102 130 c 1
 102 138 l 1
 128 138 140 130 140 102 c 2
 140 34 l 2
 140 6 128 -2 102 -2 c 0
 91 -2 82 0 76 4 c 1
 70 0 61 -2 50 -2 c 0
 24 -2 12 6 12 34 c 2
 12 102 l 2
 12 130 24 138 50 138 c 1
EndSplineSet
Validated: 1
EndChar

StartChar: zeta
Encoding: 950 950 495
Width: 152
VWidth: 0
Flags: W
HStem: -50 8<102 111.448> 0 8<46.0763 111.448> 176 8<12 110>
VStem: 12 24<14.8116 38.9987> 116 24<-39.5941 -2.40588>
LayerCount: 2
Fore
SplineSet
44 43 m 2
 36 31 36 29 36 27 c 0
 36 8 59 8 76 8 c 2
 102 8 l 2
 118 8 140 7 140 -21 c 0
 140 -49 118 -50 102 -50 c 1
 102 -42 l 1
 108 -42 116 -41 116 -21 c 0
 116 -1 108 0 102 0 c 2
 76 0 l 2
 48 0 12 0 12 28 c 0
 12 33 22 48 22 48 c 1
 110 176 l 1
 12 176 l 1
 12 184 l 1
 140 184 l 1
 44 43 l 2
EndSplineSet
Validated: 1
EndChar

StartChar: lambda
Encoding: 955 955 498
Width: 152
VWidth: 0
Flags: W
HStem: 0 21G<12 28.5 109.607 140> 178 8<36.9304 54.1542>
VStem: 12 24<158 172>
LayerCount: 2
Fore
SplineSet
66 176 m 2
 140 0 l 1
 118 0 l 1
 71 112 l 1
 53 75 37 37 20 0 c 1
 12 0 l 1
 67 122 l 1
 51 169 l 1
 51 169 48 178 42 178 c 3
 37 178 36 172 36 172 c 1
 36 158 l 1
 12 158 l 1
 12 186 34 186 48 186 c 3
 60 186 66 178 66 176 c 2
EndSplineSet
Validated: 1
EndChar

StartChar: uni0228
Encoding: 552 552 499
Width: 152
VWidth: 0
HStem: -48 8<64 82.9293> -14 22<64 83.6287> 0 8<36 64 88 140> 88 8<36 124> 176 8<36 140>
VStem: 12 24<8 88 96 176> 84 24<-39.7534 -14.2808>
LayerCount: 2
Fore
SplineSet
36 176 m 1xbe
 36 96 l 1
 124 96 l 1
 124 88 l 1
 36 88 l 1
 36 8 l 1
 140 8 l 1
 140 0 l 1
 88 -0 l 1xbe
 88 -7 l 5
 108 -9 108 -17 108 -27 c 4
 108 -39 108 -48 76 -48 c 2
 64 -48 l 1
 64 -40 l 1
 76 -40 l 2
 84 -40 84 -35 84 -27 c 0
 84 -19 84 -14 76 -14 c 2
 64 -14 l 1xde
 64 0 l 1
 12 0 l 1
 12 184 l 1
 140 184 l 1
 140 176 l 1
 36 176 l 1xbe
EndSplineSet
Validated: 1
EndChar

StartChar: uni0229
Encoding: 553 553 500
Width: 152
VWidth: 0
HStem: -48 8<64 82.9293> -14 20<64.8818 83.4609> -2 8<52.2454 64 88 99.7546> 72 8<36 116> 130 8<53.971 98.029>
VStem: 12 24<17.1074 72 80 117.356> 84 24<-39.7534 -14.2065> 116 24<17.1074 32 80 117.356>
LayerCount: 2
Fore
SplineSet
36 80 m 1x9f
 116 80 l 1
 116 102 l 2
 116 122 96 130 76 130 c 0
 56 130 36 122 36 102 c 2
 36 80 l 1x9f
64 -2 m 1xbf
 39 0 12 8 12 32 c 2
 12 102 l 2
 12 130 48 138 76 138 c 0
 104 138 140 130 140 102 c 0
 140 92 140 82 140 72 c 1
 36 72 l 1
 36 32 l 2
 36 12 56 6 76 6 c 0xdf
 96 6 116 12 116 32 c 1
 140 32 l 1
 140 8 113 0 88 -2 c 1xbf
 88 -9 l 1
 108 -11 108 -17 108 -27 c 0
 108 -39 108 -48 76 -48 c 2
 64 -48 l 1
 64 -40 l 1
 76 -40 l 2
 84 -40 84 -35 84 -27 c 0
 84 -19 84 -14 76 -14 c 2
 64 -14 l 1xdf
 64 -2 l 1xbf
EndSplineSet
Validated: 1
EndChar

StartChar: eng
Encoding: 331 331 501
Width: 152
VWidth: 0
Flags: W
HStem: -50 8<102 109.028> 0 21G<12 36> 116 20G<12 36> 130 8<58.8394 103.603>
VStem: 12 24<0 110 126 136> 116 24<-34.6268 110>
LayerCount: 2
Fore
SplineSet
84 138 m 4xdc
 106 138 140 130 140 106 c 6
 140 -14 l 2
 140 -42 118 -50 102 -50 c 1
 102 -42 l 1
 108 -42 116 -34 116 -14 c 2
 116 110 l 5
 116 110 116 122 104 126 c 4
 94 130 88 130 76 130 c 4xdc
 64 130 52 124 48 122 c 4
 40 118 36 110 36 110 c 5
 36 0 l 1
 12 0 l 1
 12 136 l 1
 36 136 l 1xec
 36 126 l 5
 36 126 62 138 84 138 c 4xdc
EndSplineSet
Validated: 1
EndChar

StartChar: omega1
Encoding: 982 982 502
Width: 152
VWidth: 0
Flags: W
HStem: -2 8<41.8738 58.0402 93.9598 110.126> 128 8<12 21 41.7789 110.221 131 140>
VStem: 12 24<10.3047 123.734> 64 24<10.2291 94> 116 24<10.3047 123.734>
CounterMasks: 1 38
LayerCount: 2
Fore
SplineSet
50 128 m 6
 42 128 36 120 36 100 c 6
 36 34 l 6
 36 14 42 6 50 6 c 4
 58 6 64 14 64 34 c 6
 64 94 l 5
 72 94 80 94 88 94 c 5
 88 34 l 6
 88 14 94 6 102 6 c 4
 110 6 116 14 116 34 c 6
 116 100 l 6
 116 120 110 128 102 128 c 6
 50 128 l 6
131 128 m 5
 137 122 140 114 140 100 c 6
 140 34 l 6
 140 6 128 -2 102 -2 c 4
 91 -2 82 0 76 4 c 5
 70 0 61 -2 50 -2 c 4
 24 -2 12 6 12 34 c 6
 12 100 l 6
 12 114 15 122 21 128 c 5
 12 128 l 5
 12 136 l 5
 140 136 l 5
 140 128 l 5
 131 128 l 5
EndSplineSet
Validated: 1
EndChar

StartChar: afii10040
Encoding: 1062 1062 503
Width: 152
VWidth: 0
HStem: 0 8<36 92> 164 20G<12 36 92 116>
VStem: 12 24<8 184> 92 24<8 184> 116 24<-48 0>
LayerCount: 2
Fore
SplineSet
12 184 m 1xe8
 36 184 l 1
 36 8 l 1
 92 8 l 1
 92 184 l 1
 116 184 l 1
 116 8 l 1xf0
 140 8 l 1
 140 -48 l 1
 116 -48 l 1
 116 0 l 1
 12 0 l 1
 12 184 l 1xe8
EndSplineSet
Validated: 1
EndChar

StartChar: afii10043
Encoding: 1065 1065 504
Width: 152
VWidth: 0
Flags: W
HStem: 0 8<36 52 76 92> 164 20G<12 36 52 76 92 116>
VStem: 12 24<8 184> 52 24<8 184> 92 24<8 184> 116 24<-48 0>
LayerCount: 2
Fore
SplineSet
12 184 m 1xf4
 36 184 l 1
 36 8 l 1
 52 8 l 1
 52 184 l 1
 76 184 l 1
 76 8 l 1
 92 8 l 1
 92 184 l 1
 116 184 l 1
 116 8 l 1xf8
 140 8 l 1
 140 -48 l 1
 116 -48 l 1
 116 0 l 1
 12 0 l 1
 12 184 l 1xf4
EndSplineSet
Validated: 1
EndChar

StartChar: afii10042
Encoding: 1064 1064 505
Width: 152
VWidth: 0
HStem: 0 8<36 64 88 116> 164 20G<12 36 64 88 116 140>
VStem: 12 24<8 184> 64 24<8 184> 116 24<8 184>
CounterMasks: 1 38
LayerCount: 2
Fore
SplineSet
12 184 m 1
 36 184 l 1
 36 8 l 1
 64 8 l 1
 64 184 l 1
 88 184 l 1
 88 8 l 1
 116 8 l 1
 116 184 l 1
 140 184 l 1
 140 0 l 1
 12 0 l 1
 12 184 l 1
EndSplineSet
Validated: 1
EndChar

StartChar: afii10072
Encoding: 1078 1078 507
Width: 152
VWidth: 0
Flags: W
HStem: 0 21G<12 36 64 88 116 140> 116 20G<12 36 64 88 116 140>
VStem: 12 24<0 56.2667 89.7333 136> 64 24<0 68 78 136> 116 24<0 56.2667 89.7333 136>
CounterMasks: 1 38
LayerCount: 2
Fore
SplineSet
116 136 m 1
 140 136 l 1
 140 105 l 2
 140 87 126 78 109 73 c 1
 126 68 140 59 140 41 c 2
 140 0 l 1
 116 0 l 1
 116 41 l 2
 116 57 103 65 88 68 c 1
 88 0 l 1
 64 0 l 1
 64 68 l 1
 49 65 36 57 36 41 c 2
 36 0 l 1
 12 0 l 1
 12 41 l 2
 12 59 26 68 43 73 c 1
 26 78 12 87 12 105 c 2
 12 136 l 1
 36 136 l 1
 36 105 l 2
 36 89 49 81 64 78 c 1
 64 136 l 1
 88 136 l 1
 88 78 l 1
 103 81 116 89 116 105 c 2
 116 136 l 1
EndSplineSet
Validated: 1
EndChar

StartChar: uni025C
Encoding: 604 604 508
Width: 152
VWidth: 0
Flags: W
HStem: -2 8<52.504 99.496> 66 8<52 99.8108> 130 8<52.504 99.496>
VStem: 12 24<17.5266 32 104 118.473> 116 24<17.5266 54.8926 85.1074 118.473>
LayerCount: 2
Fore
SplineSet
108 70 m 5
 126 66 140 58 140 40 c 6
 140 32 l 6
 140 4 104 -2 76 -2 c 4
 48 -2 12 4 12 32 c 5
 36 32 l 5
 36 12 56 6 76 6 c 4
 96 6 116 12 116 32 c 6
 116 40 l 6
 116 60 96 66 76 66 c 6
 52 66 l 5
 52 74 l 5
 76 74 l 6
 96 74 116 80 116 100 c 6
 116 104 l 6
 116 124 96 130 76 130 c 4
 56 130 36 124 36 104 c 5
 12 104 l 5
 12 132 48 138 76 138 c 4
 104 138 140 132 140 104 c 6
 140 100 l 6
 140 82 126 74 108 70 c 5
EndSplineSet
Validated: 1
EndChar

StartChar: endash
Encoding: 8211 8211 509
AltUni2: 002015.ffffffff.0 002014.ffffffff.0
Width: 152
VWidth: 0
Flags: W
HStem: 88 8<0 152>
LayerCount: 2
Fore
SplineSet
0 96 m 5
 152 96 l 5
 152 88 l 5
 0 88 l 5
 0 96 l 5
EndSplineSet
Validated: 1
EndChar

StartChar: uni1E10
Encoding: 7696 7696 530
Width: 152
VWidth: 0
HStem: -48 8<64 82.9293> 0 8<36 64 88 99.7546> 176 8<36 99.1812>
VStem: 12 24<8 176> 64 24<-9.69269 0> 84 24<-39.707 -14.301> 116 24<19.1074 164.473>
LayerCount: 2
Fore
SplineSet
76 184 m 2xfa
 104 184 140 178 140 150 c 2
 140 34 l 2
 140 10 113 2 88 0 c 1
 88 -9 l 1xfa
 108 -11 108 -18 108 -28 c 0xf6
 108 -40 108 -48 76 -48 c 2
 64 -48 l 1
 64 -40 l 1xfa
 76 -40 l 2
 84 -40 84 -36 84 -28 c 0xf6
 84 -20 84 -14 76 -14 c 2
 64 -14 l 1
 64 0 l 1
 12 0 l 1
 12 184 l 1
 76 184 l 2xfa
76 176 m 2
 36 176 l 1
 36 8 l 1
 76 8 l 2
 96 8 116 14 116 34 c 2
 116 150 l 2
 116 170 96 176 76 176 c 2
EndSplineSet
Validated: 1
EndChar

StartChar: uni1E11
Encoding: 7697 7697 531
Width: 152
VWidth: 0
HStem: -48 8<64 82.9293> -14 20<64.8818 83.4609> -2 8<54.5879 64 88 98.2454> 0 21G<116 140> 128 8<53.971 98.129> 164 20G<116 140>
VStem: 12 24<18.6436 115.356> 84 24<-39.7534 -14.2144> 116 24<0 4 18.6436 115.356 130 184>
LayerCount: 2
Fore
SplineSet
116 34 m 2xcf80
 116 100 l 2
 116 120 96 128 76 128 c 0
 56 128 36 120 36 100 c 2
 36 34 l 2
 36 14 56 6 76 6 c 0
 96 6 116 14 116 34 c 2xcf80
88 -2 m 1xaf80
 88 -8 l 1
 108 -10 108 -17 108 -27 c 0
 108 -39 108 -48 76 -48 c 2
 64 -48 l 1
 64 -40 l 1
 76 -40 l 2
 84 -40 84 -35 84 -27 c 0
 84 -19 84 -14 76 -14 c 2
 64 -14 l 1xcf80
 64 -2 l 1xaf80
 39 0 12 10 12 34 c 2
 12 100 l 2
 12 128 48 136 76 136 c 0
 90 136 104 134 116 130 c 1
 116 184 l 1
 140 184 l 1
 140 0 l 1
 116 0 l 1x9f80
 116 4 l 1
 107 1 98 -1 88 -2 c 1xaf80
EndSplineSet
Validated: 1
EndChar

StartChar: uni1E28
Encoding: 7720 7720 554
Width: 152
VWidth: 0
HStem: -48 8<12 30.9293> 0 21G<116 140> 88 8<36 116> 164 20G<12 36 116 140>
VStem: 12 24<-8.69269 88 96 184> 32 24<-39.7534 -14.2144> 116 24<0 88 96 184>
LayerCount: 2
Fore
SplineSet
12 184 m 1xfa
 36 184 l 1
 36 96 l 1
 116 96 l 1
 116 184 l 1
 140 184 l 1
 140 0 l 1
 116 0 l 1
 116 88 l 1
 36 88 l 1
 36 -8 l 1xfa
 56 -10 56 -17 56 -27 c 0xf6
 56 -39 56 -48 24 -48 c 2
 12 -48 l 1
 12 -40 l 1xfa
 24 -40 l 2
 32 -40 32 -35 32 -27 c 0xf6
 32 -19 32 -14 24 -14 c 2
 12 -14 l 1
 12 184 l 1xfa
EndSplineSet
Validated: 1
EndChar

StartChar: uni1E29
Encoding: 7721 7721 555
Width: 152
VWidth: 0
HStem: -48 8<12 30.9293> 0 21G<116 140> 128 8<53.871 98.029> 164 20G<12 36>
VStem: 12 24<-8.69269 115.356 130 184> 32 24<-39.7534 -14.2144> 116 24<0 115.356>
LayerCount: 2
Fore
SplineSet
12 -14 m 1xfa
 12 184 l 1
 36 184 l 1
 36 130 l 1
 48 134 62 136 76 136 c 0
 104 136 140 128 140 100 c 2
 140 0 l 1
 116 0 l 1
 116 100 l 2
 116 120 96 128 76 128 c 0
 56 128 36 120 36 100 c 2
 36 -8 l 1xfa
 56 -10 56 -17 56 -27 c 0xf6
 56 -39 56 -48 24 -48 c 2
 12 -48 l 1
 12 -40 l 1xfa
 24 -40 l 2
 32 -40 32 -35 32 -27 c 0xf6
 32 -19 32 -14 24 -14 c 2
 12 -14 l 1xfa
EndSplineSet
Validated: 1
EndChar

StartChar: uni1F28
Encoding: 7976 7976 753
Width: 152
VWidth: 0
HStem: 0 21G<44 68 116 140> 88 8<68 116> 110 8<0 6.14062> 164 20G<12 36 44 68 116 140>
VStem: 12 24<124.5 184> 44 24<0 88 96 184> 116 24<0 88 96 184>
LayerCount: 2
Fore
SplineSet
36 184 m 1
 36 146 l 2
 36 118 16 110 0 110 c 5
 0 118 l 5
 6 118 12 126 12 146 c 2
 12 184 l 1
 36 184 l 1
44 184 m 1
 68 184 l 1
 68 96 l 1
 116 96 l 1
 116 184 l 1
 140 184 l 1
 140 0 l 1
 116 0 l 1
 116 88 l 1
 68 88 l 1
 68 0 l 1
 44 0 l 1
 44 184 l 1
EndSplineSet
Validated: 1
EndChar

StartChar: uni1F3A
Encoding: 7994 7994 762
Width: 152
VWidth: 0
HStem: 0 8<60 90 114 140> 110 8<26 33.0281> 166 20G<0 40> 176 8<64 90 114 140>
VStem: 40 24<125.373 172> 90 24<8 176>
LayerCount: 2
Fore
SplineSet
64 176 m 1xdc
 64 146 l 2
 64 118 42 110 26 110 c 1
 26 118 l 1
 32 118 40 126 40 146 c 2
 40 172 l 1
 24 172 l 1
 0 186 l 1
 22 186 l 1xec
 40 176 l 1
 40 184 l 1
 140 184 l 1
 140 176 l 1
 114 176 l 1
 114 8 l 1
 140 8 l 1
 140 0 l 1
 60 0 l 1
 60 8 l 1
 90 8 l 1
 90 176 l 1
 64 176 l 1xdc
EndSplineSet
Validated: 1
EndChar

StartChar: uni1F48
Encoding: 8008 8008 768
Width: 152
VWidth: 0
HStem: -2 8<82.8939 105.106> 112 8<0 6.14062> 178 8<82.8939 105.106>
VStem: 12 24<126.5 186> 48 24<16.5625 167.438> 116 24<16.5625 167.438>
LayerCount: 2
Fore
SplineSet
36 186 m 1
 36 148 l 2
 36 120 16 112 0 112 c 5
 0 120 l 5
 6 120 12 128 12 148 c 2
 12 186 l 1
 36 186 l 1
140 150 m 2
 140 34 l 2
 140 6 107 -2 94 -2 c 0
 81 -2 48 6 48 34 c 2
 48 150 l 2
 48 178 81 186 94 186 c 0
 107 186 140 178 140 150 c 2
72 150 m 2
 72 34 l 2
 72 14 85 6 94 6 c 0
 103 6 116 14 116 34 c 2
 116 150 l 2
 116 170 103 178 94 178 c 0
 85 178 72 170 72 150 c 2
EndSplineSet
Validated: 1
EndChar

StartChar: uni1F68
Encoding: 8040 8040 779
Width: 152
VWidth: 0
HStem: 0 11<77.6402 87 98 107.36> 0 8<45 63 122 140> 112 8<0 6.14062> 178 8<81.5272 103.756>
VStem: 12 24<126.5 186> 45 24<19.2219 167.987> 116 24<19.2219 168.268>
LayerCount: 2
Fore
SplineSet
93 186 m 0x7e
 105 186 140 180 140 152 c 2
 140 34 l 2
 140 21 133 13 122 8 c 1
 140 8 l 1
 140 0 l 1x7e
 98 0 l 1
 98 11 l 1
 108 15 116 22 116 34 c 2
 116 152 l 2
 116 172 98 178 93 178 c 0
 88 178 69 172 69 152 c 2
 69 34 l 2
 69 22 77 15 87 11 c 1
 87 0 l 1xbe
 45 0 l 1
 45 8 l 1
 63 8 l 1
 52 13 45 21 45 34 c 2
 45 152 l 2
 45 180 81 186 93 186 c 0x7e
36 186 m 1
 36 148 l 2
 36 120 16 112 0 112 c 1
 0 120 l 1
 6 120 12 128 12 148 c 2
 12 186 l 1
 36 186 l 1
EndSplineSet
Validated: 1
EndChar

StartChar: uni1FEA
Encoding: 8170 8170 822
Width: 152
VWidth: 0
HStem: 0 21G<78 102> 166 20G<-8 28> 172 12<28 31>
VStem: 78 24<0 94>
LayerCount: 2
Fore
SplineSet
-8 186 m 5xd0
 14 186 l 5xd0
 28 178 l 5
 24 184 l 5
 46 184 l 5
 94 104 l 5
 144 184 l 5
 152 184 l 5
 102 104 l 5
 102 0 l 5
 78 0 l 5
 78 94 l 5
 31 172 l 5
 16 172 l 5xb0
 -8 186 l 5xd0
EndSplineSet
Validated: 1
EndChar

StartChar: uni1FF8
Encoding: 8184 8184 825
Width: 152
VWidth: 0
HStem: -2 8<52.504 99.496> 178 8<51.5685 99.496>
VStem: 12 24<17.5266 138> 116 24<17.5266 166.473>
LayerCount: 2
Fore
SplineSet
12 186 m 1
 36 186 l 1
 38 181 l 1
 50 185 64 186 76 186 c 0
 104 186 140 180 140 152 c 2
 140 32 l 2
 140 4 104 -2 76 -2 c 0
 48 -2 12 4 12 32 c 2
 12 152 l 2
 12 160 15 166 20 171 c 1
 12 186 l 1
36 138 m 1
 36 32 l 2
 36 12 56 6 76 6 c 0
 96 6 116 12 116 32 c 2
 116 152 l 2
 116 172 96 178 76 178 c 0
 64 178 52 176 44 170 c 1
 60 138 l 1
 36 138 l 1
EndSplineSet
Validated: 1
EndChar

StartChar: uni1FFA
Encoding: 8186 8186 826
Width: 152
VWidth: 0
HStem: 0 11<44.6402 54 98 107.36> 0 8<12 30 122 140> 178 8<51.5685 99.496>
VStem: 12 24<19.2219 138> 116 24<19.2219 166.473>
LayerCount: 2
Fore
SplineSet
12 186 m 1x78
 36 186 l 1
 38 181 l 1
 50 185 64 186 76 186 c 0
 104 186 140 180 140 152 c 2
 140 34 l 2
 140 21 133 13 122 8 c 1
 140 8 l 1
 140 0 l 1x78
 98 0 l 1
 98 11 l 1
 108 15 116 22 116 34 c 2
 116 152 l 2
 116 172 96 178 76 178 c 0
 64 178 52 176 44 170 c 1
 60 138 l 1
 36 138 l 1
 36 34 l 2
 36 22 44 15 54 11 c 1
 54 0 l 1xb8
 12 0 l 1
 12 8 l 1
 30 8 l 1
 19 13 12 21 12 34 c 2
 12 152 l 2
 12 160 15 166 20 171 c 1
 12 186 l 1x78
EndSplineSet
Validated: 1
EndChar

StartChar: uni1FBD
Encoding: 8125 8125 827
AltUni2: 001fbf.ffffffff.0
Width: 152
VWidth: 0
HStem: 158 8<52 58.1406>
VStem: 64 24<172.5 216>
LayerCount: 2
Fore
SplineSet
88 216 m 1
 88 194 l 2
 88 166 68 158 52 158 c 5
 52 166 l 5
 58 166 64 174 64 194 c 2
 64 216 l 1
 88 216 l 1
EndSplineSet
Validated: 1
EndChar

StartChar: uni1FBE
Encoding: 8126 8126 828
Width: 152
VWidth: 0
HStem: 0 21G<82 90> 128 8<38 66>
VStem: 66 24<12.9434 128>
LayerCount: 2
Fore
SplineSet
90 0 m 5
 74 0 66 8 66 24 c 6
 66 128 l 5
 38 128 l 5
 38 136 l 5
 90 136 l 5
 90 0 l 5
EndSplineSet
Validated: 1
EndChar

StartChar: uni1FCC
Encoding: 8140 8140 830
Width: 152
VWidth: 0
Flags: W
HStem: 0 21G<12 36 72 96 132 140> 88 8<36 72> 128 8<104 116> 164 20G<12 36 72 96>
VStem: 12 24<0 88 96 184> 72 24<0 88 96 184> 116 24<12.9434 128>
LayerCount: 2
Fore
SplineSet
140 0 m 1
 124 0 116 8 116 24 c 2
 116 128 l 1
 104 128 l 1
 104 136 l 1
 140 136 l 1
 140 0 l 1
12 184 m 1
 36 184 l 1
 36 96 l 1
 72 96 l 1
 72 184 l 1
 96 184 l 1
 96 0 l 1
 72 0 l 1
 72 88 l 1
 36 88 l 1
 36 0 l 1
 12 0 l 1
 12 184 l 1
EndSplineSet
Validated: 1
EndChar

StartChar: uni1FFC
Encoding: 8188 8188 836
Width: 63
VWidth: 0
Flags: W
HStem: 0 11<44.6402 54 65 74.3598> 0 8<12 30 89 107> 128 8<111 116> 178 8<48.5272 70.7557>
VStem: 12 24<19.2219 167.987> 83 24<19.2219 168.268> 116 24<2.83594 128>
LayerCount: 2
Fore
SplineSet
60 186 m 4x7e
 72 186 107 180 107 152 c 6
 107 34 l 6
 107 21 100 13 89 8 c 5
 107 8 l 5
 107 0 l 5x7e
 65 0 l 5
 65 11 l 5
 75 15 83 22 83 34 c 6
 83 152 l 6
 83 172 65 178 60 178 c 4
 55 178 36 172 36 152 c 6
 36 34 l 6
 36 22 44 15 54 11 c 5
 54 0 l 5xbe
 12 0 l 5
 12 8 l 5
 30 8 l 5
 19 13 12 21 12 34 c 6
 12 152 l 6
 12 180 48 186 60 186 c 4x7e
140 136 m 1
 140 0 l 1
 126 0 l 2
 122 0 116 8 116 24 c 2
 116 128 l 1
 111 128 l 1
 111 136 l 1
 140 136 l 1
EndSplineSet
Validated: 1
EndChar

StartChar: uni1E9E
Encoding: 7838 7838 858
Width: 152
VWidth: 0
Flags: W
HStem: 0 8<91.0022 112.766> 128 8<94.1319 116> 178 8<53.971 98.029>
VStem: 12 24<0 165.356> 64 24<16.875 34 95.0268 123.499> 116 24<16.6415 54.4069 136 165.356>
CounterMasks: 1 1c
LayerCount: 2
Fore
SplineSet
64 110 m 0
 64 134 89 136 99 136 c 2
 116 136 l 1
 116 150 l 2
 116 170 96 178 76 178 c 0
 56 178 36 170 36 150 c 2
 36 0 l 1
 12 0 l 1
 12 150 l 2
 12 178 48 186 76 186 c 0
 104 186 140 178 140 150 c 2
 140 128 l 1
 108 128 l 2
 103 128 88 127 88 110 c 0
 88 94 91 89 102 82 c 0
 113 75 140 62 140 34 c 0
 140 6 108 0 102 0 c 0
 96 0 64 6 64 34 c 1
 88 34 l 1
 88 14 88 8 102 8 c 0
 116 8 116 16 116 34 c 0
 116 54 113 66 102 72 c 0
 91 78 64 90 64 110 c 0
EndSplineSet
Validated: 1
EndChar

StartChar: Eng
Encoding: 330 330 861
Width: 152
VWidth: 0
Flags: W
HStem: -50 8<102 109.028> 0 21G<12 36> 164 20G<12 36> 178 8<58.8394 103.603>
VStem: 12 24<0 158 174 184> 116 24<-34.6268 158>
LayerCount: 2
Fore
SplineSet
84 186 m 4xdc
 106 186 140 178 140 154 c 6
 140 -14 l 2
 140 -42 118 -50 102 -50 c 1
 102 -42 l 1
 108 -42 116 -34 116 -14 c 2
 116 158 l 5
 116 158 116 170 104 174 c 4
 94 178 88 178 76 178 c 4xdc
 64 178 52 172 48 170 c 4
 40 166 36 158 36 158 c 5
 36 0 l 1
 12 0 l 1
 12 184 l 1
 36 184 l 1xec
 36 174 l 5
 36 174 62 186 84 186 c 4xdc
EndSplineSet
Validated: 1
EndChar

StartChar: afii10066
Encoding: 1073 1073 862
AltUni2: 0003ec.ffffffff.0
Width: 152
VWidth: 0
Flags: W
HStem: -2 8<52.504 99.496> 130 8<52.1472 99.496> 176 8<52.8188 140>
VStem: 12 24<17.5266 118.893 132 164.473> 116 24<17.5266 118.473>
LayerCount: 2
Fore
SplineSet
116 32 m 2
 116 104 l 2
 116 124 96 130 76 130 c 0
 56 130 36 124 36 104 c 2
 36 32 l 2
 36 12 56 6 76 6 c 0
 96 6 116 12 116 32 c 2
76 176 m 2
 56 176 36 170 36 150 c 2
 36 132 l 1
 48 136 62 138 76 138 c 0
 104 138 140 132 140 104 c 2
 140 32 l 2
 140 4 104 -2 76 -2 c 0
 48 -2 12 4 12 32 c 2
 12 150 l 2
 12 178 48 184 76 184 c 2
 140 184 l 1
 140 176 l 1
 76 176 l 2
EndSplineSet
Validated: 1
EndChar

StartChar: afii10067
Encoding: 1074 1074 863
Width: 152
VWidth: 0
Flags: W
HStem: 0 8<36 97.8125> 64 8<36 98.2454> 128 8<36 97.8125>
VStem: 12 24<8 64 72 128> 116 24<20.507 51.5821 84.4179 115.493>
CounterMasks: 1 e0
LayerCount: 2
Fore
SplineSet
76 128 m 2
 36 128 l 1
 36 72 l 1
 76 72 l 2
 96 72 116 80 116 100 c 0
 116 120 96 128 76 128 c 2
76 136 m 2
 104 136 140 128 140 100 c 0
 140 82 126 72 108 68 c 1
 126 64 140 54 140 36 c 0
 140 8 104 0 76 0 c 2
 12 0 l 1
 12 136 l 1
 76 136 l 2
76 64 m 2
 36 64 l 1
 36 8 l 1
 76 8 l 2
 96 8 116 16 116 36 c 0
 116 56 96 64 76 64 c 2
EndSplineSet
Validated: 1
EndChar

StartChar: afii10074
Encoding: 1080 1080 864
Width: 152
VWidth: 0
Flags: W
HStem: 0 21G<12 46 116 140> 116 20G<12 36 106 140>
VStem: 12 24<16 136> 116 24<0 120>
LayerCount: 2
Fore
SplineSet
12 136 m 1
 36 136 l 1
 36 16 l 1
 120 136 l 1
 140 136 l 1
 140 0 l 1
 116 0 l 1
 116 120 l 1
 32 0 l 1
 12 0 l 1
 12 136 l 1
EndSplineSet
Validated: 1
EndChar

StartChar: afii10078
Encoding: 1084 1084 866
Width: 152
VWidth: 0
Flags: W
HStem: 0 21G<12 36 64.5 90.5 116 140> 116 20G<12 38.5455 123.636 140>
VStem: 12 24<0 80> 116 24<0 80>
LayerCount: 2
Fore
SplineSet
140 136 m 1
 140 0 l 1
 116 0 l 1
 116 80 l 1
 82 0 l 1
 74 0 l 1
 36 80 l 1
 36 0 l 1
 12 0 l 1
 12 136 l 1
 28 136 l 1
 86 26 l 1
 132 136 l 1
 140 136 l 1
EndSplineSet
Validated: 1
EndChar

StartChar: afii10079
Encoding: 1085 1085 867
Width: 152
VWidth: 0
Flags: W
HStem: 0 21G<12 36 116 140> 64 8<36 116> 116 20G<12 36 116 140>
VStem: 12 24<0 64 72 136> 116 24<0 64 72 136>
LayerCount: 2
Fore
SplineSet
12 136 m 1
 36 136 l 1
 36 72 l 5
 116 72 l 5
 116 136 l 1
 140 136 l 1
 140 0 l 1
 116 0 l 1
 116 64 l 5
 36 64 l 5
 36 0 l 1
 12 0 l 1
 12 136 l 1
EndSplineSet
Validated: 1
EndChar

StartChar: afii10084
Encoding: 1090 1090 868
Width: 152
VWidth: 0
Flags: W
HStem: 0 21G<64 88> 128 8<12 64 88 140>
VStem: 64 24<0 128>
LayerCount: 2
Fore
SplineSet
12 136 m 1
 140 136 l 1
 140 128 l 1
 88 128 l 1
 88 0 l 1
 80 0 72 0 64 0 c 1
 64 128 l 1
 12 128 l 1
 12 136 l 1
EndSplineSet
Validated: 1
EndChar

StartChar: afii10086
Encoding: 1092 1092 869
Width: 152
VWidth: 0
Flags: W
HStem: -2 8<41.8738 58.2442 93.7558 110.126> 122 8<41.8738 58.2442 93.7558 110.126> 164 20G<64 88>
VStem: 12 24<10.3047 117.695> 64 24<-48 0 10.2291 117.771 128 184> 116 24<10.3047 117.695>
CounterMasks: 1 1c
LayerCount: 2
Fore
SplineSet
140 34 m 6
 140 6 128 -2 102 -2 c 4
 97 -2 93 -2 88 -0 c 5
 88 -48 l 5
 64 -48 l 5
 64 0 l 5
 59 -2 55 -2 50 -2 c 4
 24 -2 12 6 12 34 c 6
 12 94 l 6
 12 122 24 130 50 130 c 4
 55 130 59 130 64 128 c 5
 64 184 l 5
 88 184 l 5
 88 128 l 5
 93 130 97 130 102 130 c 4
 128 130 140 122 140 94 c 6
 140 34 l 6
36 94 m 6
 36 34 l 6
 36 14 42 6 50 6 c 4
 58 6 64 14 64 34 c 6
 64 94 l 6
 64 114 58 122 50 122 c 4
 42 122 36 114 36 94 c 6
88 94 m 6
 88 34 l 6
 88 14 94 6 102 6 c 4
 110 6 116 14 116 34 c 6
 116 94 l 6
 116 114 110 122 102 122 c 4
 94 122 88 114 88 94 c 6
EndSplineSet
Validated: 1
EndChar

StartChar: afii10088
Encoding: 1094 1094 870
Width: 152
VWidth: 0
Flags: W
HStem: 0 8<36 92> 116 20G<12 36 92 116>
VStem: 12 24<8 136> 92 24<8 136> 116 24<-48 0>
LayerCount: 2
Fore
SplineSet
12 136 m 5xe8
 36 136 l 5
 36 8 l 1
 92 8 l 1
 92 136 l 5
 116 136 l 5
 116 8 l 1xf0
 140 8 l 1
 140 -48 l 1
 116 -48 l 1
 116 0 l 1
 12 0 l 1
 12 136 l 5xe8
EndSplineSet
Validated: 1
EndChar

StartChar: afii10089
Encoding: 1095 1095 871
Width: 152
VWidth: 0
Flags: W
HStem: 0 21G<116 140> 48 8<48.3969 93.1606> 116 20G<12 36 116 140>
VStem: 12 24<76 136> 116 24<0 60 76 136>
LayerCount: 2
Fore
SplineSet
68 48 m 3
 46 48 12 56 12 80 c 2
 12 136 l 1
 36 136 l 1
 36 76 l 1
 36 76 36 64 48 60 c 0
 58 56 64 56 76 56 c 0
 88 56 100 62 104 64 c 0
 112 68 116 76 116 76 c 1
 116 136 l 1
 140 136 l 1
 140 0 l 1
 116 0 l 1
 116 60 l 1
 116 60 90 48 68 48 c 3
EndSplineSet
Validated: 1
EndChar

StartChar: afii10090
Encoding: 1096 1096 872
Width: 152
VWidth: 0
Flags: W
HStem: 0 8<36 64 88 116> 116 20G<12 36 64 88 116 140>
VStem: 12 24<8 136> 64 24<8 136> 116 24<8 136>
CounterMasks: 1 38
LayerCount: 2
Fore
SplineSet
12 136 m 1
 36 136 l 1
 36 8 l 1
 64 8 l 1
 64 136 l 1
 88 136 l 1
 88 8 l 1
 116 8 l 1
 116 136 l 1
 140 136 l 1
 140 0 l 1
 12 0 l 1
 12 136 l 1
EndSplineSet
Validated: 1
EndChar

StartChar: afii10091
Encoding: 1097 1097 873
Width: 152
VWidth: 0
Flags: W
HStem: 0 8<36 52 76 92> 116 20G<12 36 52 76 92 116>
VStem: 12 24<8 136> 52 24<8 136> 92 24<8 136> 116 24<-48 0>
LayerCount: 2
Fore
SplineSet
12 136 m 1xf4
 36 136 l 1
 36 8 l 1
 52 8 l 1
 52 136 l 1
 76 136 l 1
 76 8 l 1
 92 8 l 1
 92 136 l 1
 116 136 l 1
 116 8 l 1xf8
 140 8 l 1
 140 -48 l 1
 116 -48 l 1
 116 0 l 1
 12 0 l 1
 12 136 l 1xf4
EndSplineSet
Validated: 1
EndChar

StartChar: afii10092
Encoding: 1098 1098 874
Width: 152
VWidth: 0
Flags: W
HStem: 0 8<64 97.8125> 84 8<64 97.8125> 128 8<12 40>
VStem: 40 24<8 84 92 128> 116 24<20.6436 71.3564>
LayerCount: 2
Fore
SplineSet
76 8 m 2
 96 8 116 16 116 36 c 2
 116 56 l 2
 116 76 96 84 76 84 c 2
 64 84 l 1
 64 8 l 1
 76 8 l 2
76 0 m 2
 40 0 l 1
 40 128 l 1
 12 128 l 1
 12 136 l 1
 64 136 l 1
 64 92 l 1
 76 92 l 2
 104 92 140 84 140 56 c 2
 140 36 l 2
 140 8 104 0 76 0 c 2
EndSplineSet
Validated: 1
EndChar

StartChar: afii10093
Encoding: 1099 1099 875
Width: 152
VWidth: 0
Flags: W
HStem: 0 8<36 61.8125> 84 8<36 61.8125> 116 20G<12 36 116 140>
VStem: 12 24<8 84 92 136> 80 24<20.6436 71.3564> 116 24<0 136>
LayerCount: 2
Fore
SplineSet
116 136 m 1
 140 136 l 1
 140 0 l 1
 116 0 l 1
 116 136 l 1
40 8 m 2
 60 8 80 16 80 36 c 2
 80 56 l 2
 80 76 60 84 40 84 c 2
 36 84 l 1
 36 8 l 1
 40 8 l 2
40 0 m 2
 12 0 l 1
 12 136 l 1
 36 136 l 1
 36 92 l 1
 40 92 l 2
 68 92 104 84 104 56 c 2
 104 36 l 2
 104 8 68 0 40 0 c 2
EndSplineSet
Validated: 1
EndChar

StartChar: afii10094
Encoding: 1100 1100 876
Width: 152
VWidth: 0
Flags: W
HStem: 0 8<36 97.8125> 84 8<36 97.8125> 116 20G<12 36>
VStem: 12 24<8 84 92 136> 116 24<20.6436 71.3564>
LayerCount: 2
Fore
SplineSet
76 8 m 2
 96 8 116 16 116 36 c 2
 116 56 l 2
 116 76 96 84 76 84 c 2
 36 84 l 1
 36 8 l 1
 76 8 l 2
76 0 m 2
 12 0 l 1
 12 136 l 1
 36 136 l 1
 36 92 l 1
 76 92 l 2
 104 92 140 84 140 56 c 2
 140 36 l 2
 140 8 104 0 76 0 c 2
EndSplineSet
Validated: 1
EndChar

StartChar: afii10095
Encoding: 1101 1101 877
AltUni2: 0003f6.ffffffff.0
Width: 152
VWidth: 0
Flags: W
HStem: -2 8<52.504 99.496> 64 8<44 116> 130 8<52.504 99.496>
VStem: 12 24<17.5266 32 104 118.473> 116 24<17.5266 64 72 118.473>
CounterMasks: 1 e0
LayerCount: 2
Fore
SplineSet
12 32 m 1
 36 32 l 1
 36 12 56 6 76 6 c 0
 96 6 116 12 116 32 c 2
 116 64 l 1
 44 64 l 5
 44 72 l 5
 116 72 l 1
 116 104 l 2
 116 124 96 130 76 130 c 0
 56 130 36 124 36 104 c 1
 12 104 l 1
 12 132 48 138 76 138 c 0
 104 138 140 132 140 104 c 2
 140 32 l 2
 140 4 104 -2 76 -2 c 0
 48 -2 12 4 12 32 c 1
EndSplineSet
Validated: 1
EndChar

StartChar: afii10096
Encoding: 1102 1102 878
Width: 152
VWidth: 0
Flags: W
HStem: -2 8<93.865 110.135> 0 21G<12 36> 64 8<36 64> 116 20G<12 36> 130 8<93.865 110.135>
VStem: 12 24<0 64 72 136> 64 24<13.5619 64 72 122.438> 116 24<13.5619 122.438>
CounterMasks: 1 07
LayerCount: 2
Fore
SplineSet
102 130 m 0xaf
 95 130 88 124 88 104 c 2
 88 32 l 2
 88 12 95 6 102 6 c 0
 109 6 116 12 116 32 c 2
 116 104 l 2
 116 124 109 130 102 130 c 0xaf
102 138 m 0
 112 138 140 132 140 104 c 2
 140 32 l 2
 140 4 112 -2 102 -2 c 0xaf
 92 -2 64 4 64 32 c 2
 64 64 l 5
 36 64 l 5
 36 0 l 1
 12 0 l 1
 12 136 l 1
 36 136 l 1x77
 36 72 l 5
 64 72 l 5
 64 104 l 2
 64 132 92 138 102 138 c 0
EndSplineSet
Validated: 1
EndChar

StartChar: afii10097
Encoding: 1103 1103 879
Width: 152
VWidth: 0
Flags: W
HStem: 0 21G<12 54 116 140> 64 8<54.5339 76 98 116> 128 8<54.1875 116>
VStem: 12 24<84.4609 115.493> 116 24<0 64 72 128>
LayerCount: 2
Fore
SplineSet
76 136 m 6
 140 136 l 5
 140 0 l 5
 116 0 l 5
 116 64 l 5
 98 64 l 5
 34 0 l 5
 12 0 l 5
 76 64 l 5
 42 64 12 74 12 100 c 4
 12 128 48 136 76 136 c 6
76 128 m 6
 56 128 36 120 36 100 c 4
 36 80 56 72 76 72 c 6
 116 72 l 5
 116 128 l 5
 76 128 l 6
EndSplineSet
Validated: 1
EndChar

StartChar: uni04D8
Encoding: 1240 1240 898
Width: 152
VWidth: 0
Flags: W
HStem: -2 8<53.971 98.029> 90 8<36 116> 178 8<52.504 99.496>
VStem: 12 24<18.6436 90 152 166.473> 116 24<18.6436 90 98 166.473>
LayerCount: 2
Fore
SplineSet
12 152 m 1
 12 180 48 186 76 186 c 0
 104 186 140 180 140 152 c 2
 140 34 l 2
 140 6 104 -2 76 -2 c 0
 48 -2 12 6 12 34 c 2
 12 98 l 1
 116 98 l 1
 116 152 l 2
 116 172 96 178 76 178 c 0
 56 178 36 172 36 152 c 1
 12 152 l 1
116 90 m 1
 36 90 l 1
 36 34 l 2
 36 14 56 6 76 6 c 0
 96 6 116 14 116 34 c 2
 116 90 l 1
EndSplineSet
Validated: 1
EndChar

StartChar: uni04E9
Encoding: 1257 1257 912
AltUni2: 0004e8.ffffffff.0
Width: 152
VWidth: 0
Flags: W
HStem: -2 8<53.971 98.029> 64 8<36 116> 130 8<53.971 98.029>
VStem: 12 24<18.6436 64 72 117.356> 116 24<18.6436 64 72 117.356>
CounterMasks: 1 e0
LayerCount: 2
Fore
SplineSet
76 130 m 0
 56 130 36 122 36 102 c 2
 36 72 l 1
 116 72 l 1
 116 102 l 2
 116 122 96 130 76 130 c 0
76 138 m 0
 104 138 140 130 140 102 c 2
 140 34 l 2
 140 6 104 -2 76 -2 c 0
 48 -2 12 6 12 34 c 2
 12 102 l 2
 12 130 48 138 76 138 c 0
36 64 m 1
 36 34 l 2
 36 14 56 6 76 6 c 0
 96 6 116 14 116 34 c 2
 116 64 l 1
 36 64 l 1
EndSplineSet
Validated: 1
EndChar

StartChar: afii57665
Encoding: 1489 1489 927
Width: 152
VWidth: 0
Flags: W
HStem: 0 8<12 92 116 140> 176 8<12 73.8125>
VStem: 92 24<8 163.356>
LayerCount: 2
Fore
SplineSet
52 176 m 2
 12 176 l 1
 12 184 l 1
 52 184 l 2
 80 184 116 176 116 148 c 2
 116 8 l 1
 140 8 l 1
 140 0 l 1
 12 0 l 1
 12 8 l 1
 92 8 l 1
 92 148 l 2
 92 168 72 176 52 176 c 2
EndSplineSet
Validated: 1
EndChar

StartChar: afii57682
Encoding: 1506 1506 929
Width: 152
VWidth: 0
Flags: W
HStem: 0 8<12 36 60 97.8125> 176 8<12 27.9717>
VStem: 36 24<8 168.627> 116 24<20.6436 184>
LayerCount: 2
Fore
SplineSet
116 184 m 1
 124 184 132 184 140 184 c 1
 140 36 l 2
 140 8 104 0 76 0 c 0
 55 0 33 0 12 0 c 1
 12 8 l 1
 36 8 l 1
 36 148 l 2
 36 168 32 176 12 176 c 1
 12 184 l 1
 40 184 60 176 60 148 c 2
 60 8 l 1
 76 8 l 2
 96 8 116 16 116 36 c 2
 116 184 l 1
EndSplineSet
Validated: 1
EndChar

StartChar: afii57688
Encoding: 1512 1512 930
Width: 152
VWidth: 0
Flags: W
HStem: 0 21G<116 140> 176 8<12 97.8125>
VStem: 116 24<0 163.356>
LayerCount: 2
Fore
SplineSet
116 0 m 1
 116 148 l 2
 116 168 96 176 76 176 c 2
 12 176 l 1
 12 184 l 1
 76 184 l 2
 104 184 140 176 140 148 c 2
 140 0 l 1
 132 0 124 0 116 0 c 1
EndSplineSet
Validated: 1
EndChar

StartChar: afii57689
Encoding: 1513 1513 931
Width: 152
VWidth: 0
Flags: W
HStem: -2 8<53.971 98.029> 48 9<36 48.9206> 164 20G<12 36 64 88 116 140>
VStem: 12 24<18.6436 48.4702 57 184> 64 24<68.7333 184> 116 24<18.6436 184>
CounterMasks: 1 1c
LayerCount: 2
Fore
SplineSet
64 184 m 1
 88 184 l 1
 88 84 l 2
 88 60 61 50 36 48 c 1
 36 34 l 2
 36 14 56 6 76 6 c 0
 96 6 116 14 116 34 c 2
 116 184 l 1
 140 184 l 1
 140 34 l 2
 140 6 104 -2 76 -2 c 0
 48 -2 12 6 12 34 c 2
 12 184 l 1
 36 184 l 1
 36 57 l 1
 51 60 64 68 64 84 c 2
 64 184 l 1
EndSplineSet
Validated: 1
EndChar

StartChar: afii57690
Encoding: 1514 1514 932
Width: 152
VWidth: 0
Flags: W
HStem: 0 8<12 27.9717> 176 8<12 36 60 97.8125>
VStem: 36 24<15.3732 176> 116 24<0 163.356>
LayerCount: 2
Fore
SplineSet
116 0 m 1
 116 148 l 2
 116 168 96 176 76 176 c 2
 60 176 l 1
 60 36 l 2
 60 8 40 0 12 0 c 1
 12 8 l 1
 32 8 36 16 36 36 c 2
 36 176 l 1
 12 176 l 1
 12 184 l 1
 33 184 55 184 76 184 c 0
 104 184 140 176 140 148 c 2
 140 0 l 1
 132 0 124 0 116 0 c 1
EndSplineSet
Validated: 1
EndChar

StartChar: afii57666
Encoding: 1490 1490 933
Width: 152
VWidth: 0
Flags: W
HStem: 0 21G<12 36 116 140> 88 8<54.1875 116> 176 8<12 97.8125>
VStem: 12 24<0 75.3564> 116 24<0 88 96 163.356>
LayerCount: 2
Fore
SplineSet
36 0 m 1
 28 0 20 0 12 0 c 1
 12 60 l 2
 12 88 48 96 76 96 c 2
 116 96 l 1
 116 148 l 2
 116 168 96 176 76 176 c 2
 12 176 l 1
 12 184 l 1
 76 184 l 2
 104 184 140 176 140 148 c 2
 140 0 l 1
 132 0 124 0 116 0 c 1
 116 88 l 1
 76 88 l 2
 56 88 36 80 36 60 c 2
 36 0 l 1
EndSplineSet
Validated: 1
EndChar

StartChar: afii57667
Encoding: 1491 1491 934
Width: 152
VWidth: 0
HStem: 0 21G<92 116> 176 8<12 92 116 140>
VStem: 92 24<0 176>
LayerCount: 2
Fore
SplineSet
12 184 m 1
 140 184 l 1
 140 176 l 1
 116 176 l 1
 116 0 l 1
 92 0 l 1
 92 176 l 1
 12 176 l 1
 12 184 l 1
EndSplineSet
Validated: 1
EndChar

StartChar: afii57670
Encoding: 1494 1494 935
Width: 152
VWidth: 0
Flags: W
HStem: 0 21G<64 88> 176 8<12 84 105.755 140>
VStem: 64 24<0 163.356>
LayerCount: 2
Fore
SplineSet
88 0 m 1
 80 0 72 0 64 0 c 1
 64 148 l 2
 64 162 72 170 84 176 c 1
 12 176 l 1
 12 184 l 1
 54.6666666667 184 97.3333333333 184 140 184 c 1
 140 176 l 1
 128 176 l 2
 108 176 88 168 88 148 c 2
 88 0 l 1
EndSplineSet
Validated: 524289
EndChar

StartChar: afii57671
Encoding: 1495 1495 936
Width: 152
VWidth: 0
Flags: W
HStem: 0 21G<12 36 116 140> 176 8<36 97.8125>
VStem: 12 24<0 176> 116 24<0 163.356>
LayerCount: 2
Fore
SplineSet
116 0 m 1
 116 148 l 2
 116 168 96 176 76 176 c 2
 36 176 l 1
 36 0 l 1
 12 0 l 1
 12 61.3333333333 12 122.666666667 12 184 c 1
 76 184 l 2
 104 184 140 176 140 148 c 2
 140 0 l 1
 132 0 124 0 116 0 c 1
EndSplineSet
Validated: 524289
EndChar

StartChar: afii57672
Encoding: 1496 1496 937
Width: 152
VWidth: 0
Flags: W
HStem: -2 8<53.971 98.029> 164 20G<12 36> 178 8<76 97.8125>
VStem: 12 24<18.6436 184> 116 24<18.6436 165.356>
LayerCount: 2
Fore
SplineSet
76 178 m 1xb8
 76 186 l 1xb8
 104 186 140 178 140 150 c 2
 140 34 l 2
 140 6 104 -2 76 -2 c 0
 48 -2 12 6 12 34 c 2
 12 184 l 1
 36 184 l 1xd8
 36 34 l 2
 36 14 56 6 76 6 c 0
 96 6 116 14 116 34 c 2
 116 150 l 2
 116 170 96 178 76 178 c 1xb8
EndSplineSet
Validated: 1
EndChar

StartChar: afii57673
Encoding: 1497 1497 938
Width: 152
VWidth: 0
HStem: 128 8<36 92>
VStem: 92 24<48 128>
LayerCount: 2
Fore
SplineSet
36 136 m 1
 116 136 l 1
 116 106.666992188 116 77.3330078125 116 48 c 1
 92 48 l 1
 92 128 l 1
 36 128 l 1
 36 136 l 1
EndSplineSet
Validated: 524289
EndChar

StartChar: afii57674
Encoding: 1498 1498 939
Width: 152
VWidth: 0
Flags: W
HStem: 176 8<12 97.8125>
VStem: 116 24<-48 163.356>
LayerCount: 2
Fore
SplineSet
116 -48 m 1
 116 148 l 2
 116 168 96 176 76 176 c 2
 12 176 l 1
 12 184 l 1
 76 184 l 2
 104 184 140 176 140 148 c 2
 140 -48 l 1
 132 -48 124 -48 116 -48 c 1
EndSplineSet
Validated: 1
EndChar

StartChar: afii57676
Encoding: 1500 1500 940
Width: 152
VWidth: 0
Flags: W
HStem: 0 21G<64 88> 92 8<93.8245 109.348> 176 40<12 36> 176 8<36 116>
VStem: 12 24<184 216> 64 24<0 86.9954> 116 24<105.005 176>
CounterMasks: 1 0e
LayerCount: 2
Fore
SplineSet
140 184 m 1xde
 140 128 l 2
 140 100 124 92 106 92 c 0
 91 92 88 84 88 64 c 2
 88 0 l 1
 64 0 l 1
 64 64 l 2
 64 92 80 100 98 100 c 0
 111 100 116 108 116 128 c 2
 116 176 l 1xde
 12 176 l 1
 12 189.333333333 12 202.666666667 12 216 c 1
 36 216 l 1xee
 36 184 l 1
 70.6666666667 184 105.333333333 184 140 184 c 1xde
EndSplineSet
Validated: 524289
EndChar

StartChar: uni04B1
Encoding: 1201 1201 941
Width: 152
VWidth: 0
Flags: W
HStem: 0 8<12 63 90 140> 116 20G<12 41.8689 123.803 140>
VStem: 66 24<-48 0>
LayerCount: 2
Fore
SplineSet
12 136 m 1
 34 136 l 1
 82 14 l 1
 132 136 l 1
 140 136 l 1
 90 14 l 1
 90 8 l 1
 140 8 l 1
 140 0 l 1
 90 0 l 1
 90 -48 l 1
 66 -48 l 1
 66 0 l 1
 12 0 l 1
 12 8 l 1
 63 8 l 1
 12 136 l 1
EndSplineSet
Validated: 1
EndChar

StartChar: uni04B0
Encoding: 1200 1200 942
Width: 152
VWidth: 0
Flags: W
HStem: 0 21G<66 90> 88 8<12 65 90 140> 164 20G<12 46 119.5 140>
VStem: 66 24<0 88>
LayerCount: 2
Fore
SplineSet
12 184 m 1
 34 184 l 1
 82 104 l 1
 132 184 l 1
 140 184 l 1
 90 104 l 1
 90 96 l 1
 140 96 l 1
 140 88 l 1
 90 88 l 1
 90 0 l 1
 66 0 l 1
 66 88 l 1
 12 88 l 1
 12 96 l 1
 65 96 l 1
 12 184 l 1
EndSplineSet
Validated: 1
EndChar

StartChar: afii57687
Encoding: 1511 1511 943
Width: 152
VWidth: 0
Flags: W
HStem: 0 21G<64 88> 92 8<93.8245 109.348> 116 20G<12 36> 176 8<12 116>
VStem: 12 24<-48 136> 64 24<0 86.9954> 116 24<105.005 176>
CounterMasks: 1 0e
LayerCount: 2
Fore
SplineSet
12 136 m 1
 36 136 l 1
 36 -48 l 1
 28 -48 20 -48 12 -48 c 1
 12 136 l 1
140 184 m 1
 140 128 l 2
 140 100 124 92 106 92 c 0
 91 92 88 84 88 64 c 2
 88 0 l 1
 64 0 l 1
 64 64 l 2
 64 92 80 100 98 100 c 0
 111 100 116 108 116 128 c 2
 116 176 l 1
 12 176 l 1
 12 189.333333333 12 170.666992188 12 184 c 1
 20 184 28 184 36 184 c 1
 70.6666666667 184 105.333333333 184 140 184 c 1
EndSplineSet
Validated: 524289
EndChar

StartChar: afii57677
Encoding: 1501 1501 944
Width: 152
VWidth: 0
Flags: W
HStem: 0 8<36 116> 176 8<36 97.8125>
VStem: 12 24<8 176> 116 24<8 163.356>
LayerCount: 2
Fore
SplineSet
140 0 m 1
 12 0 l 1
 12 61.3333333333 12 122.666666667 12 184 c 1
 76 184 l 2
 104 184 140 176 140 148 c 2
 140 0 l 1
116 8 m 1
 116 148 l 2
 116 168 96 176 76 176 c 2
 36 176 l 1
 36 8 l 1
 116 8 l 1
EndSplineSet
Validated: 524289
EndChar

StartChar: afii57678
Encoding: 1502 1502 945
Width: 152
VWidth: 0
Flags: W
HStem: 0 8<64 116> 164 20G<12 36> 178 8<53.7249 98.029>
VStem: 12 24<0 165.356 180 184> 116 24<8 165.356>
LayerCount: 2
Fore
SplineSet
36 0 m 1xb8
 12 0 l 1
 12 184 l 1
 36 184 l 1xd8
 36 180 l 1
 48 185 63 186 76 186 c 0
 104 186 140 178 140 150 c 2
 140 0 l 1
 114.666666667 -0 89.3333333333 0 64 0 c 1
 64 8 l 1
 116 8 l 1
 116 150 l 2
 116 170 96 178 76 178 c 0
 56 178 36 170 36 150 c 0
 36 100 36 50 36 0 c 1xb8
EndSplineSet
Validated: 524289
EndChar

StartChar: afii57680
Encoding: 1504 1504 946
Width: 152
VWidth: 0
Flags: W
HStem: 0 8<12 116> 176 8<12 97.8125>
VStem: 116 24<8 163.356>
LayerCount: 2
Fore
SplineSet
140 0 m 1
 12 0 l 1
 12 8 l 1
 116 8 l 1
 116 148 l 2
 116 168 96 176 76 176 c 2
 12 176 l 1
 12 184 l 1
 76 184 l 2
 104 184 140 176 140 148 c 2
 140 0 l 1
EndSplineSet
Validated: 1
EndChar

StartChar: afii57679
Encoding: 1503 1503 947
Width: 152
VWidth: 0
Flags: W
HStem: -48 8<91.9631 118> 176 8<36 64>
VStem: 64 24<-37.166 176>
LayerCount: 2
Fore
SplineSet
64 -24 m 2
 64 176 l 1
 36 176 l 1
 36 184 l 1
 88 184 l 1
 88 -24 l 2
 88 -34 94 -40 100 -40 c 2
 118 -40 l 1
 118 -48 l 1
 88 -48 l 2
 72 -48 64 -40 64 -24 c 2
EndSplineSet
Validated: 1
EndChar

StartChar: afii57681
Encoding: 1505 1505 948
Width: 152
VWidth: 0
Flags: W
HStem: -2 8<52.504 99.496> 176 8<36 99.1812>
VStem: 12 24<17.5266 176> 116 24<17.5266 164.473>
LayerCount: 2
Fore
SplineSet
12 32 m 2
 12 184 l 1
 33.3333333333 184 54.6666666667 184 76 184 c 0
 104 184 140 178 140 150 c 2
 140 32 l 2
 140 4 104 -2 76 -2 c 0
 48 -2 12 4 12 32 c 2
36 32 m 2
 36 12 56 6 76 6 c 0
 96 6 116 12 116 32 c 2
 116 150 l 2
 116 170 96 176 76 176 c 2
 36 176 l 1
 36 32 l 2
EndSplineSet
Validated: 524289
EndChar

StartChar: afii57684
Encoding: 1508 1508 949
Width: 152
VWidth: 0
Flags: W
HStem: -2 8<52.504 99.496> 92 8<38.3831 88> 178 8<52.504 99.496>
VStem: 12 24<17.5266 32 102.21 166.473> 116 24<17.5266 166.473>
LayerCount: 2
Fore
SplineSet
12 152 m 2
 12 180 48 186 76 186 c 0
 104 186 140 180 140 152 c 2
 140 32 l 2
 140 4 104 -2 76 -2 c 0
 48 -2 12 4 12 32 c 1
 36 32 l 1
 36 12 56 6 76 6 c 0
 96 6 116 12 116 32 c 2
 116 152 l 2
 116 172 96 178 76 178 c 0
 56 178 36 172 36 152 c 2
 36 108 l 0
 36 103.583984375 42.751953125 100 56 100 c 1
 88 100 l 1
 88 92 l 1
 36 92 l 1
 22.751953125 92 12 99.16796875 12 108 c 0
 12 152 l 2
EndSplineSet
Validated: 524289
EndChar

StartChar: afii57683
Encoding: 1507 1507 950
Width: 152
VWidth: 0
Flags: W
HStem: 92 8<38.3831 88> 178 8<52.504 99.496>
VStem: 12 24<102.21 166.473> 116 24<-48 166.473>
LayerCount: 2
Fore
SplineSet
116 -48 m 2
 116 152 l 2
 116 172 96 178 76 178 c 0
 56 178 36 172 36 152 c 2
 36 108 l 0
 36 103.583984375 42.751953125 100 56 100 c 1
 88 100 l 1
 88 92 l 1
 36 92 l 1
 22.751953125 92 12 99.16796875 12 108 c 0
 12 152 l 2
 12 180 48 186 76 186 c 0
 104 186 140 180 140 152 c 2
 140 -48 l 2
 116 -48 l 2
EndSplineSet
Validated: 524289
EndChar

StartChar: afii57686
Encoding: 1510 1510 951
Width: 152
VWidth: 0
Flags: W
HStem: 0 8<12 114> 92 8<87 112.037> 164 20G<12 42 116 140>
VStem: 116 24<102.834 184>
LayerCount: 2
Fore
SplineSet
140 0 m 1
 12 0 l 1
 12 8 l 1
 114 8 l 1
 12 184 l 1
 22 184 27 184 34 184 c 1
 50 155 67 128 83 100 c 1
 104 100 l 2
 110 100 116 106 116 116 c 2
 116 184 l 1
 140 184 l 1
 140 116 l 2
 140 100 132 92 116 92 c 2
 87 92 l 1
 105 61 122 31 140 0 c 1
EndSplineSet
Validated: 1
EndChar

StartChar: afii57685
Encoding: 1509 1509 952
Width: 152
VWidth: 0
Flags: W
HStem: 0 21G<64 88> 92 8<88 112.037> 164 20G<12 42 116 140>
VStem: 64 24<0 92> 116 24<102.834 184>
LayerCount: 2
Fore
SplineSet
64 98 m 5
 12 184 l 1
 22 184 27 184 34 184 c 1
 50 155 69 128 85 100 c 1
 104 100 l 2
 110 100 116 106 116 116 c 2
 116 184 l 1
 140 184 l 1
 140 116 l 2
 140 100 132 92 116 92 c 2
 88 92 l 1
 88 0 l 1
 64 0 l 1
 64 98 l 5
EndSplineSet
Validated: 1
EndChar

StartChar: uni0181
Encoding: 385 385 953
Width: 152
VWidth: 0
Flags: W
HStem: 0 8<60 97.8125> 92 8<60 98.2454> 176 8<60 97.8125>
VStem: 0 24<110 168.416> 36 24<8 92 100 176> 116 24<20.6436 79.3564 112.644 163.356>
LayerCount: 2
Fore
SplineSet
76 92 m 2
 60 92 l 1
 60 8 l 1
 76 8 l 2
 96 8 116 16 116 36 c 2
 116 64 l 2
 116 84 96 92 76 92 c 2
76 184 m 2
 104 184 140 176 140 148 c 2
 140 128 l 2
 140 110 126 100 108 96 c 1
 126 92 140 82 140 64 c 2
 140 36 l 2
 140 8 104 0 76 0 c 2
 36 0 l 1
 36 176 l 1
 30 174 24 166 24 148 c 2
 24 110 l 1
 0 110 l 1
 0 148 l 2
 0 176 22 184 38 184 c 2
 76 184 l 2
76 176 m 2
 60 176 l 1
 60 100 l 1
 76 100 l 2
 96 100 116 108 116 128 c 2
 116 148 l 2
 116 168 96 176 76 176 c 2
EndSplineSet
Validated: 1
EndChar

StartChar: afii10053
Encoding: 1028 1028 956
Width: 152
VWidth: 0
Flags: W
HStem: -2 8<52.504 99.496> 92 8<36 108> 178 8<52.504 99.496>
VStem: 12 24<17.5266 92 100 166.473> 116 24<17.5266 32 152 166.473>
LayerCount: 2
Fore
SplineSet
140 32 m 1
 140 4 104 -2 76 -2 c 0
 48 -2 12 4 12 32 c 2
 12 152 l 2
 12 180 48 186 76 186 c 0
 104 186 140 180 140 152 c 1
 116 152 l 1
 116 172 96 178 76 178 c 0
 56 178 36 172 36 152 c 2
 36 100 l 1
 108 100 l 1
 108 92 l 1
 36 92 l 1
 36 32 l 2
 36 12 56 6 76 6 c 0
 96 6 116 12 116 32 c 1
 140 32 l 1
EndSplineSet
Validated: 1
EndChar

StartChar: exclam.ref1
Encoding: 65536 -1 957
Width: 152
VWidth: 0
LayerCount: 2
Fore
SplineSet
64 184 m 1
 88 184 l 1
 88 40 l 1
 64 40 l 1
 64 184 l 1
EndSplineSet
Validated: 1
Comment: "exclam had both contours and references, so the contours were moved into this glyph, and a reference to it was added in the original."
Colour: ff8080
EndChar

StartChar: question.ref1
Encoding: 65537 -1 958
Width: 152
VWidth: 0
LayerCount: 2
Fore
SplineSet
88 92 m 5
 88 40 l 1
 64 40 l 1
 64 100 l 1
 76 100 l 2
 96 100 116 106 116 126 c 2
 116 152 l 2
 116 172 96 178 76 178 c 0
 56 178 36 172 36 152 c 1
 12 152 l 1
 12 180 48 186 76 186 c 0
 104 186 140 180 140 152 c 2
 140 126 l 2
 140 102 114 94 88 92 c 5
EndSplineSet
Validated: 1
Comment: "question had both contours and references, so the contours were moved into this glyph, and a reference to it was added in the original."
Colour: ff8080
EndChar

StartChar: j.ref1
Encoding: 65538 -1 959
Width: 152
VWidth: 0
LayerCount: 2
Fore
SplineSet
96 -14 m 2
 96 -42 74 -50 58 -50 c 0
 40 -50 20 -50 20 -22 c 1
 44 -22 l 1
 44 -42 52 -42 56 -42 c 2
 58 -42 l 2
 64 -42 72 -34 72 -14 c 2
 72 128 l 1
 44 128 l 1
 44 136 l 1
 96 136 l 1
 96 -14 l 2
EndSplineSet
Validated: 1
Comment: "j had both contours and references, so the contours were moved into this glyph, and a reference to it was added in the original."
Colour: ff8080
EndChar

StartChar: copyright.ref1
Encoding: 65539 -1 960
Width: 152
VWidth: 0
LayerCount: 2
Fore
SplineSet
108 56 m 1
 108 28 104 22 76 22 c 0
 48 22 44 28 44 56 c 2
 44 128 l 2
 44 156 48 162 76 162 c 0
 104 162 108 156 108 128 c 1
 84 128 l 1
 84 148 84 154 76 154 c 0
 68 154 68 148 68 128 c 2
 68 56 l 2
 68 36 68 30 76 30 c 0
 84 30 84 36 84 56 c 1
 108 56 l 1
EndSplineSet
Validated: 1
Comment: "copyright had both contours and references, so the contours were moved into this glyph, and a reference to it was added in the original."
Colour: ff8080
EndChar

StartChar: registered.ref1
Encoding: 65540 -1 961
Width: 152
VWidth: 0
LayerCount: 2
Fore
SplineSet
77 162 m 2
 83 162 108 154 108 126 c 2
 108 120 l 2
 108 94 96 84 90 84 c 1
 110 22 l 1
 88 22 l 1
 68 84 l 1
 68 22 l 1
 44 22 l 1
 44 162 l 1
 77 162 l 2
68 154 m 1
 68 92 l 1
 72 92 85 100 85 120 c 2
 85 126 l 2
 85 146 72 154 68 154 c 1
EndSplineSet
Validated: 1
Comment: "registered had both contours and references, so the contours were moved into this glyph, and a reference to it was added in the original."
Colour: ff8080
EndChar

StartChar: onequarter.ref1
Encoding: 65541 -1 962
Width: 152
VWidth: 0
LayerCount: 2
Fore
SplineSet
12 184 m 1xde
 60 184 l 1
 60 92 l 1
 34 92 l 1
 34 176 l 1
 12 176 l 1
 12 184 l 1xde
94 92 m 1
 118 92 l 1
 118 52 l 1
 130 52 l 1
 130 92 l 1
 154 92 l 1
 154 0 l 1
 130 0 l 1
 130 44 l 1
 118 44 106 44 94 44 c 1
 94 60 94 76 94 92 c 1
EndSplineSet
Validated: 1
Comment: "onequarter had both contours and references, so the contours were moved into this glyph, and a reference to it was added in the original."
Colour: ff8080
EndChar

StartChar: onehalf.ref1
Encoding: 65542 -1 963
Width: 152
VWidth: 0
LayerCount: 2
Fore
SplineSet
12 184 m 5x3780
 60 184 l 5
 60 92 l 5
 36 92 l 5
 36 176 l 5
 12 176 l 5
 12 184 l 5x3780
120 48 m 2
 126 48 128 48 128 68 c 0
 128 86 126 86 120 86 c 0
 114 86 112 86 112 68 c 1
 88 68 l 1
 88 94 106 94 120 94 c 0
 134 94 152 94 152 68 c 0
 152 50 139 40 121 40 c 2
 120 40 l 2
 114 40 112 40 112 24 c 2
 112 8 l 1
 152 8 l 1
 152 0 l 1xb380
 88 0 l 1x7380
 88 24 l 2
 88 42 101 48 119 48 c 2
 120 48 l 2
EndSplineSet
Validated: 1
Comment: "onehalf had both contours and references, so the contours were moved into this glyph, and a reference to it was added in the original."
Colour: ff8080
EndChar

StartChar: threequarters.ref1
Encoding: 65543 -1 964
Width: 152
VWidth: 0
LayerCount: 2
Fore
SplineSet
45 140 m 1xf7c0
 56 138 64 136 64 116 c 0
 64 90 46 90 32 90 c 0
 18 90 0 90 0 116 c 1
 24 116 l 1
 24 98 26 98 32 98 c 0
 38 98 40 98 40 116 c 0
 40 136 38 136 32 136 c 1
 32 144 l 1
 38 144 40 144 40 160 c 0
 40 178 38 178 32 178 c 0
 26 178 24 178 24 160 c 1
 0 160 l 1
 0 186 18 186 32 186 c 0
 46 186 64 186 64 160 c 0
 64 144 56 142 45 140 c 1xf7c0
92 92 m 1
 116 92 l 1
 116 52 l 1
 130 52 l 1
 130 92 l 1
 152 92 l 1
 152 0 l 1
 130 0 l 1
 130 44 l 1
 92 44 l 1
 92 92 l 1
EndSplineSet
Validated: 1
Comment: "threequarters had both contours and references, so the contours were moved into this glyph, and a reference to it was added in the original."
Colour: ff8080
EndChar

StartChar: dcaron.ref1
Encoding: 65544 -1 965
Width: 152
VWidth: 0
LayerCount: 2
Fore
SplineSet
63 -2 m 0xbf
 35 -2 12 6 12 34 c 2
 12 100 l 2
 12 128 35 136 63 136 c 0
 77 136 78 134 90 130 c 1
 90 184 l 1
 114 184 l 1
 114 0 l 1
 90 0 l 1x7f
 90 4 l 1
 90 4 77 -2 63 -2 c 0xbf
90 34 m 2
 90 100 l 2
 90 120 83 128 63 128 c 0
 43 128 36 120 36 100 c 2
 36 34 l 2
 36 14 43 6 63 6 c 0xbf
 83 6 90 14 90 34 c 2
EndSplineSet
Validated: 1
Comment: "dcaron had both contours and references, so the contours were moved into this glyph, and a reference to it was added in the original."
Colour: ff8080
EndChar

StartChar: Gcommaaccent.ref1
Encoding: 65545 -1 966
Width: 152
VWidth: 0
LayerCount: 2
Fore
SplineSet
95 -8 m 1
 95 -14 l 2
 95 -42 73 -50 57 -50 c 1
 57 -42 l 1
 63 -42 71 -34 71 -14 c 2
 71 -8 l 1
 95 -8 l 1
EndSplineSet
Validated: 1
Comment: "Gcommaaccent had both contours and references, so the contours were moved into this glyph, and a reference to it was added in the original."
Colour: ff8080
EndChar

StartChar: IJ.ref1
Encoding: 65546 -1 967
Width: 152
VWidth: 0
LayerCount: 2
Fore
SplineSet
116 184 m 1xbc
 140 184 l 1
 140 34 l 2
 140 6 120 -2 92 -2 c 0
 64 -2 44 6 44 34 c 1
 68 34 l 1
 68 14 78 6 92 6 c 0
 104 6 116 14 116 34 c 2
 116 184 l 1xbc
EndSplineSet
Validated: 1
Comment: "IJ had both contours and references, so the contours were moved into this glyph, and a reference to it was added in the original."
Colour: ff8080
EndChar

StartChar: ij.ref1
Encoding: 65547 -1 968
Width: 152
VWidth: 0
LayerCount: 2
Fore
SplineSet
114 -14 m 2
 114 -42 92 -50 76 -50 c 0
 58 -50 38 -50 38 -22 c 1
 62 -22 l 1
 62 -42 68 -42 72 -42 c 2
 76 -42 l 2
 82 -42 90 -34 90 -14 c 2
 90 128 l 1
 62 128 l 1
 62 0 l 1
 38 0 l 1
 38 136 l 1
 114 136 l 1
 114 -14 l 2
EndSplineSet
Validated: 1
Comment: "ij had both contours and references, so the contours were moved into this glyph, and a reference to it was added in the original."
Colour: ff8080
EndChar

StartChar: jcircumflex.ref1
Encoding: 65548 -1 969
Width: 152
VWidth: 0
LayerCount: 2
Fore
SplineSet
96 -14 m 2xe4
 96 -42 74 -50 58 -50 c 0
 40 -50 20 -50 20 -22 c 1
 44 -22 l 1
 44 -42 52 -42 56 -42 c 2
 58 -42 l 2
 64 -42 72 -34 72 -14 c 2
 72 128 l 1xf4
 44 128 l 1
 44 136 l 1xe8
 96 136 l 1
 96 -14 l 2xe4
EndSplineSet
Validated: 1
Comment: "jcircumflex had both contours and references, so the contours were moved into this glyph, and a reference to it was added in the original."
Colour: ff8080
EndChar

StartChar: Kcommaaccent.ref1
Encoding: 65549 -1 970
Width: 152
VWidth: 0
LayerCount: 2
Fore
SplineSet
96 -8 m 1
 96 -14 l 2
 96 -42 76 -50 60 -50 c 1
 60 -42 l 1
 66 -42 72 -34 72 -14 c 2
 72 -8 l 1
 96 -8 l 1
EndSplineSet
Validated: 1
Comment: "Kcommaaccent had both contours and references, so the contours were moved into this glyph, and a reference to it was added in the original."
Colour: ff8080
EndChar

StartChar: kcommaaccent.ref1
Encoding: 65550 -1 971
Width: 152
VWidth: 0
LayerCount: 2
Fore
SplineSet
96 -8 m 1
 96 -14 l 2
 96 -42 76 -50 60 -50 c 1
 60 -42 l 1
 66 -42 72 -34 72 -14 c 2
 72 -8 l 1
 96 -8 l 1
EndSplineSet
Validated: 1
Comment: "kcommaaccent had both contours and references, so the contours were moved into this glyph, and a reference to it was added in the original."
Colour: ff8080
EndChar

StartChar: Lcommaaccent.ref1
Encoding: 65551 -1 972
Width: 152
VWidth: 0
LayerCount: 2
Fore
SplineSet
96 -8 m 5
 96 -14 l 2
 96 -42 72 -50 56 -50 c 1
 56 -42 l 1
 62 -42 72 -34 72 -14 c 2
 72 -8 l 5
 96 -8 l 5
EndSplineSet
Validated: 1
Comment: "Lcommaaccent had both contours and references, so the contours were moved into this glyph, and a reference to it was added in the original."
Colour: ff8080
EndChar

StartChar: lcommaaccent.ref1
Encoding: 65552 -1 973
Width: 152
VWidth: 0
LayerCount: 2
Fore
SplineSet
118 -8 m 1
 118 -14 l 2
 118 -42 96 -50 80 -50 c 1
 80 -42 l 1
 86 -42 94 -34 94 -14 c 2
 94 -8 l 1
 118 -8 l 1
EndSplineSet
Validated: 1
Comment: "lcommaaccent had both contours and references, so the contours were moved into this glyph, and a reference to it was added in the original."
Colour: ff8080
EndChar

StartChar: Ncommaaccent.ref1
Encoding: 65553 -1 974
Width: 152
VWidth: 0
LayerCount: 2
Fore
SplineSet
95 0 m 5xde
 95 -14 l 2
 95 -42 73 -50 57 -50 c 1
 57 -42 l 1
 63 -42 71 -34 71 -14 c 2
 71 0 l 5
 95 0 l 5xde
EndSplineSet
Validated: 1
Comment: "Ncommaaccent had both contours and references, so the contours were moved into this glyph, and a reference to it was added in the original."
Colour: ff8080
EndChar

StartChar: ncommaaccent.ref1
Encoding: 65554 -1 975
Width: 152
VWidth: 0
LayerCount: 2
Fore
SplineSet
95 0 m 5xc7
 95 -14 l 2
 95 -42 73 -50 57 -50 c 1
 57 -42 l 1
 63 -42 71 -34 71 -14 c 2
 71 0 l 5
 95 0 l 5xc7
EndSplineSet
Validated: 1
Comment: "ncommaaccent had both contours and references, so the contours were moved into this glyph, and a reference to it was added in the original."
Colour: ff8080
EndChar

StartChar: Rcommaaccent.ref1
Encoding: 65555 -1 976
Width: 152
VWidth: 0
LayerCount: 2
Fore
SplineSet
99 0 m 5xdf
 99 -14 l 2
 99 -42 77 -50 61 -50 c 1
 61 -42 l 1
 67 -42 75 -34 75 -14 c 2
 75 0 l 5
 99 0 l 5xdf
EndSplineSet
Validated: 1
Comment: "Rcommaaccent had both contours and references, so the contours were moved into this glyph, and a reference to it was added in the original."
Colour: ff8080
EndChar

StartChar: rcommaaccent.ref1
Encoding: 65556 -1 977
Width: 152
VWidth: 0
LayerCount: 2
Fore
SplineSet
88 0 m 5xc6
 88 -14 l 2
 88 -42 66 -50 50 -50 c 1
 50 -42 l 1
 56 -42 64 -34 64 -14 c 2
 64 0 l 5
 88 0 l 5xc6
EndSplineSet
Validated: 1
Comment: "rcommaaccent had both contours and references, so the contours were moved into this glyph, and a reference to it was added in the original."
Colour: ff8080
EndChar

StartChar: uni01F0.ref1
Encoding: 65557 -1 978
Width: 152
VWidth: 0
LayerCount: 2
Fore
SplineSet
96 -14 m 2xf4
 96 -42 74 -50 58 -50 c 0
 40 -50 20 -50 20 -22 c 1
 44 -22 l 1
 44 -42 52 -42 56 -42 c 2
 58 -42 l 2
 64 -42 72 -34 72 -14 c 2
 72 128 l 1
 44 128 l 1
 44 136 l 1
 96 136 l 1
 96 -14 l 2xf4
EndSplineSet
Validated: 1
Comment: "uni01F0 had both contours and references, so the contours were moved into this glyph, and a reference to it was added in the original."
Colour: ff8080
EndChar

StartChar: Scommaaccent.ref1
Encoding: 65558 -1 979
Width: 152
VWidth: 0
LayerCount: 2
Fore
SplineSet
95 -8 m 1
 95 -14 l 2
 95 -42 73 -50 57 -50 c 1
 57 -42 l 1
 63 -42 71 -34 71 -14 c 2
 71 -8 l 1
 95 -8 l 1
EndSplineSet
Validated: 1
Comment: "Scommaaccent had both contours and references, so the contours were moved into this glyph, and a reference to it was added in the original."
Colour: ff8080
EndChar

StartChar: scommaaccent.ref1
Encoding: 65559 -1 980
Width: 152
VWidth: 0
LayerCount: 2
Fore
SplineSet
96 -8 m 1
 96 -14 l 2
 96 -42 74 -50 58 -50 c 1
 58 -42 l 1
 64 -42 72 -34 72 -14 c 2
 72 -8 l 1
 96 -8 l 1
EndSplineSet
Validated: 1
Comment: "scommaaccent had both contours and references, so the contours were moved into this glyph, and a reference to it was added in the original."
Colour: ff8080
EndChar

StartChar: uni021A.ref1
Encoding: 65560 -1 981
Width: 152
VWidth: 0
LayerCount: 2
Fore
SplineSet
88 -8 m 1
 88 -14 l 2
 88 -42 66 -50 50 -50 c 1
 50 -42 l 1
 56 -42 64 -34 64 -14 c 2
 64 -8 l 1
 88 -8 l 1
EndSplineSet
Validated: 1
Comment: "uni021A had both contours and references, so the contours were moved into this glyph, and a reference to it was added in the original."
Colour: ff8080
EndChar

StartChar: uni021B.ref1
Encoding: 65561 -1 982
Width: 152
VWidth: 0
LayerCount: 2
Fore
SplineSet
96 -8 m 1xfc
 96 -14 l 2
 96 -42 74 -50 58 -50 c 1
 58 -42 l 1
 64 -42 72 -34 72 -14 c 2
 72 -8 l 1
 96 -8 l 1xfc
EndSplineSet
Validated: 1
Comment: "uni021B had both contours and references, so the contours were moved into this glyph, and a reference to it was added in the original."
Colour: ff8080
EndChar

StartChar: Theta.ref1
Encoding: 65562 -1 983
Width: 152
VWidth: 0
LayerCount: 2
Fore
SplineSet
64 96 m 1
 88 96 l 1
 88 88 l 1
 64 88 l 1
 64 96 l 1
EndSplineSet
Validated: 1
Comment: "Theta had both contours and references, so the contours were moved into this glyph, and a reference to it was added in the original."
Colour: ff8080
EndChar

StartChar: Xi.ref1
Encoding: 65563 -1 984
Width: 152
VWidth: 0
LayerCount: 2
Fore
SplineSet
36 96 m 1
 116 96 l 1
 116 88 l 1
 36 88 l 1
 36 96 l 1
EndSplineSet
Validated: 1
Comment: "Xi had both contours and references, so the contours were moved into this glyph, and a reference to it was added in the original."
Colour: ff8080
EndChar

StartChar: afii10045.ref1
Encoding: 65564 -1 985
Width: 152
VWidth: 0
LayerCount: 2
Fore
SplineSet
40 8 m 2xbe
 60 8 80 16 80 36 c 2
 80 64 l 2
 80 84 60 92 40 92 c 2
 36 92 l 1
 36 8 l 1
 40 8 l 2xbe
40 0 m 2
 12 0 l 1x7e
 12 184 l 1
 36 184 l 1
 36 100 l 1
 40 100 l 2
 68 100 104 92 104 64 c 2
 104 36 l 2
 104 8 68 0 40 0 c 2
EndSplineSet
Validated: 1
Comment: "afii10045 had both contours and references, so the contours were moved into this glyph, and a reference to it was added in the original."
Colour: ff8080
EndChar

StartChar: afii57668.ref1
Encoding: 65565 -1 986
Width: 152
VWidth: 0
LayerCount: 2
Fore
SplineSet
12 136 m 5
 36 136 l 5
 36 0 l 5
 12 0 l 5
 12 136 l 5
EndSplineSet
Validated: 1
Comment: "afii57668 had both contours and references, so the contours were moved into this glyph, and a reference to it was added in the original."
Colour: ff8080
EndChar

StartChar: uni1EE0.ref1
Encoding: 65566 -1 987
Width: 152
VWidth: 0
LayerCount: 2
Fore
SplineSet
50 216 m 0xfc
 90 216 80 200 94 200 c 3
 108 200 108 212 108 216 c 1
 132 216 l 1
 132 206 120 194 94 194 c 0
 60 194 66 210 50 210 c 0
 36 210 36 198 36 194 c 1
 12 194 l 1
 12 204 24 216 50 216 c 0xfc
EndSplineSet
Validated: 1
Comment: "uni1EE0 had both contours and references, so the contours were moved into this glyph, and a reference to it was added in the original."
Colour: ff8080
EndChar

StartChar: uni1F00.ref1
Encoding: 65567 -1 988
Width: 152
VWidth: 0
LayerCount: 2
Fore
SplineSet
116 216 m 1
 116 186 l 2
 116 158 94 150 78 150 c 1
 78 158 l 1
 84 158 92 166 92 186 c 2
 92 216 l 1
 116 216 l 1
EndSplineSet
Validated: 1
Comment: "uni1F00 had both contours and references, so the contours were moved into this glyph, and a reference to it was added in the original."
Colour: ff8080
EndChar

StartChar: uni1F0E.ref1
Encoding: 65568 -1 989
Width: 152
VWidth: 0
LayerCount: 2
Fore
SplineSet
36 186 m 1xef80
 36 148 l 2
 36 120 16 112 0 112 c 1
 0 120 l 1
 6 120 12 128 12 148 c 2
 12 186 l 1
 36 186 l 1xef80
EndSplineSet
Validated: 1
Comment: "uni1F0E had both contours and references, so the contours were moved into this glyph, and a reference to it was added in the original."
Colour: ff8080
EndChar

StartChar: uni1F10.ref1
Encoding: 65569 -1 990
Width: 152
VWidth: 0
LayerCount: 2
Fore
SplineSet
88 216 m 1
 88 186 l 2
 88 158 66 150 50 150 c 1
 50 158 l 1
 56 158 64 166 64 186 c 2
 64 216 l 1
 88 216 l 1
EndSplineSet
Validated: 1
Comment: "uni1F10 had both contours and references, so the contours were moved into this glyph, and a reference to it was added in the original."
Colour: ff8080
EndChar

StartChar: uni1F18.ref1
Encoding: 65570 -1 991
Width: 152
VWidth: 0
LayerCount: 2
Fore
SplineSet
70 176 m 1
 70 96 l 1
 124 96 l 1
 124 88 l 1
 70 88 l 1
 70 8 l 1
 140 8 l 1
 140 0 l 1
 46 0 l 1
 46 184 l 1
 140 184 l 1
 140 176 l 1
 70 176 l 1
EndSplineSet
Validated: 1
Comment: "uni1F18 had both contours and references, so the contours were moved into this glyph, and a reference to it was added in the original."
Colour: ff8080
EndChar

StartChar: uni1F20.ref1
Encoding: 65571 -1 992
Width: 152
VWidth: 0
LayerCount: 2
Fore
SplineSet
88 216 m 1x9e
 88 186 l 2
 88 158 66 150 50 150 c 1
 50 158 l 1
 56 158 64 166 64 186 c 2
 64 216 l 1
 72 216 80 216 88 216 c 1x9e
EndSplineSet
Validated: 1
Comment: "uni1F20 had both contours and references, so the contours were moved into this glyph, and a reference to it was added in the original."
Colour: ff8080
EndChar

StartChar: uni1F30.ref1
Encoding: 65572 -1 993
Width: 152
VWidth: 0
LayerCount: 2
Fore
SplineSet
88 216 m 1
 88 186 l 2
 88 158 66 150 50 150 c 1
 50 158 l 1
 56 158 64 166 64 186 c 2
 64 216 l 1
 88 216 l 1
EndSplineSet
Validated: 1
Comment: "uni1F30 had both contours and references, so the contours were moved into this glyph, and a reference to it was added in the original."
Colour: ff8080
EndChar

StartChar: uni1F3C.ref1
Encoding: 65573 -1 994
Width: 152
VWidth: 0
LayerCount: 2
Fore
SplineSet
40 184 m 1xde
 140 184 l 1
 140 176 l 1
 114 176 l 1
 114 8 l 1
 140 8 l 1
 140 0 l 1
 60 0 l 1
 60 8 l 1
 90 8 l 1
 90 176 l 1
 64 176 l 1
 64 146 l 2
 64 118 42 110 26 110 c 1
 26 118 l 1
 32 118 40 126 40 146 c 2
 40 184 l 1xde
EndSplineSet
Validated: 1
Comment: "uni1F3C had both contours and references, so the contours were moved into this glyph, and a reference to it was added in the original."
Colour: ff8080
EndChar

StartChar: uni1F3E.ref1
Encoding: 65574 -1 995
Width: 152
VWidth: 0
LayerCount: 2
Fore
SplineSet
36 184 m 1xef80
 36 146 l 2
 36 118 16 110 0 110 c 1
 0 118 l 1
 6 118 12 126 12 146 c 2
 12 184 l 1
 36 184 l 1xef80
EndSplineSet
Validated: 1
Comment: "uni1F3E had both contours and references, so the contours were moved into this glyph, and a reference to it was added in the original."
Colour: ff8080
EndChar

StartChar: uni1F40.ref1
Encoding: 65575 -1 996
Width: 152
VWidth: 0
LayerCount: 2
Fore
SplineSet
88 216 m 1
 88 186 l 2
 88 158 66 150 50 150 c 1
 50 158 l 1
 56 158 64 166 64 186 c 2
 64 216 l 1
 88 216 l 1
EndSplineSet
Validated: 1
Comment: "uni1F40 had both contours and references, so the contours were moved into this glyph, and a reference to it was added in the original."
Colour: ff8080
EndChar

StartChar: uni1F50.ref1
Encoding: 65576 -1 997
Width: 152
VWidth: 0
LayerCount: 2
Fore
SplineSet
88 216 m 1
 88 186 l 2
 88 158 66 150 50 150 c 1
 50 158 l 1
 56 158 64 166 64 186 c 2
 64 216 l 1
 88 216 l 1
EndSplineSet
Validated: 1
Comment: "uni1F50 had both contours and references, so the contours were moved into this glyph, and a reference to it was added in the original."
Colour: ff8080
EndChar

StartChar: uni1F60.ref1
Encoding: 65577 -1 998
Width: 152
VWidth: 0
LayerCount: 2
Fore
SplineSet
88 216 m 1
 88 186 l 2
 88 158 66 150 50 150 c 1
 50 158 l 1
 56 158 64 166 64 186 c 2
 64 216 l 1
 88 216 l 1
EndSplineSet
Validated: 1
Comment: "uni1F60 had both contours and references, so the contours were moved into this glyph, and a reference to it was added in the original."
Colour: ff8080
EndChar

StartChar: uni1FBC.ref1
Encoding: 65578 -1 999
Width: 152
VWidth: 0
LayerCount: 2
Fore
SplineSet
115 0 m 1
 95 0 l 1
 80 54 l 1
 32 54 l 1
 20 0 l 1
 12 0 l 1
 56 184 l 1
 62 184 l 1
 115 0 l 1
78 62 m 1
 54 152 l 1
 34 62 l 1
 78 62 l 1
EndSplineSet
Validated: 1
Comment: "uni1FBC had both contours and references, so the contours were moved into this glyph, and a reference to it was added in the original."
Colour: ff8080
EndChar

StartChar: uni203D.ref1
Encoding: 65579 -1 1000
Width: 152
VWidth: 0
LayerCount: 2
Fore
SplineSet
88 92 m 1
 88 40 l 1
 64 40 l 1
 64 164 l 1
 88 164 l 1
 88 101 l 1
 103 103 116 110 116 126 c 2
 116 152 l 2
 116 172 96 178 76 178 c 0
 56 178 36 172 36 152 c 1
 12 152 l 1
 12 180 48 186 76 186 c 0
 104 186 140 180 140 152 c 2
 140 126 l 2
 140 102 114 94 88 92 c 1
EndSplineSet
Validated: 1
Comment: "uni203D had both contours and references, so the contours were moved into this glyph, and a reference to it was added in the original."
Colour: ff8080
EndChar
